<?xml version="1.0" encoding="UTF-8" standalone="no"?><svg xmlns="http://www.w3.org/2000/svg" xmlns:xlink="http://www.w3.org/1999/xlink" contentScriptType="application/ecmascript" contentStyleType="text/css" height="380px" preserveAspectRatio="none" style="width:656px;height:380px;" version="1.1" viewBox="0 0 656 380" width="656px" zoomAndPan="magnify"><defs/><g><!--MD5=[0dc7f2ddb409b58bcf52b12238c25399]
class Ship--><rect fill="#FEFECE" height="52.8047" id="Ship" style="stroke: #A80036; stroke-width: 1.5;" width="87" x="44" y="14.5"/><ellipse cx="71.6" cy="30.5" fill="#ADD1B2" rx="11" ry="11" style="stroke: #A80036; stroke-width: 1.0;"/><path d="M73.9438,26.1719 L74.1156,26.25 C74.3344,25.9375 74.5375,25.8438 74.8344,25.8438 C75.1313,25.8438 75.4125,25.9844 75.5688,26.25 C75.6625,26.4063 75.6781,26.5313 75.6781,26.9688 L75.6781,28.3906 C75.6781,28.8125 75.6469,29 75.5375,29.1563 C75.3656,29.375 75.1,29.5156 74.8344,29.5156 C74.6156,29.5156 74.3813,29.4063 74.2406,29.2656 C74.1,29.1406 74.0688,29.0156 74.0063,28.6094 C73.9125,28.2031 73.7406,27.9844 73.2563,27.7031 C72.7875,27.4531 72.1781,27.2969 71.6,27.2969 C69.8656,27.2969 68.6156,28.6094 68.6156,30.3906 L68.6156,31.4844 C68.6156,33.1875 69.9125,34.2813 71.9594,34.2813 C72.725,34.2813 73.4125,34.1563 73.8344,33.8906 C74.0219,33.7969 74.0219,33.7969 74.475,33.3125 C74.6625,33.125 74.8656,33.0469 75.0844,33.0469 C75.5531,33.0469 75.9438,33.4375 75.9438,33.8906 C75.9438,34.2813 75.6156,34.7344 75.0375,35.1406 C74.2875,35.6875 73.1313,35.9844 71.9125,35.9844 C69.0219,35.9844 66.9125,34.0938 66.9125,31.5156 L66.9125,30.3906 C66.9125,27.6719 68.9125,25.5938 71.5375,25.5938 C72.4125,25.5938 73.0063,25.7344 73.9438,26.1719 Z "/><text fill="#000000" font-family="sans-serif" font-size="12" lengthAdjust="spacingAndGlyphs" textLength="27" x="88.4" y="34.6543">Ship</text><line style="stroke: #A80036; stroke-width: 1.5;" x1="45" x2="130" y1="46.5" y2="46.5"/><ellipse cx="55" cy="57.5" fill="#84BE84" rx="3" ry="3" style="stroke: #038048; stroke-width: 1.0;"/><text fill="#000000" font-family="sans-serif" font-size="11" lengthAdjust="spacingAndGlyphs" textLength="61" x="64" y="60.7104">init(name:)</text><!--MD5=[c86ce95fe6226f2d2796c0513d8e83fe]
class Engine--><rect fill="#FEFECE" height="65.6094" id="Engine" style="stroke: #A80036; stroke-width: 1.5;" width="130" x="166.5" y="8"/><ellipse cx="206.25" cy="24" fill="#ADD1B2" rx="11" ry="11" style="stroke: #A80036; stroke-width: 1.0;"/><path d="M208.5938,19.6719 L208.7656,19.75 C208.9844,19.4375 209.1875,19.3438 209.4844,19.3438 C209.7813,19.3438 210.0625,19.4844 210.2188,19.75 C210.3125,19.9063 210.3281,20.0313 210.3281,20.4688 L210.3281,21.8906 C210.3281,22.3125 210.2969,22.5 210.1875,22.6563 C210.0156,22.875 209.75,23.0156 209.4844,23.0156 C209.2656,23.0156 209.0313,22.9063 208.8906,22.7656 C208.75,22.6406 208.7188,22.5156 208.6563,22.1094 C208.5625,21.7031 208.3906,21.4844 207.9063,21.2031 C207.4375,20.9531 206.8281,20.7969 206.25,20.7969 C204.5156,20.7969 203.2656,22.1094 203.2656,23.8906 L203.2656,24.9844 C203.2656,26.6875 204.5625,27.7813 206.6094,27.7813 C207.375,27.7813 208.0625,27.6563 208.4844,27.3906 C208.6719,27.2969 208.6719,27.2969 209.125,26.8125 C209.3125,26.625 209.5156,26.5469 209.7344,26.5469 C210.2031,26.5469 210.5938,26.9375 210.5938,27.3906 C210.5938,27.7813 210.2656,28.2344 209.6875,28.6406 C208.9375,29.1875 207.7813,29.4844 206.5625,29.4844 C203.6719,29.4844 201.5625,27.5938 201.5625,25.0156 L201.5625,23.8906 C201.5625,21.1719 203.5625,19.0938 206.1875,19.0938 C207.0625,19.0938 207.6563,19.2344 208.5938,19.6719 Z "/><text fill="#000000" font-family="sans-serif" font-size="12" lengthAdjust="spacingAndGlyphs" textLength="43" x="225.75" y="28.1543">Engine</text><line style="stroke: #A80036; stroke-width: 1.5;" x1="167.5" x2="295.5" y1="40" y2="40"/><ellipse cx="177.5" cy="51" fill="#84BE84" rx="3" ry="3" style="stroke: #038048; stroke-width: 1.0;"/><text fill="#000000" font-family="sans-serif" font-size="11" lengthAdjust="spacingAndGlyphs" textLength="104" x="186.5" y="54.2104">init(typeOfEngine:)</text><ellipse cx="177.5" cy="63.8047" fill="#84BE84" rx="3" ry="3" style="stroke: #038048; stroke-width: 1.0;"/><text fill="#000000" font-family="sans-serif" font-size="11" lengthAdjust="spacingAndGlyphs" textLength="82" x="186.5" y="67.0151">switchEngine()</text><!--MD5=[09ce52be0ee7de43c61b6e2d59bf108b]
class Person--><rect fill="#FEFECE" height="104.0234" id="Person" style="stroke: #A80036; stroke-width: 1.5;" width="163" x="6" y="151"/><ellipse cx="61.25" cy="167" fill="#ADD1B2" rx="11" ry="11" style="stroke: #A80036; stroke-width: 1.0;"/><path d="M63.5938,162.6719 L63.7656,162.75 C63.9844,162.4375 64.1875,162.3438 64.4844,162.3438 C64.7813,162.3438 65.0625,162.4844 65.2188,162.75 C65.3125,162.9063 65.3281,163.0313 65.3281,163.4688 L65.3281,164.8906 C65.3281,165.3125 65.2969,165.5 65.1875,165.6563 C65.0156,165.875 64.75,166.0156 64.4844,166.0156 C64.2656,166.0156 64.0313,165.9063 63.8906,165.7656 C63.75,165.6406 63.7188,165.5156 63.6563,165.1094 C63.5625,164.7031 63.3906,164.4844 62.9063,164.2031 C62.4375,163.9531 61.8281,163.7969 61.25,163.7969 C59.5156,163.7969 58.2656,165.1094 58.2656,166.8906 L58.2656,167.9844 C58.2656,169.6875 59.5625,170.7813 61.6094,170.7813 C62.375,170.7813 63.0625,170.6563 63.4844,170.3906 C63.6719,170.2969 63.6719,170.2969 64.125,169.8125 C64.3125,169.625 64.5156,169.5469 64.7344,169.5469 C65.2031,169.5469 65.5938,169.9375 65.5938,170.3906 C65.5938,170.7813 65.2656,171.2344 64.6875,171.6406 C63.9375,172.1875 62.7813,172.4844 61.5625,172.4844 C58.6719,172.4844 56.5625,170.5938 56.5625,168.0156 L56.5625,166.8906 C56.5625,164.1719 58.5625,162.0938 61.1875,162.0938 C62.0625,162.0938 62.6563,162.2344 63.5938,162.6719 Z "/><text fill="#000000" font-family="sans-serif" font-size="12" lengthAdjust="spacingAndGlyphs" textLength="44" x="81.75" y="171.1543">Person</text><line style="stroke: #A80036; stroke-width: 1.5;" x1="7" x2="168" y1="183" y2="183"/><ellipse cx="17" cy="194" fill="#84BE84" rx="3" ry="3" style="stroke: #038048; stroke-width: 1.0;"/><text fill="#000000" font-family="sans-serif" font-size="11" lengthAdjust="spacingAndGlyphs" textLength="73" x="26" y="197.2104">getLocation()</text><ellipse cx="17" cy="206.8047" fill="#84BE84" rx="3" ry="3" style="stroke: #038048; stroke-width: 1.0;"/><text fill="#000000" font-family="sans-serif" font-size="11" lengthAdjust="spacingAndGlyphs" textLength="121" x="26" y="210.0151">setLocation(location:)</text><ellipse cx="17" cy="219.6094" fill="#84BE84" rx="3" ry="3" style="stroke: #038048; stroke-width: 1.0;"/><text fill="#000000" font-family="sans-serif" font-size="11" lengthAdjust="spacingAndGlyphs" textLength="94" x="26" y="222.8198">init(age:WhoIsIt:)</text><ellipse cx="17" cy="232.4141" fill="#84BE84" rx="3" ry="3" style="stroke: #038048; stroke-width: 1.0;"/><text fill="#000000" font-family="sans-serif" font-size="11" lengthAdjust="spacingAndGlyphs" textLength="137" x="26" y="235.6245">removeFriends(friends:)</text><ellipse cx="17" cy="245.2188" fill="#84BE84" rx="3" ry="3" style="stroke: #038048; stroke-width: 1.0;"/><text fill="#000000" font-family="sans-serif" font-size="11" lengthAdjust="spacingAndGlyphs" textLength="115" x="26" y="248.4292">addFriends(friends:)</text><!--MD5=[8515a37c80da559ff7ce07f8a9e75d30]
class Place--><rect fill="#FEFECE" height="37.9375" id="Place" style="stroke: #A80036; stroke-width: 1.5;" width="94" x="441.5" y="332"/><ellipse cx="456.5" cy="350.9688" fill="#DAA520" rx="11" ry="11" style="stroke: #A80036; stroke-width: 1.0;"/><path d="M456.0469,352.5625 L456.0469,354.2656 L457.7344,354.2656 C458.1875,354.2656 458.3281,354.2969 458.5,354.4219 C458.7188,354.5938 458.8594,354.8438 458.8594,355.125 C458.8594,355.4063 458.7031,355.7031 458.4375,355.8438 C458.3281,355.9219 458.0781,355.9688 457.7344,355.9688 L454.0938,355.9688 C453.7031,355.9688 453.4688,355.9219 453.3281,355.7969 C453.1094,355.6406 452.9688,355.375 452.9688,355.125 C452.9688,354.8281 453.125,354.5469 453.375,354.3906 C453.5313,354.2813 453.6875,354.2656 454.0938,354.2656 L454.3438,354.2656 L454.3438,347.75 L454.0938,347.75 C453.6719,347.75 453.4844,347.7188 453.3281,347.6094 C453.1094,347.4375 452.9688,347.1563 452.9688,346.9063 C452.9688,346.625 453.125,346.3281 453.375,346.1719 C453.5313,346.0781 453.6563,346.0625 454.0938,346.0625 L458.0469,346.0625 C460.2188,346.0625 461.75,347.3906 461.75,349.2656 C461.75,350.0469 461.4375,350.8594 460.8906,351.4531 C460.1406,352.2813 459.2969,352.5625 457.7188,352.5625 Z M456.0469,347.75 L456.0469,350.875 L458.0469,350.875 C459.2344,350.875 459.9375,350.2813 459.9375,349.3281 C459.9375,348.3594 459.2344,347.75 458.0469,347.75 Z "/><text fill="#000000" font-family="sans-serif" font-size="12" font-style="italic" lengthAdjust="spacingAndGlyphs" textLength="66" x="468.5" y="348.1387">«protocol»</text><text fill="#000000" font-family="sans-serif" font-size="12" lengthAdjust="spacingAndGlyphs" textLength="34" x="484.5" y="362.1074">Place</text><!--MD5=[c92f46f001b4e7caa367b7b86f056037]
class EatingPlace--><rect fill="#FEFECE" height="104.0234" id="EatingPlace" style="stroke: #A80036; stroke-width: 1.5;" width="225" x="376" y="151"/><ellipse cx="447.25" cy="167" fill="#ADD1B2" rx="11" ry="11" style="stroke: #A80036; stroke-width: 1.0;"/><path d="M449.5938,162.6719 L449.7656,162.75 C449.9844,162.4375 450.1875,162.3438 450.4844,162.3438 C450.7813,162.3438 451.0625,162.4844 451.2188,162.75 C451.3125,162.9063 451.3281,163.0313 451.3281,163.4688 L451.3281,164.8906 C451.3281,165.3125 451.2969,165.5 451.1875,165.6563 C451.0156,165.875 450.75,166.0156 450.4844,166.0156 C450.2656,166.0156 450.0313,165.9063 449.8906,165.7656 C449.75,165.6406 449.7188,165.5156 449.6563,165.1094 C449.5625,164.7031 449.3906,164.4844 448.9063,164.2031 C448.4375,163.9531 447.8281,163.7969 447.25,163.7969 C445.5156,163.7969 444.2656,165.1094 444.2656,166.8906 L444.2656,167.9844 C444.2656,169.6875 445.5625,170.7813 447.6094,170.7813 C448.375,170.7813 449.0625,170.6563 449.4844,170.3906 C449.6719,170.2969 449.6719,170.2969 450.125,169.8125 C450.3125,169.625 450.5156,169.5469 450.7344,169.5469 C451.2031,169.5469 451.5938,169.9375 451.5938,170.3906 C451.5938,170.7813 451.2656,171.2344 450.6875,171.6406 C449.9375,172.1875 448.7813,172.4844 447.5625,172.4844 C444.6719,172.4844 442.5625,170.5938 442.5625,168.0156 L442.5625,166.8906 C442.5625,164.1719 444.5625,162.0938 447.1875,162.0938 C448.0625,162.0938 448.6563,162.2344 449.5938,162.6719 Z "/><text fill="#000000" font-family="sans-serif" font-size="12" lengthAdjust="spacingAndGlyphs" textLength="74" x="467.75" y="171.1543">EatingPlace</text><line style="stroke: #A80036; stroke-width: 1.5;" x1="377" x2="600" y1="183" y2="183"/><ellipse cx="387" cy="194" fill="#84BE84" rx="3" ry="3" style="stroke: #038048; stroke-width: 1.0;"/><text fill="#000000" font-family="sans-serif" font-size="11" lengthAdjust="spacingAndGlyphs" textLength="87" x="396" y="197.2104">init(name:size:)</text><ellipse cx="387" cy="206.8047" fill="#84BE84" rx="3" ry="3" style="stroke: #038048; stroke-width: 1.0;"/><text fill="#000000" font-family="sans-serif" font-size="11" lengthAdjust="spacingAndGlyphs" textLength="100" x="396" y="210.0151">getListOfGuests()</text><ellipse cx="387" cy="219.6094" fill="#84BE84" rx="3" ry="3" style="stroke: #038048; stroke-width: 1.0;"/><text fill="#000000" font-family="sans-serif" font-size="11" lengthAdjust="spacingAndGlyphs" textLength="199" x="396" y="222.8198">setListOfGuests(personID:person:)</text><ellipse cx="387" cy="232.4141" fill="#84BE84" rx="3" ry="3" style="stroke: #038048; stroke-width: 1.0;"/><text fill="#000000" font-family="sans-serif" font-size="11" lengthAdjust="spacingAndGlyphs" textLength="135" x="396" y="235.6245">removePerson(person:)</text><ellipse cx="387" cy="245.2188" fill="#84BE84" rx="3" ry="3" style="stroke: #038048; stroke-width: 1.0;"/><text fill="#000000" font-family="sans-serif" font-size="11" lengthAdjust="spacingAndGlyphs" textLength="105" x="396" y="248.4292">amountOfGuests()</text><!--MD5=[714a323ea803c80dd4dfd42b424b55c8]
class Restaurant--><rect fill="#FEFECE" height="52.8047" id="Restaurant" style="stroke: #A80036; stroke-width: 1.5;" width="139" x="332" y="14.5"/><ellipse cx="363.65" cy="30.5" fill="#ADD1B2" rx="11" ry="11" style="stroke: #A80036; stroke-width: 1.0;"/><path d="M365.9938,26.1719 L366.1656,26.25 C366.3844,25.9375 366.5875,25.8438 366.8844,25.8438 C367.1813,25.8438 367.4625,25.9844 367.6188,26.25 C367.7125,26.4063 367.7281,26.5313 367.7281,26.9688 L367.7281,28.3906 C367.7281,28.8125 367.6969,29 367.5875,29.1563 C367.4156,29.375 367.15,29.5156 366.8844,29.5156 C366.6656,29.5156 366.4313,29.4063 366.2906,29.2656 C366.15,29.1406 366.1188,29.0156 366.0563,28.6094 C365.9625,28.2031 365.7906,27.9844 365.3063,27.7031 C364.8375,27.4531 364.2281,27.2969 363.65,27.2969 C361.9156,27.2969 360.6656,28.6094 360.6656,30.3906 L360.6656,31.4844 C360.6656,33.1875 361.9625,34.2813 364.0094,34.2813 C364.775,34.2813 365.4625,34.1563 365.8844,33.8906 C366.0719,33.7969 366.0719,33.7969 366.525,33.3125 C366.7125,33.125 366.9156,33.0469 367.1344,33.0469 C367.6031,33.0469 367.9938,33.4375 367.9938,33.8906 C367.9938,34.2813 367.6656,34.7344 367.0875,35.1406 C366.3375,35.6875 365.1813,35.9844 363.9625,35.9844 C361.0719,35.9844 358.9625,34.0938 358.9625,31.5156 L358.9625,30.3906 C358.9625,27.6719 360.9625,25.5938 363.5875,25.5938 C364.4625,25.5938 365.0563,25.7344 365.9938,26.1719 Z "/><text fill="#000000" font-family="sans-serif" font-size="12" lengthAdjust="spacingAndGlyphs" textLength="70" x="381.35" y="34.6543">Restaurant</text><line style="stroke: #A80036; stroke-width: 1.5;" x1="333" x2="470" y1="46.5" y2="46.5"/><ellipse cx="343" cy="57.5" fill="#84BE84" rx="3" ry="3" style="stroke: #038048; stroke-width: 1.0;"/><text fill="#000000" font-family="sans-serif" font-size="11" lengthAdjust="spacingAndGlyphs" textLength="113" x="352" y="60.7104">addPerson(person:)</text><!--MD5=[fea15f7924bd848149aeb562f3a4d86b]
class Bar--><rect fill="#FEFECE" height="52.8047" id="Bar" style="stroke: #A80036; stroke-width: 1.5;" width="139" x="506" y="14.5"/><ellipse cx="560.75" cy="30.5" fill="#ADD1B2" rx="11" ry="11" style="stroke: #A80036; stroke-width: 1.0;"/><path d="M563.0938,26.1719 L563.2656,26.25 C563.4844,25.9375 563.6875,25.8438 563.9844,25.8438 C564.2813,25.8438 564.5625,25.9844 564.7188,26.25 C564.8125,26.4063 564.8281,26.5313 564.8281,26.9688 L564.8281,28.3906 C564.8281,28.8125 564.7969,29 564.6875,29.1563 C564.5156,29.375 564.25,29.5156 563.9844,29.5156 C563.7656,29.5156 563.5313,29.4063 563.3906,29.2656 C563.25,29.1406 563.2188,29.0156 563.1563,28.6094 C563.0625,28.2031 562.8906,27.9844 562.4063,27.7031 C561.9375,27.4531 561.3281,27.2969 560.75,27.2969 C559.0156,27.2969 557.7656,28.6094 557.7656,30.3906 L557.7656,31.4844 C557.7656,33.1875 559.0625,34.2813 561.1094,34.2813 C561.875,34.2813 562.5625,34.1563 562.9844,33.8906 C563.1719,33.7969 563.1719,33.7969 563.625,33.3125 C563.8125,33.125 564.0156,33.0469 564.2344,33.0469 C564.7031,33.0469 565.0938,33.4375 565.0938,33.8906 C565.0938,34.2813 564.7656,34.7344 564.1875,35.1406 C563.4375,35.6875 562.2813,35.9844 561.0625,35.9844 C558.1719,35.9844 556.0625,34.0938 556.0625,31.5156 L556.0625,30.3906 C556.0625,27.6719 558.0625,25.5938 560.6875,25.5938 C561.5625,25.5938 562.1563,25.7344 563.0938,26.1719 Z "/><text fill="#000000" font-family="sans-serif" font-size="12" lengthAdjust="spacingAndGlyphs" textLength="21" x="581.25" y="34.6543">Bar</text><line style="stroke: #A80036; stroke-width: 1.5;" x1="507" x2="644" y1="46.5" y2="46.5"/><ellipse cx="517" cy="57.5" fill="#84BE84" rx="3" ry="3" style="stroke: #038048; stroke-width: 1.0;"/><text fill="#000000" font-family="sans-serif" font-size="11" lengthAdjust="spacingAndGlyphs" textLength="113" x="526" y="60.7104">addPerson(person:)</text><!--MD5=[1875c84c0d6811de494610176bc7ccd8]
link EatingPlace to Place--><path d="M488.5,255.064 C488.5,273.6928 488.5,294.4231 488.5,311.7478 " fill="none" id="EatingPlace-&gt;Place" style="stroke: #A80036; stroke-width: 1.0; stroke-dasharray: 7.0,7.0;"/><polygon fill="none" points="495.5,311.7766,488.5,331.7766,481.5,311.7766,495.5,311.7766" style="stroke: #A80036; stroke-width: 1.0;"/><text fill="#000000" font-family="sans-serif" font-size="13" lengthAdjust="spacingAndGlyphs" textLength="72" x="489.5" y="298.0669">confirms to</text><!--MD5=[c4a9bd4068f270141c066261d3110df7]
link Restaurant to EatingPlace--><path d="M415.478,67.707 C425.114,85.429 438.411,109.882 451.019,133.069 " fill="none" id="Restaurant-&gt;EatingPlace" style="stroke: #A80036; stroke-width: 1.0;"/><polygon fill="none" points="457.272,129.916,460.676,150.83,444.973,136.604,457.272,129.916" style="stroke: #A80036; stroke-width: 1.0;"/><text fill="#000000" font-family="sans-serif" font-size="13" lengthAdjust="spacingAndGlyphs" textLength="47" x="443.5" y="117.0669">inherits</text><!--MD5=[24ab62b7615f96f31436919c201910b0]
link Bar to EatingPlace--><path d="M561.522,67.707 C551.886,85.429 538.589,109.882 525.981,133.069 " fill="none" id="Bar-&gt;EatingPlace" style="stroke: #A80036; stroke-width: 1.0;"/><polygon fill="none" points="532.027,136.604,516.324,150.83,519.728,129.916,532.027,136.604" style="stroke: #A80036; stroke-width: 1.0;"/><text fill="#000000" font-family="sans-serif" font-size="13" lengthAdjust="spacingAndGlyphs" textLength="47" x="541.5" y="117.0669">inherits</text><!--MD5=[759d04dff9d09848d48912b569b07106]
link Ship to Engine--><!--MD5=[37735a6e3183272e247a939dd65f906b]
link Ship to Person--><!--MD5=[c8df0528cd669263f8b6eb4e998f9e43]
@startuml
hide empty members
skinparam shadowing false
class "Ship" as Ship {
  +init(name:)

}
class "Engine" as Engine {
  +init(typeOfEngine:)
  +switchEngine()

}
class "Person" as Person {
  +getLocation()
  +setLocation(location:)
  +init(age:WhoIsIt:)
  +removeFriends(friends:)
  +addFriends(friends:)

}
class "Place" as Place << (P,GoldenRod) protocol >> {

}
class "EatingPlace" as EatingPlace {
  +init(name:size:)
  +getListOfGuests()
  +setListOfGuests(personID:person:)
  +removePerson(person:)
  +amountOfGuests()

}
class "Restaurant" as Restaurant {
  +addPerson(person:)

}
class "Bar" as Bar {
  +addPerson(person:)

}

EatingPlace ..|> Place : confirms to
Restaurant - -|> EatingPlace : inherits
Bar - -|> EatingPlace : inherits
@enduml

PlantUML version 1.2020.02(Sun Mar 01 10:22:07 UTC 2020)
(GPL source distribution)
Java Runtime: Java(TM) SE Runtime Environment
JVM: Java HotSpot(TM) 64-Bit Server VM
Java Version: 1.7.0_25-b15
Operating System: Linux
Default Encoding: UTF-8
Language: en
Country: US
--></g></svg>