<?xml version="1.0" encoding="UTF-8" standalone="no"?><svg xmlns="http://www.w3.org/2000/svg" xmlns:xlink="http://www.w3.org/1999/xlink" contentScriptType="application/ecmascript" contentStyleType="text/css" height="239px" preserveAspectRatio="none" style="width:1568px;height:239px;" version="1.1" viewBox="0 0 1568 239" width="1568px" zoomAndPan="magnify"><defs/><g><!--MD5=[0dc7f2ddb409b58bcf52b12238c25399]
class Ship--><rect fill="#FEFECE" height="52.8047" id="Ship" style="stroke: #A80036; stroke-width: 1.5;" width="59" x="6" y="27"/><ellipse cx="21" cy="43" fill="#ADD1B2" rx="11" ry="11" style="stroke: #A80036; stroke-width: 1.0;"/><path d="M23.3438,38.6719 L23.5156,38.75 C23.7344,38.4375 23.9375,38.3438 24.2344,38.3438 C24.5313,38.3438 24.8125,38.4844 24.9688,38.75 C25.0625,38.9063 25.0781,39.0313 25.0781,39.4688 L25.0781,40.8906 C25.0781,41.3125 25.0469,41.5 24.9375,41.6563 C24.7656,41.875 24.5,42.0156 24.2344,42.0156 C24.0156,42.0156 23.7813,41.9063 23.6406,41.7656 C23.5,41.6406 23.4688,41.5156 23.4063,41.1094 C23.3125,40.7031 23.1406,40.4844 22.6563,40.2031 C22.1875,39.9531 21.5781,39.7969 21,39.7969 C19.2656,39.7969 18.0156,41.1094 18.0156,42.8906 L18.0156,43.9844 C18.0156,45.6875 19.3125,46.7813 21.3594,46.7813 C22.125,46.7813 22.8125,46.6563 23.2344,46.3906 C23.4219,46.2969 23.4219,46.2969 23.875,45.8125 C24.0625,45.625 24.2656,45.5469 24.4844,45.5469 C24.9531,45.5469 25.3438,45.9375 25.3438,46.3906 C25.3438,46.7813 25.0156,47.2344 24.4375,47.6406 C23.6875,48.1875 22.5313,48.4844 21.3125,48.4844 C18.4219,48.4844 16.3125,46.5938 16.3125,44.0156 L16.3125,42.8906 C16.3125,40.1719 18.3125,38.0938 20.9375,38.0938 C21.8125,38.0938 22.4063,38.2344 23.3438,38.6719 Z "/><text fill="#000000" font-family="sans-serif" font-size="12" lengthAdjust="spacingAndGlyphs" textLength="27" x="35" y="47.1543">Ship</text><line style="stroke: #A80036; stroke-width: 1.5;" x1="7" x2="64" y1="59" y2="59"/><ellipse cx="17" cy="70" fill="#84BE84" rx="3" ry="3" style="stroke: #038048; stroke-width: 1.0;"/><text fill="#000000" font-family="sans-serif" font-size="11" lengthAdjust="spacingAndGlyphs" textLength="25" x="26" y="73.2104">init()</text><!--MD5=[c86ce95fe6226f2d2796c0513d8e83fe]
class Engine--><rect fill="#FEFECE" height="78.4141" id="Engine" style="stroke: #A80036; stroke-width: 1.5;" width="128" x="100.5" y="14.5"/><ellipse cx="139.35" cy="30.5" fill="#ADD1B2" rx="11" ry="11" style="stroke: #A80036; stroke-width: 1.0;"/><path d="M141.6938,26.1719 L141.8656,26.25 C142.0844,25.9375 142.2875,25.8438 142.5844,25.8438 C142.8813,25.8438 143.1625,25.9844 143.3188,26.25 C143.4125,26.4063 143.4281,26.5313 143.4281,26.9688 L143.4281,28.3906 C143.4281,28.8125 143.3969,29 143.2875,29.1563 C143.1156,29.375 142.85,29.5156 142.5844,29.5156 C142.3656,29.5156 142.1313,29.4063 141.9906,29.2656 C141.85,29.1406 141.8188,29.0156 141.7563,28.6094 C141.6625,28.2031 141.4906,27.9844 141.0063,27.7031 C140.5375,27.4531 139.9281,27.2969 139.35,27.2969 C137.6156,27.2969 136.3656,28.6094 136.3656,30.3906 L136.3656,31.4844 C136.3656,33.1875 137.6625,34.2813 139.7094,34.2813 C140.475,34.2813 141.1625,34.1563 141.5844,33.8906 C141.7719,33.7969 141.7719,33.7969 142.225,33.3125 C142.4125,33.125 142.6156,33.0469 142.8344,33.0469 C143.3031,33.0469 143.6938,33.4375 143.6938,33.8906 C143.6938,34.2813 143.3656,34.7344 142.7875,35.1406 C142.0375,35.6875 140.8813,35.9844 139.6625,35.9844 C136.7719,35.9844 134.6625,34.0938 134.6625,31.5156 L134.6625,30.3906 C134.6625,27.6719 136.6625,25.5938 139.2875,25.5938 C140.1625,25.5938 140.7563,25.7344 141.6938,26.1719 Z "/><text fill="#000000" font-family="sans-serif" font-size="12" lengthAdjust="spacingAndGlyphs" textLength="43" x="158.65" y="34.6543">Engine</text><line style="stroke: #A80036; stroke-width: 1.5;" x1="101.5" x2="227.5" y1="46.5" y2="46.5"/><ellipse cx="111.5" cy="57.5" fill="#84BE84" rx="3" ry="3" style="stroke: #038048; stroke-width: 1.0;"/><text fill="#000000" font-family="sans-serif" font-size="11" lengthAdjust="spacingAndGlyphs" textLength="102" x="120.5" y="60.7104">init(enginePower:)</text><ellipse cx="111.5" cy="70.3047" fill="#84BE84" rx="3" ry="3" style="stroke: #038048; stroke-width: 1.0;"/><text fill="#000000" font-family="sans-serif" font-size="11" lengthAdjust="spacingAndGlyphs" textLength="73" x="120.5" y="73.5151">startEngine()</text><ellipse cx="111.5" cy="83.1094" fill="#84BE84" rx="3" ry="3" style="stroke: #038048; stroke-width: 1.0;"/><text fill="#000000" font-family="sans-serif" font-size="11" lengthAdjust="spacingAndGlyphs" textLength="71" x="120.5" y="86.3198">stopEngine()</text><!--MD5=[8515a37c80da559ff7ce07f8a9e75d30]
class Place--><rect fill="#FEFECE" height="52.8047" id="Place" style="stroke: #A80036; stroke-width: 1.5;" width="66" x="635.5" y="176"/><ellipse cx="650.5" cy="192" fill="#ADD1B2" rx="11" ry="11" style="stroke: #A80036; stroke-width: 1.0;"/><path d="M652.8438,187.6719 L653.0156,187.75 C653.2344,187.4375 653.4375,187.3438 653.7344,187.3438 C654.0313,187.3438 654.3125,187.4844 654.4688,187.75 C654.5625,187.9063 654.5781,188.0313 654.5781,188.4688 L654.5781,189.8906 C654.5781,190.3125 654.5469,190.5 654.4375,190.6563 C654.2656,190.875 654,191.0156 653.7344,191.0156 C653.5156,191.0156 653.2813,190.9063 653.1406,190.7656 C653,190.6406 652.9688,190.5156 652.9063,190.1094 C652.8125,189.7031 652.6406,189.4844 652.1563,189.2031 C651.6875,188.9531 651.0781,188.7969 650.5,188.7969 C648.7656,188.7969 647.5156,190.1094 647.5156,191.8906 L647.5156,192.9844 C647.5156,194.6875 648.8125,195.7813 650.8594,195.7813 C651.625,195.7813 652.3125,195.6563 652.7344,195.3906 C652.9219,195.2969 652.9219,195.2969 653.375,194.8125 C653.5625,194.625 653.7656,194.5469 653.9844,194.5469 C654.4531,194.5469 654.8438,194.9375 654.8438,195.3906 C654.8438,195.7813 654.5156,196.2344 653.9375,196.6406 C653.1875,197.1875 652.0313,197.4844 650.8125,197.4844 C647.9219,197.4844 645.8125,195.5938 645.8125,193.0156 L645.8125,191.8906 C645.8125,189.1719 647.8125,187.0938 650.4375,187.0938 C651.3125,187.0938 651.9063,187.2344 652.8438,187.6719 Z "/><text fill="#000000" font-family="sans-serif" font-size="12" lengthAdjust="spacingAndGlyphs" textLength="34" x="664.5" y="196.1543">Place</text><line style="stroke: #A80036; stroke-width: 1.5;" x1="636.5" x2="700.5" y1="208" y2="208"/><ellipse cx="646.5" cy="219" fill="#84BE84" rx="3" ry="3" style="stroke: #038048; stroke-width: 1.0;"/><text fill="#000000" font-family="sans-serif" font-size="11" lengthAdjust="spacingAndGlyphs" textLength="25" x="655.5" y="222.2104">init()</text><!--MD5=[25e2fb7615be8e8235c93ad75197cd6f]
class Cabin--><rect fill="#FEFECE" height="78.4141" id="Cabin" style="stroke: #A80036; stroke-width: 1.5;" width="212" x="263.5" y="14.5"/><ellipse cx="347.75" cy="30.5" fill="#ADD1B2" rx="11" ry="11" style="stroke: #A80036; stroke-width: 1.0;"/><path d="M350.0938,26.1719 L350.2656,26.25 C350.4844,25.9375 350.6875,25.8438 350.9844,25.8438 C351.2813,25.8438 351.5625,25.9844 351.7188,26.25 C351.8125,26.4063 351.8281,26.5313 351.8281,26.9688 L351.8281,28.3906 C351.8281,28.8125 351.7969,29 351.6875,29.1563 C351.5156,29.375 351.25,29.5156 350.9844,29.5156 C350.7656,29.5156 350.5313,29.4063 350.3906,29.2656 C350.25,29.1406 350.2188,29.0156 350.1563,28.6094 C350.0625,28.2031 349.8906,27.9844 349.4063,27.7031 C348.9375,27.4531 348.3281,27.2969 347.75,27.2969 C346.0156,27.2969 344.7656,28.6094 344.7656,30.3906 L344.7656,31.4844 C344.7656,33.1875 346.0625,34.2813 348.1094,34.2813 C348.875,34.2813 349.5625,34.1563 349.9844,33.8906 C350.1719,33.7969 350.1719,33.7969 350.625,33.3125 C350.8125,33.125 351.0156,33.0469 351.2344,33.0469 C351.7031,33.0469 352.0938,33.4375 352.0938,33.8906 C352.0938,34.2813 351.7656,34.7344 351.1875,35.1406 C350.4375,35.6875 349.2813,35.9844 348.0625,35.9844 C345.1719,35.9844 343.0625,34.0938 343.0625,31.5156 L343.0625,30.3906 C343.0625,27.6719 345.0625,25.5938 347.6875,25.5938 C348.5625,25.5938 349.1563,25.7344 350.0938,26.1719 Z "/><text fill="#000000" font-family="sans-serif" font-size="12" lengthAdjust="spacingAndGlyphs" textLength="35" x="368.25" y="34.6543">Cabin</text><line style="stroke: #A80036; stroke-width: 1.5;" x1="264.5" x2="474.5" y1="46.5" y2="46.5"/><ellipse cx="274.5" cy="57.5" fill="#84BE84" rx="3" ry="3" style="stroke: #038048; stroke-width: 1.0;"/><text fill="#000000" font-family="sans-serif" font-size="11" lengthAdjust="spacingAndGlyphs" textLength="186" x="283.5" y="60.7104">init(cabinNumber:cabinCapacity:)</text><ellipse cx="274.5" cy="70.3047" fill="#84BE84" rx="3" ry="3" style="stroke: #038048; stroke-width: 1.0;"/><text fill="#000000" font-family="sans-serif" font-size="11" lengthAdjust="spacingAndGlyphs" textLength="110" x="283.5" y="73.5151">addTourist(tourist:)</text><ellipse cx="274.5" cy="83.1094" fill="#84BE84" rx="3" ry="3" style="stroke: #038048; stroke-width: 1.0;"/><text fill="#000000" font-family="sans-serif" font-size="11" lengthAdjust="spacingAndGlyphs" textLength="132" x="283.5" y="86.3198">removeTourist(tourist:)</text><!--MD5=[714a323ea803c80dd4dfd42b424b55c8]
class Restaurant--><rect fill="#FEFECE" height="52.8047" id="Restaurant" style="stroke: #A80036; stroke-width: 1.5;" width="315" x="511" y="27"/><ellipse cx="629.25" cy="43" fill="#ADD1B2" rx="11" ry="11" style="stroke: #A80036; stroke-width: 1.0;"/><path d="M631.5938,38.6719 L631.7656,38.75 C631.9844,38.4375 632.1875,38.3438 632.4844,38.3438 C632.7813,38.3438 633.0625,38.4844 633.2188,38.75 C633.3125,38.9063 633.3281,39.0313 633.3281,39.4688 L633.3281,40.8906 C633.3281,41.3125 633.2969,41.5 633.1875,41.6563 C633.0156,41.875 632.75,42.0156 632.4844,42.0156 C632.2656,42.0156 632.0313,41.9063 631.8906,41.7656 C631.75,41.6406 631.7188,41.5156 631.6563,41.1094 C631.5625,40.7031 631.3906,40.4844 630.9063,40.2031 C630.4375,39.9531 629.8281,39.7969 629.25,39.7969 C627.5156,39.7969 626.2656,41.1094 626.2656,42.8906 L626.2656,43.9844 C626.2656,45.6875 627.5625,46.7813 629.6094,46.7813 C630.375,46.7813 631.0625,46.6563 631.4844,46.3906 C631.6719,46.2969 631.6719,46.2969 632.125,45.8125 C632.3125,45.625 632.5156,45.5469 632.7344,45.5469 C633.2031,45.5469 633.5938,45.9375 633.5938,46.3906 C633.5938,46.7813 633.2656,47.2344 632.6875,47.6406 C631.9375,48.1875 630.7813,48.4844 629.5625,48.4844 C626.6719,48.4844 624.5625,46.5938 624.5625,44.0156 L624.5625,42.8906 C624.5625,40.1719 626.5625,38.0938 629.1875,38.0938 C630.0625,38.0938 630.6563,38.2344 631.5938,38.6719 Z "/><text fill="#000000" font-family="sans-serif" font-size="12" lengthAdjust="spacingAndGlyphs" textLength="70" x="649.75" y="47.1543">Restaurant</text><line style="stroke: #A80036; stroke-width: 1.5;" x1="512" x2="825" y1="59" y2="59"/><ellipse cx="522" cy="70" fill="#84BE84" rx="3" ry="3" style="stroke: #038048; stroke-width: 1.0;"/><text fill="#000000" font-family="sans-serif" font-size="11" lengthAdjust="spacingAndGlyphs" textLength="289" x="531" y="73.2104">init(restaurantName:restaurantCapacity:isOver18:)</text><!--MD5=[fea15f7924bd848149aeb562f3a4d86b]
class Bar--><rect fill="#FEFECE" height="52.8047" id="Bar" style="stroke: #A80036; stroke-width: 1.5;" width="233" x="861" y="27"/><ellipse cx="962.75" cy="43" fill="#ADD1B2" rx="11" ry="11" style="stroke: #A80036; stroke-width: 1.0;"/><path d="M965.0938,38.6719 L965.2656,38.75 C965.4844,38.4375 965.6875,38.3438 965.9844,38.3438 C966.2813,38.3438 966.5625,38.4844 966.7188,38.75 C966.8125,38.9063 966.8281,39.0313 966.8281,39.4688 L966.8281,40.8906 C966.8281,41.3125 966.7969,41.5 966.6875,41.6563 C966.5156,41.875 966.25,42.0156 965.9844,42.0156 C965.7656,42.0156 965.5313,41.9063 965.3906,41.7656 C965.25,41.6406 965.2188,41.5156 965.1563,41.1094 C965.0625,40.7031 964.8906,40.4844 964.4063,40.2031 C963.9375,39.9531 963.3281,39.7969 962.75,39.7969 C961.0156,39.7969 959.7656,41.1094 959.7656,42.8906 L959.7656,43.9844 C959.7656,45.6875 961.0625,46.7813 963.1094,46.7813 C963.875,46.7813 964.5625,46.6563 964.9844,46.3906 C965.1719,46.2969 965.1719,46.2969 965.625,45.8125 C965.8125,45.625 966.0156,45.5469 966.2344,45.5469 C966.7031,45.5469 967.0938,45.9375 967.0938,46.3906 C967.0938,46.7813 966.7656,47.2344 966.1875,47.6406 C965.4375,48.1875 964.2813,48.4844 963.0625,48.4844 C960.1719,48.4844 958.0625,46.5938 958.0625,44.0156 L958.0625,42.8906 C958.0625,40.1719 960.0625,38.0938 962.6875,38.0938 C963.5625,38.0938 964.1563,38.2344 965.0938,38.6719 Z "/><text fill="#000000" font-family="sans-serif" font-size="12" lengthAdjust="spacingAndGlyphs" textLength="21" x="983.25" y="47.1543">Bar</text><line style="stroke: #A80036; stroke-width: 1.5;" x1="862" x2="1093" y1="59" y2="59"/><ellipse cx="872" cy="70" fill="#84BE84" rx="3" ry="3" style="stroke: #038048; stroke-width: 1.0;"/><text fill="#000000" font-family="sans-serif" font-size="11" lengthAdjust="spacingAndGlyphs" textLength="207" x="881" y="73.2104">init(barName:barCapacity:isOver18:)</text><!--MD5=[09ce52be0ee7de43c61b6e2d59bf108b]
class Person--><rect fill="#FEFECE" height="52.8047" id="Person" style="stroke: #A80036; stroke-width: 1.5;" width="112" x="1298.5" y="176"/><ellipse cx="1329.7" cy="192" fill="#ADD1B2" rx="11" ry="11" style="stroke: #A80036; stroke-width: 1.0;"/><path d="M1332.0438,187.6719 L1332.2156,187.75 C1332.4344,187.4375 1332.6375,187.3438 1332.9344,187.3438 C1333.2313,187.3438 1333.5125,187.4844 1333.6688,187.75 C1333.7625,187.9063 1333.7781,188.0313 1333.7781,188.4688 L1333.7781,189.8906 C1333.7781,190.3125 1333.7469,190.5 1333.6375,190.6563 C1333.4656,190.875 1333.2,191.0156 1332.9344,191.0156 C1332.7156,191.0156 1332.4813,190.9063 1332.3406,190.7656 C1332.2,190.6406 1332.1688,190.5156 1332.1063,190.1094 C1332.0125,189.7031 1331.8406,189.4844 1331.3563,189.2031 C1330.8875,188.9531 1330.2781,188.7969 1329.7,188.7969 C1327.9656,188.7969 1326.7156,190.1094 1326.7156,191.8906 L1326.7156,192.9844 C1326.7156,194.6875 1328.0125,195.7813 1330.0594,195.7813 C1330.825,195.7813 1331.5125,195.6563 1331.9344,195.3906 C1332.1219,195.2969 1332.1219,195.2969 1332.575,194.8125 C1332.7625,194.625 1332.9656,194.5469 1333.1844,194.5469 C1333.6531,194.5469 1334.0438,194.9375 1334.0438,195.3906 C1334.0438,195.7813 1333.7156,196.2344 1333.1375,196.6406 C1332.3875,197.1875 1331.2313,197.4844 1330.0125,197.4844 C1327.1219,197.4844 1325.0125,195.5938 1325.0125,193.0156 L1325.0125,191.8906 C1325.0125,189.1719 1327.0125,187.0938 1329.6375,187.0938 C1330.5125,187.0938 1331.1063,187.2344 1332.0438,187.6719 Z "/><text fill="#000000" font-family="sans-serif" font-size="12" lengthAdjust="spacingAndGlyphs" textLength="44" x="1347.3" y="196.1543">Person</text><line style="stroke: #A80036; stroke-width: 1.5;" x1="1299.5" x2="1409.5" y1="208" y2="208"/><ellipse cx="1309.5" cy="219" fill="#84BE84" rx="3" ry="3" style="stroke: #038048; stroke-width: 1.0;"/><text fill="#000000" font-family="sans-serif" font-size="11" lengthAdjust="spacingAndGlyphs" textLength="86" x="1318.5" y="222.2104">init(name:age:)</text><!--MD5=[f1bd6dbd8d4081205adc0601a16f1a8e]
class Tourist--><rect fill="#FEFECE" height="91.2188" id="Tourist" style="stroke: #A80036; stroke-width: 1.5;" width="219" x="1129" y="8"/><ellipse cx="1212.75" cy="24" fill="#ADD1B2" rx="11" ry="11" style="stroke: #A80036; stroke-width: 1.0;"/><path d="M1215.0938,19.6719 L1215.2656,19.75 C1215.4844,19.4375 1215.6875,19.3438 1215.9844,19.3438 C1216.2813,19.3438 1216.5625,19.4844 1216.7188,19.75 C1216.8125,19.9063 1216.8281,20.0313 1216.8281,20.4688 L1216.8281,21.8906 C1216.8281,22.3125 1216.7969,22.5 1216.6875,22.6563 C1216.5156,22.875 1216.25,23.0156 1215.9844,23.0156 C1215.7656,23.0156 1215.5313,22.9063 1215.3906,22.7656 C1215.25,22.6406 1215.2188,22.5156 1215.1563,22.1094 C1215.0625,21.7031 1214.8906,21.4844 1214.4063,21.2031 C1213.9375,20.9531 1213.3281,20.7969 1212.75,20.7969 C1211.0156,20.7969 1209.7656,22.1094 1209.7656,23.8906 L1209.7656,24.9844 C1209.7656,26.6875 1211.0625,27.7813 1213.1094,27.7813 C1213.875,27.7813 1214.5625,27.6563 1214.9844,27.3906 C1215.1719,27.2969 1215.1719,27.2969 1215.625,26.8125 C1215.8125,26.625 1216.0156,26.5469 1216.2344,26.5469 C1216.7031,26.5469 1217.0938,26.9375 1217.0938,27.3906 C1217.0938,27.7813 1216.7656,28.2344 1216.1875,28.6406 C1215.4375,29.1875 1214.2813,29.4844 1213.0625,29.4844 C1210.1719,29.4844 1208.0625,27.5938 1208.0625,25.0156 L1208.0625,23.8906 C1208.0625,21.1719 1210.0625,19.0938 1212.6875,19.0938 C1213.5625,19.0938 1214.1563,19.2344 1215.0938,19.6719 Z "/><text fill="#000000" font-family="sans-serif" font-size="12" lengthAdjust="spacingAndGlyphs" textLength="43" x="1233.25" y="28.1543">Tourist</text><line style="stroke: #A80036; stroke-width: 1.5;" x1="1130" x2="1347" y1="40" y2="40"/><ellipse cx="1140" cy="51" fill="#84BE84" rx="3" ry="3" style="stroke: #038048; stroke-width: 1.0;"/><text fill="#000000" font-family="sans-serif" font-size="11" lengthAdjust="spacingAndGlyphs" textLength="86" x="1149" y="54.2104">init(name:age:)</text><ellipse cx="1140" cy="63.8047" fill="#84BE84" rx="3" ry="3" style="stroke: #038048; stroke-width: 1.0;"/><text fill="#000000" font-family="sans-serif" font-size="11" lengthAdjust="spacingAndGlyphs" textLength="126" x="1149" y="67.0151">assignToCabin(cabin:)</text><ellipse cx="1140" cy="76.6094" fill="#84BE84" rx="3" ry="3" style="stroke: #038048; stroke-width: 1.0;"/><text fill="#000000" font-family="sans-serif" font-size="11" lengthAdjust="spacingAndGlyphs" textLength="193" x="1149" y="79.8198">changeCabin(oldCabin:newCabin:)</text><ellipse cx="1140" cy="89.4141" fill="#84BE84" rx="3" ry="3" style="stroke: #038048; stroke-width: 1.0;"/><text fill="#000000" font-family="sans-serif" font-size="11" lengthAdjust="spacingAndGlyphs" textLength="155" x="1149" y="92.6245">deassignFromCabin(cabin:)</text><!--MD5=[2822049edaea389ed5d917b81a9be81f]
class Crew--><rect fill="#FEFECE" height="78.4141" id="Crew" style="stroke: #A80036; stroke-width: 1.5;" width="174" x="1383.5" y="14.5"/><ellipse cx="1451.25" cy="30.5" fill="#ADD1B2" rx="11" ry="11" style="stroke: #A80036; stroke-width: 1.0;"/><path d="M1453.5938,26.1719 L1453.7656,26.25 C1453.9844,25.9375 1454.1875,25.8438 1454.4844,25.8438 C1454.7813,25.8438 1455.0625,25.9844 1455.2188,26.25 C1455.3125,26.4063 1455.3281,26.5313 1455.3281,26.9688 L1455.3281,28.3906 C1455.3281,28.8125 1455.2969,29 1455.1875,29.1563 C1455.0156,29.375 1454.75,29.5156 1454.4844,29.5156 C1454.2656,29.5156 1454.0313,29.4063 1453.8906,29.2656 C1453.75,29.1406 1453.7188,29.0156 1453.6563,28.6094 C1453.5625,28.2031 1453.3906,27.9844 1452.9063,27.7031 C1452.4375,27.4531 1451.8281,27.2969 1451.25,27.2969 C1449.5156,27.2969 1448.2656,28.6094 1448.2656,30.3906 L1448.2656,31.4844 C1448.2656,33.1875 1449.5625,34.2813 1451.6094,34.2813 C1452.375,34.2813 1453.0625,34.1563 1453.4844,33.8906 C1453.6719,33.7969 1453.6719,33.7969 1454.125,33.3125 C1454.3125,33.125 1454.5156,33.0469 1454.7344,33.0469 C1455.2031,33.0469 1455.5938,33.4375 1455.5938,33.8906 C1455.5938,34.2813 1455.2656,34.7344 1454.6875,35.1406 C1453.9375,35.6875 1452.7813,35.9844 1451.5625,35.9844 C1448.6719,35.9844 1446.5625,34.0938 1446.5625,31.5156 L1446.5625,30.3906 C1446.5625,27.6719 1448.5625,25.5938 1451.1875,25.5938 C1452.0625,25.5938 1452.6563,25.7344 1453.5938,26.1719 Z "/><text fill="#000000" font-family="sans-serif" font-size="12" lengthAdjust="spacingAndGlyphs" textLength="30" x="1471.75" y="34.6543">Crew</text><line style="stroke: #A80036; stroke-width: 1.5;" x1="1384.5" x2="1556.5" y1="46.5" y2="46.5"/><ellipse cx="1394.5" cy="57.5" fill="#84BE84" rx="3" ry="3" style="stroke: #038048; stroke-width: 1.0;"/><text fill="#000000" font-family="sans-serif" font-size="11" lengthAdjust="spacingAndGlyphs" textLength="143" x="1403.5" y="60.7104">init(name:age:isCaptain:)</text><ellipse cx="1394.5" cy="70.3047" fill="#84BE84" rx="3" ry="3" style="stroke: #038048; stroke-width: 1.0;"/><text fill="#000000" font-family="sans-serif" font-size="11" lengthAdjust="spacingAndGlyphs" textLength="148" x="1403.5" y="73.5151">startEngineOrder(engine:)</text><ellipse cx="1394.5" cy="83.1094" fill="#84BE84" rx="3" ry="3" style="stroke: #038048; stroke-width: 1.0;"/><text fill="#000000" font-family="sans-serif" font-size="11" lengthAdjust="spacingAndGlyphs" textLength="146" x="1403.5" y="86.3198">stopEngineOrder(engine:)</text><!--MD5=[5c9c9d468a3f36f6addedc6a89f6d70a]
link Cabin to Place--><path d="M446.889,92.547 C500.453,118.882 570.259,153.2007 617.084,176.2221 " fill="none" id="Cabin-&gt;Place" style="stroke: #A80036; stroke-width: 1.0;"/><polygon fill="none" points="620.47,170.0862,635.33,185.1921,614.293,182.6499,620.47,170.0862" style="stroke: #A80036; stroke-width: 1.0;"/><text fill="#000000" font-family="sans-serif" font-size="13" lengthAdjust="spacingAndGlyphs" textLength="47" x="556.5" y="142.0669">inherits</text><!--MD5=[a7114ccf06307834dafc4127cdf70a78]
link Restaurant to Place--><path d="M668.5,80.105 C668.5,100.846 668.5,130.5994 668.5,155.4584 " fill="none" id="Restaurant-&gt;Place" style="stroke: #A80036; stroke-width: 1.0;"/><polygon fill="none" points="675.5,155.6948,668.5,175.6948,661.5,155.6947,675.5,155.6948" style="stroke: #A80036; stroke-width: 1.0;"/><text fill="#000000" font-family="sans-serif" font-size="13" lengthAdjust="spacingAndGlyphs" textLength="47" x="669.5" y="142.0669">inherits</text><!--MD5=[cb5907ca5db729cce897444ca7fad3e2]
link Bar to Place--><path d="M923.676,80.105 C866.322,107.391 776.182,150.2729 719.808,177.0912 " fill="none" id="Bar-&gt;Place" style="stroke: #A80036; stroke-width: 1.0;"/><polygon fill="none" points="722.801,183.4192,701.733,185.6899,716.787,170.7768,722.801,183.4192" style="stroke: #A80036; stroke-width: 1.0;"/><text fill="#000000" font-family="sans-serif" font-size="13" lengthAdjust="spacingAndGlyphs" textLength="47" x="814.5" y="142.0669">inherits</text><!--MD5=[be635acc9ba9e0f4fe748d313ea6b8a4]
link Tourist to Person--><path d="M1273.62,99.004 C1288.91,118.382 1306.73,140.9632 1321.74,159.9905 " fill="none" id="Tourist-&gt;Person" style="stroke: #A80036; stroke-width: 1.0;"/><polygon fill="none" points="1327.44,155.9116,1334.34,175.9484,1316.45,164.5843,1327.44,155.9116" style="stroke: #A80036; stroke-width: 1.0;"/><text fill="#000000" font-family="sans-serif" font-size="13" lengthAdjust="spacingAndGlyphs" textLength="47" x="1310.5" y="142.0669">inherits</text><!--MD5=[ffe8d58d09044ddadc8b4e1ea47a007e]
link Crew to Person--><path d="M1440.33,92.739 C1424.01,113.413 1403.85,138.9658 1387.16,160.1073 " fill="none" id="Crew-&gt;Person" style="stroke: #A80036; stroke-width: 1.0;"/><polygon fill="none" points="1392.56,164.5751,1374.67,175.9392,1381.56,155.9024,1392.56,164.5751" style="stroke: #A80036; stroke-width: 1.0;"/><text fill="#000000" font-family="sans-serif" font-size="13" lengthAdjust="spacingAndGlyphs" textLength="47" x="1409.5" y="142.0669">inherits</text><!--MD5=[d225defa95d78f56f983a07dee86f59a]
@startuml
hide empty members
skinparam shadowing false
class "Ship" as Ship {
  +init()

}
class "Engine" as Engine {
  +init(enginePower:)
  +startEngine()
  +stopEngine()

}
class "Place" as Place {
  +init()

}
class "Cabin" as Cabin {
  +init(cabinNumber:cabinCapacity:)
  +addTourist(tourist:)
  +removeTourist(tourist:)

}
class "Restaurant" as Restaurant {
  +init(restaurantName:restaurantCapacity:isOver18:)

}
class "Bar" as Bar {
  +init(barName:barCapacity:isOver18:)

}
class "Person" as Person {
  +init(name:age:)

}
class "Tourist" as Tourist {
  +init(name:age:)
  +assignToCabin(cabin:)
  +changeCabin(oldCabin:newCabin:)
  +deassignFromCabin(cabin:)

}
class "Crew" as Crew {
  +init(name:age:isCaptain:)
  +startEngineOrder(engine:)
  +stopEngineOrder(engine:)

}

Cabin - -|> Place : inherits
Restaurant - -|> Place : inherits
Bar - -|> Place : inherits
Tourist - -|> Person : inherits
Crew - -|> Person : inherits
@enduml

PlantUML version 1.2020.02(Sun Mar 01 10:22:07 UTC 2020)
(GPL source distribution)
Java Runtime: Java(TM) SE Runtime Environment
JVM: Java HotSpot(TM) 64-Bit Server VM
Java Version: 1.7.0_25-b15
Operating System: Linux
Default Encoding: UTF-8
Language: en
Country: US
--></g></svg>