<?xml version="1.0" encoding="UTF-8" standalone="no"?><svg xmlns="http://www.w3.org/2000/svg" xmlns:xlink="http://www.w3.org/1999/xlink" contentScriptType="application/ecmascript" contentStyleType="text/css" height="310px" preserveAspectRatio="none" style="width:669px;height:310px;" version="1.1" viewBox="0 0 669 310" width="669px" zoomAndPan="magnify"><defs/><g><!--MD5=[0dc7f2ddb409b58bcf52b12238c25399]
class Ship--><rect fill="#FEFECE" height="52.8047" id="Ship" style="stroke: #A80036; stroke-width: 1.5;" width="87" x="92" y="14.5"/><ellipse cx="119.6" cy="30.5" fill="#ADD1B2" rx="11" ry="11" style="stroke: #A80036; stroke-width: 1.0;"/><path d="M121.9438,26.1719 L122.1156,26.25 C122.3344,25.9375 122.5375,25.8438 122.8344,25.8438 C123.1313,25.8438 123.4125,25.9844 123.5688,26.25 C123.6625,26.4063 123.6781,26.5313 123.6781,26.9688 L123.6781,28.3906 C123.6781,28.8125 123.6469,29 123.5375,29.1563 C123.3656,29.375 123.1,29.5156 122.8344,29.5156 C122.6156,29.5156 122.3813,29.4063 122.2406,29.2656 C122.1,29.1406 122.0688,29.0156 122.0063,28.6094 C121.9125,28.2031 121.7406,27.9844 121.2563,27.7031 C120.7875,27.4531 120.1781,27.2969 119.6,27.2969 C117.8656,27.2969 116.6156,28.6094 116.6156,30.3906 L116.6156,31.4844 C116.6156,33.1875 117.9125,34.2813 119.9594,34.2813 C120.725,34.2813 121.4125,34.1563 121.8344,33.8906 C122.0219,33.7969 122.0219,33.7969 122.475,33.3125 C122.6625,33.125 122.8656,33.0469 123.0844,33.0469 C123.5531,33.0469 123.9438,33.4375 123.9438,33.8906 C123.9438,34.2813 123.6156,34.7344 123.0375,35.1406 C122.2875,35.6875 121.1313,35.9844 119.9125,35.9844 C117.0219,35.9844 114.9125,34.0938 114.9125,31.5156 L114.9125,30.3906 C114.9125,27.6719 116.9125,25.5938 119.5375,25.5938 C120.4125,25.5938 121.0063,25.7344 121.9438,26.1719 Z "/><text fill="#000000" font-family="sans-serif" font-size="12" lengthAdjust="spacingAndGlyphs" textLength="27" x="136.4" y="34.6543">Ship</text><line style="stroke: #A80036; stroke-width: 1.5;" x1="93" x2="178" y1="46.5" y2="46.5"/><ellipse cx="103" cy="57.5" fill="#84BE84" rx="3" ry="3" style="stroke: #038048; stroke-width: 1.0;"/><text fill="#000000" font-family="sans-serif" font-size="11" lengthAdjust="spacingAndGlyphs" textLength="61" x="112" y="60.7104">init(name:)</text><!--MD5=[c86ce95fe6226f2d2796c0513d8e83fe]
class Engine--><rect fill="#FEFECE" height="52.8047" id="Engine" style="stroke: #A80036; stroke-width: 1.5;" width="93" x="214" y="14.5"/><ellipse cx="237.1" cy="30.5" fill="#ADD1B2" rx="11" ry="11" style="stroke: #A80036; stroke-width: 1.0;"/><path d="M239.4438,26.1719 L239.6156,26.25 C239.8344,25.9375 240.0375,25.8438 240.3344,25.8438 C240.6313,25.8438 240.9125,25.9844 241.0688,26.25 C241.1625,26.4063 241.1781,26.5313 241.1781,26.9688 L241.1781,28.3906 C241.1781,28.8125 241.1469,29 241.0375,29.1563 C240.8656,29.375 240.6,29.5156 240.3344,29.5156 C240.1156,29.5156 239.8813,29.4063 239.7406,29.2656 C239.6,29.1406 239.5688,29.0156 239.5063,28.6094 C239.4125,28.2031 239.2406,27.9844 238.7563,27.7031 C238.2875,27.4531 237.6781,27.2969 237.1,27.2969 C235.3656,27.2969 234.1156,28.6094 234.1156,30.3906 L234.1156,31.4844 C234.1156,33.1875 235.4125,34.2813 237.4594,34.2813 C238.225,34.2813 238.9125,34.1563 239.3344,33.8906 C239.5219,33.7969 239.5219,33.7969 239.975,33.3125 C240.1625,33.125 240.3656,33.0469 240.5844,33.0469 C241.0531,33.0469 241.4438,33.4375 241.4438,33.8906 C241.4438,34.2813 241.1156,34.7344 240.5375,35.1406 C239.7875,35.6875 238.6313,35.9844 237.4125,35.9844 C234.5219,35.9844 232.4125,34.0938 232.4125,31.5156 L232.4125,30.3906 C232.4125,27.6719 234.4125,25.5938 237.0375,25.5938 C237.9125,25.5938 238.5063,25.7344 239.4438,26.1719 Z "/><text fill="#000000" font-family="sans-serif" font-size="12" lengthAdjust="spacingAndGlyphs" textLength="43" x="252.9" y="34.6543">Engine</text><line style="stroke: #A80036; stroke-width: 1.5;" x1="215" x2="306" y1="46.5" y2="46.5"/><ellipse cx="225" cy="57.5" fill="#84BE84" rx="3" ry="3" style="stroke: #038048; stroke-width: 1.0;"/><text fill="#000000" font-family="sans-serif" font-size="11" lengthAdjust="spacingAndGlyphs" textLength="67" x="234" y="60.7104">init(engine:)</text><!--MD5=[f1bd6dbd8d4081205adc0601a16f1a8e]
class Tourist--><rect fill="#FEFECE" height="65.6094" id="Tourist" style="stroke: #A80036; stroke-width: 1.5;" width="173" x="342" y="8"/><ellipse cx="402.75" cy="24" fill="#ADD1B2" rx="11" ry="11" style="stroke: #A80036; stroke-width: 1.0;"/><path d="M405.0938,19.6719 L405.2656,19.75 C405.4844,19.4375 405.6875,19.3438 405.9844,19.3438 C406.2813,19.3438 406.5625,19.4844 406.7188,19.75 C406.8125,19.9063 406.8281,20.0313 406.8281,20.4688 L406.8281,21.8906 C406.8281,22.3125 406.7969,22.5 406.6875,22.6563 C406.5156,22.875 406.25,23.0156 405.9844,23.0156 C405.7656,23.0156 405.5313,22.9063 405.3906,22.7656 C405.25,22.6406 405.2188,22.5156 405.1563,22.1094 C405.0625,21.7031 404.8906,21.4844 404.4063,21.2031 C403.9375,20.9531 403.3281,20.7969 402.75,20.7969 C401.0156,20.7969 399.7656,22.1094 399.7656,23.8906 L399.7656,24.9844 C399.7656,26.6875 401.0625,27.7813 403.1094,27.7813 C403.875,27.7813 404.5625,27.6563 404.9844,27.3906 C405.1719,27.2969 405.1719,27.2969 405.625,26.8125 C405.8125,26.625 406.0156,26.5469 406.2344,26.5469 C406.7031,26.5469 407.0938,26.9375 407.0938,27.3906 C407.0938,27.7813 406.7656,28.2344 406.1875,28.6406 C405.4375,29.1875 404.2813,29.4844 403.0625,29.4844 C400.1719,29.4844 398.0625,27.5938 398.0625,25.0156 L398.0625,23.8906 C398.0625,21.1719 400.0625,19.0938 402.6875,19.0938 C403.5625,19.0938 404.1563,19.2344 405.0938,19.6719 Z "/><text fill="#000000" font-family="sans-serif" font-size="12" lengthAdjust="spacingAndGlyphs" textLength="43" x="423.25" y="28.1543">Tourist</text><line style="stroke: #A80036; stroke-width: 1.5;" x1="343" x2="514" y1="40" y2="40"/><ellipse cx="353" cy="51" fill="#84BE84" rx="3" ry="3" style="stroke: #038048; stroke-width: 1.0;"/><text fill="#000000" font-family="sans-serif" font-size="11" lengthAdjust="spacingAndGlyphs" textLength="120" x="362" y="54.2104">checkPlace(capacity:)</text><ellipse cx="353" cy="63.8047" fill="#84BE84" rx="3" ry="3" style="stroke: #038048; stroke-width: 1.0;"/><text fill="#000000" font-family="sans-serif" font-size="11" lengthAdjust="spacingAndGlyphs" textLength="147" x="362" y="67.0151">init(atraction:age:activity:)</text><!--MD5=[7ee1ff93b1c083cabbfd410ecf3505ae]
class ShipCrew--><rect fill="#FEFECE" height="52.8047" id="ShipCrew" style="stroke: #A80036; stroke-width: 1.5;" width="193" x="39" y="134"/><ellipse cx="102.75" cy="150" fill="#ADD1B2" rx="11" ry="11" style="stroke: #A80036; stroke-width: 1.0;"/><path d="M105.0938,145.6719 L105.2656,145.75 C105.4844,145.4375 105.6875,145.3438 105.9844,145.3438 C106.2813,145.3438 106.5625,145.4844 106.7188,145.75 C106.8125,145.9063 106.8281,146.0313 106.8281,146.4688 L106.8281,147.8906 C106.8281,148.3125 106.7969,148.5 106.6875,148.6563 C106.5156,148.875 106.25,149.0156 105.9844,149.0156 C105.7656,149.0156 105.5313,148.9063 105.3906,148.7656 C105.25,148.6406 105.2188,148.5156 105.1563,148.1094 C105.0625,147.7031 104.8906,147.4844 104.4063,147.2031 C103.9375,146.9531 103.3281,146.7969 102.75,146.7969 C101.0156,146.7969 99.7656,148.1094 99.7656,149.8906 L99.7656,150.9844 C99.7656,152.6875 101.0625,153.7813 103.1094,153.7813 C103.875,153.7813 104.5625,153.6563 104.9844,153.3906 C105.1719,153.2969 105.1719,153.2969 105.625,152.8125 C105.8125,152.625 106.0156,152.5469 106.2344,152.5469 C106.7031,152.5469 107.0938,152.9375 107.0938,153.3906 C107.0938,153.7813 106.7656,154.2344 106.1875,154.6406 C105.4375,155.1875 104.2813,155.4844 103.0625,155.4844 C100.1719,155.4844 98.0625,153.5938 98.0625,151.0156 L98.0625,149.8906 C98.0625,147.1719 100.0625,145.0938 102.6875,145.0938 C103.5625,145.0938 104.1563,145.2344 105.0938,145.6719 Z "/><text fill="#000000" font-family="sans-serif" font-size="12" lengthAdjust="spacingAndGlyphs" textLength="57" x="123.25" y="154.1543">ShipCrew</text><line style="stroke: #A80036; stroke-width: 1.5;" x1="40" x2="231" y1="166" y2="166"/><ellipse cx="50" cy="177" fill="#84BE84" rx="3" ry="3" style="stroke: #038048; stroke-width: 1.0;"/><text fill="#000000" font-family="sans-serif" font-size="11" lengthAdjust="spacingAndGlyphs" textLength="167" x="59" y="180.2104">init(amountOfShipCrew:type:)</text><!--MD5=[714a323ea803c80dd4dfd42b424b55c8]
class Restaurant--><rect fill="#FEFECE" height="52.8047" id="Restaurant" style="stroke: #A80036; stroke-width: 1.5;" width="163" x="267" y="134"/><ellipse cx="309.45" cy="150" fill="#ADD1B2" rx="11" ry="11" style="stroke: #A80036; stroke-width: 1.0;"/><path d="M311.7938,145.6719 L311.9656,145.75 C312.1844,145.4375 312.3875,145.3438 312.6844,145.3438 C312.9813,145.3438 313.2625,145.4844 313.4188,145.75 C313.5125,145.9063 313.5281,146.0313 313.5281,146.4688 L313.5281,147.8906 C313.5281,148.3125 313.4969,148.5 313.3875,148.6563 C313.2156,148.875 312.95,149.0156 312.6844,149.0156 C312.4656,149.0156 312.2313,148.9063 312.0906,148.7656 C311.95,148.6406 311.9188,148.5156 311.8563,148.1094 C311.7625,147.7031 311.5906,147.4844 311.1063,147.2031 C310.6375,146.9531 310.0281,146.7969 309.45,146.7969 C307.7156,146.7969 306.4656,148.1094 306.4656,149.8906 L306.4656,150.9844 C306.4656,152.6875 307.7625,153.7813 309.8094,153.7813 C310.575,153.7813 311.2625,153.6563 311.6844,153.3906 C311.8719,153.2969 311.8719,153.2969 312.325,152.8125 C312.5125,152.625 312.7156,152.5469 312.9344,152.5469 C313.4031,152.5469 313.7938,152.9375 313.7938,153.3906 C313.7938,153.7813 313.4656,154.2344 312.8875,154.6406 C312.1375,155.1875 310.9813,155.4844 309.7625,155.4844 C306.8719,155.4844 304.7625,153.5938 304.7625,151.0156 L304.7625,149.8906 C304.7625,147.1719 306.7625,145.0938 309.3875,145.0938 C310.2625,145.0938 310.8563,145.2344 311.7938,145.6719 Z "/><text fill="#000000" font-family="sans-serif" font-size="12" lengthAdjust="spacingAndGlyphs" textLength="70" x="329.55" y="154.1543">Restaurant</text><line style="stroke: #A80036; stroke-width: 1.5;" x1="268" x2="429" y1="166" y2="166"/><ellipse cx="278" cy="177" fill="#84BE84" rx="3" ry="3" style="stroke: #038048; stroke-width: 1.0;"/><text fill="#000000" font-family="sans-serif" font-size="11" lengthAdjust="spacingAndGlyphs" textLength="137" x="287" y="180.2104">init(capacityRestaurant:)</text><!--MD5=[25e2fb7615be8e8235c93ad75197cd6f]
class Cabin--><rect fill="#FEFECE" height="52.8047" id="Cabin" style="stroke: #A80036; stroke-width: 1.5;" width="193" x="465" y="134"/><ellipse cx="539.75" cy="150" fill="#ADD1B2" rx="11" ry="11" style="stroke: #A80036; stroke-width: 1.0;"/><path d="M542.0938,145.6719 L542.2656,145.75 C542.4844,145.4375 542.6875,145.3438 542.9844,145.3438 C543.2813,145.3438 543.5625,145.4844 543.7188,145.75 C543.8125,145.9063 543.8281,146.0313 543.8281,146.4688 L543.8281,147.8906 C543.8281,148.3125 543.7969,148.5 543.6875,148.6563 C543.5156,148.875 543.25,149.0156 542.9844,149.0156 C542.7656,149.0156 542.5313,148.9063 542.3906,148.7656 C542.25,148.6406 542.2188,148.5156 542.1563,148.1094 C542.0625,147.7031 541.8906,147.4844 541.4063,147.2031 C540.9375,146.9531 540.3281,146.7969 539.75,146.7969 C538.0156,146.7969 536.7656,148.1094 536.7656,149.8906 L536.7656,150.9844 C536.7656,152.6875 538.0625,153.7813 540.1094,153.7813 C540.875,153.7813 541.5625,153.6563 541.9844,153.3906 C542.1719,153.2969 542.1719,153.2969 542.625,152.8125 C542.8125,152.625 543.0156,152.5469 543.2344,152.5469 C543.7031,152.5469 544.0938,152.9375 544.0938,153.3906 C544.0938,153.7813 543.7656,154.2344 543.1875,154.6406 C542.4375,155.1875 541.2813,155.4844 540.0625,155.4844 C537.1719,155.4844 535.0625,153.5938 535.0625,151.0156 L535.0625,149.8906 C535.0625,147.1719 537.0625,145.0938 539.6875,145.0938 C540.5625,145.0938 541.1563,145.2344 542.0938,145.6719 Z "/><text fill="#000000" font-family="sans-serif" font-size="12" lengthAdjust="spacingAndGlyphs" textLength="35" x="560.25" y="154.1543">Cabin</text><line style="stroke: #A80036; stroke-width: 1.5;" x1="466" x2="657" y1="166" y2="166"/><ellipse cx="476" cy="177" fill="#84BE84" rx="3" ry="3" style="stroke: #038048; stroke-width: 1.0;"/><text fill="#000000" font-family="sans-serif" font-size="11" lengthAdjust="spacingAndGlyphs" textLength="167" x="485" y="180.2104">init(withFriends:typeOfCabin:)</text><!--MD5=[fea15f7924bd848149aeb562f3a4d86b]
class Bar--><rect fill="#FEFECE" height="52.8047" id="Bar" style="stroke: #A80036; stroke-width: 1.5;" width="259" x="6" y="247"/><ellipse cx="120.75" cy="263" fill="#ADD1B2" rx="11" ry="11" style="stroke: #A80036; stroke-width: 1.0;"/><path d="M123.0938,258.6719 L123.2656,258.75 C123.4844,258.4375 123.6875,258.3438 123.9844,258.3438 C124.2813,258.3438 124.5625,258.4844 124.7188,258.75 C124.8125,258.9063 124.8281,259.0313 124.8281,259.4688 L124.8281,260.8906 C124.8281,261.3125 124.7969,261.5 124.6875,261.6563 C124.5156,261.875 124.25,262.0156 123.9844,262.0156 C123.7656,262.0156 123.5313,261.9063 123.3906,261.7656 C123.25,261.6406 123.2188,261.5156 123.1563,261.1094 C123.0625,260.7031 122.8906,260.4844 122.4063,260.2031 C121.9375,259.9531 121.3281,259.7969 120.75,259.7969 C119.0156,259.7969 117.7656,261.1094 117.7656,262.8906 L117.7656,263.9844 C117.7656,265.6875 119.0625,266.7813 121.1094,266.7813 C121.875,266.7813 122.5625,266.6563 122.9844,266.3906 C123.1719,266.2969 123.1719,266.2969 123.625,265.8125 C123.8125,265.625 124.0156,265.5469 124.2344,265.5469 C124.7031,265.5469 125.0938,265.9375 125.0938,266.3906 C125.0938,266.7813 124.7656,267.2344 124.1875,267.6406 C123.4375,268.1875 122.2813,268.4844 121.0625,268.4844 C118.1719,268.4844 116.0625,266.5938 116.0625,264.0156 L116.0625,262.8906 C116.0625,260.1719 118.0625,258.0938 120.6875,258.0938 C121.5625,258.0938 122.1563,258.2344 123.0938,258.6719 Z "/><text fill="#000000" font-family="sans-serif" font-size="12" lengthAdjust="spacingAndGlyphs" textLength="21" x="141.25" y="267.1543">Bar</text><line style="stroke: #A80036; stroke-width: 1.5;" x1="7" x2="264" y1="279" y2="279"/><ellipse cx="17" cy="290" fill="#84BE84" rx="3" ry="3" style="stroke: #038048; stroke-width: 1.0;"/><text fill="#000000" font-family="sans-serif" font-size="11" lengthAdjust="spacingAndGlyphs" textLength="233" x="26" y="293.2104">init(secondBarCapacity:firstBarCapacity:)</text><!--MD5=[759d04dff9d09848d48912b569b07106]
link Ship to Engine--><!--MD5=[a0c5f3c66a3698bca12f2b4455cce298]
link Engine to Tourist--><!--MD5=[63e4261eef89cabef44e8e26106a8ffd]
link Ship to ShipCrew--><!--MD5=[edcf51548280004437896de3b619dcab]
link ShipCrew to Restaurant--><!--MD5=[8acc9681991bc74aa42ad54b627ffd37]
link Restaurant to Cabin--><!--MD5=[0a2d803c660ff0c1fd878c4b5db7b93f]
link ShipCrew to Bar--><!--MD5=[c3838d2b970be4ccd1254c24d3b5789d]
@startuml
hide empty members
skinparam shadowing false
class "Ship" as Ship {
  +init(name:)

}
class "Engine" as Engine {
  +init(engine:)

}
class "Tourist" as Tourist {
  +checkPlace(capacity:)
  +init(atraction:age:activity:)

}
class "ShipCrew" as ShipCrew {
  +init(amountOfShipCrew:type:)

}
class "Restaurant" as Restaurant {
  +init(capacityRestaurant:)

}
class "Cabin" as Cabin {
  +init(withFriends:typeOfCabin:)

}
class "Bar" as Bar {
  +init(secondBarCapacity:firstBarCapacity:)

}
@enduml

PlantUML version 1.2020.02(Sun Mar 01 10:22:07 UTC 2020)
(GPL source distribution)
Java Runtime: Java(TM) SE Runtime Environment
JVM: Java HotSpot(TM) 64-Bit Server VM
Java Version: 1.7.0_25-b15
Operating System: Linux
Default Encoding: UTF-8
Language: en
Country: US
--></g></svg>