<?xml version="1.0" encoding="UTF-8" standalone="no"?><svg xmlns="http://www.w3.org/2000/svg" xmlns:xlink="http://www.w3.org/1999/xlink" contentScriptType="application/ecmascript" contentStyleType="text/css" height="252px" preserveAspectRatio="none" style="width:865px;height:252px;" version="1.1" viewBox="0 0 865 252" width="865px" zoomAndPan="magnify"><defs/><g><!--MD5=[f1bd6dbd8d4081205adc0601a16f1a8e]
class Tourist--><rect fill="#FEFECE" height="52.8047" id="Tourist" style="stroke: #A80036; stroke-width: 1.5;" width="76" x="460.5" y="20.5"/><ellipse cx="475.95" cy="36.5" fill="#ADD1B2" rx="11" ry="11" style="stroke: #A80036; stroke-width: 1.0;"/><path d="M478.2938,32.1719 L478.4656,32.25 C478.6844,31.9375 478.8875,31.8438 479.1844,31.8438 C479.4813,31.8438 479.7625,31.9844 479.9188,32.25 C480.0125,32.4063 480.0281,32.5313 480.0281,32.9688 L480.0281,34.3906 C480.0281,34.8125 479.9969,35 479.8875,35.1563 C479.7156,35.375 479.45,35.5156 479.1844,35.5156 C478.9656,35.5156 478.7313,35.4063 478.5906,35.2656 C478.45,35.1406 478.4188,35.0156 478.3563,34.6094 C478.2625,34.2031 478.0906,33.9844 477.6063,33.7031 C477.1375,33.4531 476.5281,33.2969 475.95,33.2969 C474.2156,33.2969 472.9656,34.6094 472.9656,36.3906 L472.9656,37.4844 C472.9656,39.1875 474.2625,40.2813 476.3094,40.2813 C477.075,40.2813 477.7625,40.1563 478.1844,39.8906 C478.3719,39.7969 478.3719,39.7969 478.825,39.3125 C479.0125,39.125 479.2156,39.0469 479.4344,39.0469 C479.9031,39.0469 480.2938,39.4375 480.2938,39.8906 C480.2938,40.2813 479.9656,40.7344 479.3875,41.1406 C478.6375,41.6875 477.4813,41.9844 476.2625,41.9844 C473.3719,41.9844 471.2625,40.0938 471.2625,37.5156 L471.2625,36.3906 C471.2625,33.6719 473.2625,31.5938 475.8875,31.5938 C476.7625,31.5938 477.3563,31.7344 478.2938,32.1719 Z "/><text fill="#000000" font-family="sans-serif" font-size="12" lengthAdjust="spacingAndGlyphs" textLength="43" x="490.05" y="40.6543">Tourist</text><line style="stroke: #A80036; stroke-width: 1.5;" x1="461.5" x2="535.5" y1="52.5" y2="52.5"/><ellipse cx="471.5" cy="63.5" fill="#84BE84" rx="3" ry="3" style="stroke: #038048; stroke-width: 1.0;"/><text fill="#000000" font-family="sans-serif" font-size="11" lengthAdjust="spacingAndGlyphs" textLength="50" x="480.5" y="66.7104">init(age:)</text><!--MD5=[c86ce95fe6226f2d2796c0513d8e83fe]
class Engine--><rect fill="#FEFECE" height="78.4141" id="Engine" style="stroke: #A80036; stroke-width: 1.5;" width="90" x="56.5" y="8"/><ellipse cx="78.25" cy="24" fill="#ADD1B2" rx="11" ry="11" style="stroke: #A80036; stroke-width: 1.0;"/><path d="M80.5938,19.6719 L80.7656,19.75 C80.9844,19.4375 81.1875,19.3438 81.4844,19.3438 C81.7813,19.3438 82.0625,19.4844 82.2188,19.75 C82.3125,19.9063 82.3281,20.0313 82.3281,20.4688 L82.3281,21.8906 C82.3281,22.3125 82.2969,22.5 82.1875,22.6563 C82.0156,22.875 81.75,23.0156 81.4844,23.0156 C81.2656,23.0156 81.0313,22.9063 80.8906,22.7656 C80.75,22.6406 80.7188,22.5156 80.6563,22.1094 C80.5625,21.7031 80.3906,21.4844 79.9063,21.2031 C79.4375,20.9531 78.8281,20.7969 78.25,20.7969 C76.5156,20.7969 75.2656,22.1094 75.2656,23.8906 L75.2656,24.9844 C75.2656,26.6875 76.5625,27.7813 78.6094,27.7813 C79.375,27.7813 80.0625,27.6563 80.4844,27.3906 C80.6719,27.2969 80.6719,27.2969 81.125,26.8125 C81.3125,26.625 81.5156,26.5469 81.7344,26.5469 C82.2031,26.5469 82.5938,26.9375 82.5938,27.3906 C82.5938,27.7813 82.2656,28.2344 81.6875,28.6406 C80.9375,29.1875 79.7813,29.4844 78.5625,29.4844 C75.6719,29.4844 73.5625,27.5938 73.5625,25.0156 L73.5625,23.8906 C73.5625,21.1719 75.5625,19.0938 78.1875,19.0938 C79.0625,19.0938 79.6563,19.2344 80.5938,19.6719 Z "/><text fill="#000000" font-family="sans-serif" font-size="12" lengthAdjust="spacingAndGlyphs" textLength="43" x="93.75" y="28.1543">Engine</text><line style="stroke: #A80036; stroke-width: 1.5;" x1="57.5" x2="145.5" y1="40" y2="40"/><ellipse cx="67.5" cy="51" fill="#84BE84" rx="3" ry="3" style="stroke: #038048; stroke-width: 1.0;"/><text fill="#000000" font-family="sans-serif" font-size="11" lengthAdjust="spacingAndGlyphs" textLength="64" x="76.5" y="54.2104">init(power:)</text><ellipse cx="67.5" cy="63.8047" fill="#84BE84" rx="3" ry="3" style="stroke: #038048; stroke-width: 1.0;"/><text fill="#000000" font-family="sans-serif" font-size="11" lengthAdjust="spacingAndGlyphs" textLength="35" x="76.5" y="67.0151">start()</text><ellipse cx="67.5" cy="76.6094" fill="#84BE84" rx="3" ry="3" style="stroke: #038048; stroke-width: 1.0;"/><text fill="#000000" font-family="sans-serif" font-size="11" lengthAdjust="spacingAndGlyphs" textLength="33" x="76.5" y="79.8198">stop()</text><!--MD5=[4e3adbb78ffe71b9a763865180e11bdc]
class CaptainOrder--><rect fill="#FEFECE" height="37.9375" id="CaptainOrder" style="stroke: #A80036; stroke-width: 1.5;" width="115" x="182" y="28"/><ellipse cx="197" cy="46.9688" fill="#B0C4DE" rx="11" ry="11" style="stroke: #A80036; stroke-width: 1.0;"/><path d="M195.2969,47.8438 L195.2969,50.2656 L199.6563,50.2656 L199.6563,49.3906 C199.6563,48.9063 199.6875,48.7656 199.7969,48.6094 C199.9688,48.3594 200.2344,48.25 200.5,48.25 C200.7813,48.25 201.0625,48.4063 201.2344,48.6563 C201.3125,48.8125 201.3438,48.9531 201.3438,49.3906 L201.3438,51.9688 L193.3438,51.9688 C192.9531,51.9688 192.7188,51.9219 192.5781,51.7969 C192.3594,51.6406 192.2188,51.3906 192.2188,51.125 C192.2188,50.8281 192.375,50.5625 192.625,50.3906 C192.7813,50.2813 192.9375,50.2656 193.3438,50.2656 L193.5938,50.2656 L193.5938,43.75 L193.3438,43.75 C192.9219,43.75 192.7344,43.7188 192.5781,43.6094 C192.3594,43.4375 192.2188,43.1875 192.2188,42.9063 C192.2188,42.625 192.375,42.3281 192.625,42.1719 C192.7813,42.0781 192.9063,42.0625 193.3438,42.0625 L200.9688,42.0625 L200.9688,44.6094 C200.9688,45.0781 200.9375,45.2188 200.8281,45.3906 C200.6563,45.6094 200.3906,45.75 200.125,45.75 C199.8438,45.75 199.5625,45.5938 199.3906,45.3438 C199.3125,45.1875 199.2813,45.0156 199.2813,44.6094 L199.2813,43.75 L195.2969,43.75 L195.2969,46.1563 L196.75,46.1563 L196.75,46.0313 C196.75,45.5781 196.7813,45.4219 196.8906,45.25 C197.0625,45.0313 197.3281,44.8906 197.5781,44.8906 C198.0313,44.8906 198.3438,45.2031 198.4063,45.6719 C198.4219,45.8281 198.4219,45.875 198.4219,46.0313 L198.4219,47.9531 C198.4219,48.4063 198.3906,48.5625 198.2656,48.7188 C198.1094,48.9375 197.8438,49.0781 197.5938,49.0781 C197.2969,49.0781 197.0156,48.9219 196.8594,48.6719 C196.7813,48.5156 196.75,48.3594 196.75,47.9531 L196.75,47.8438 Z "/><text fill="#000000" font-family="sans-serif" font-size="12" font-style="italic" lengthAdjust="spacingAndGlyphs" textLength="49" x="228" y="44.1387">«enum»</text><text fill="#000000" font-family="sans-serif" font-size="12" lengthAdjust="spacingAndGlyphs" textLength="83" x="211" y="58.1074">CaptainOrder</text><!--MD5=[0dc7f2ddb409b58bcf52b12238c25399]
class Ship--><rect fill="#FEFECE" height="78.4141" id="Ship" style="stroke: #A80036; stroke-width: 1.5;" width="191" x="6" y="163"/><ellipse cx="83.75" cy="179" fill="#ADD1B2" rx="11" ry="11" style="stroke: #A80036; stroke-width: 1.0;"/><path d="M86.0938,174.6719 L86.2656,174.75 C86.4844,174.4375 86.6875,174.3438 86.9844,174.3438 C87.2813,174.3438 87.5625,174.4844 87.7188,174.75 C87.8125,174.9063 87.8281,175.0313 87.8281,175.4688 L87.8281,176.8906 C87.8281,177.3125 87.7969,177.5 87.6875,177.6563 C87.5156,177.875 87.25,178.0156 86.9844,178.0156 C86.7656,178.0156 86.5313,177.9063 86.3906,177.7656 C86.25,177.6406 86.2188,177.5156 86.1563,177.1094 C86.0625,176.7031 85.8906,176.4844 85.4063,176.2031 C84.9375,175.9531 84.3281,175.7969 83.75,175.7969 C82.0156,175.7969 80.7656,177.1094 80.7656,178.8906 L80.7656,179.9844 C80.7656,181.6875 82.0625,182.7813 84.1094,182.7813 C84.875,182.7813 85.5625,182.6563 85.9844,182.3906 C86.1719,182.2969 86.1719,182.2969 86.625,181.8125 C86.8125,181.625 87.0156,181.5469 87.2344,181.5469 C87.7031,181.5469 88.0938,181.9375 88.0938,182.3906 C88.0938,182.7813 87.7656,183.2344 87.1875,183.6406 C86.4375,184.1875 85.2813,184.4844 84.0625,184.4844 C81.1719,184.4844 79.0625,182.5938 79.0625,180.0156 L79.0625,178.8906 C79.0625,176.1719 81.0625,174.0938 83.6875,174.0938 C84.5625,174.0938 85.1563,174.2344 86.0938,174.6719 Z "/><text fill="#000000" font-family="sans-serif" font-size="12" lengthAdjust="spacingAndGlyphs" textLength="27" x="104.25" y="183.1543">Ship</text><line style="stroke: #A80036; stroke-width: 1.5;" x1="7" x2="196" y1="195" y2="195"/><ellipse cx="17" cy="206" fill="#84BE84" rx="3" ry="3" style="stroke: #038048; stroke-width: 1.0;"/><text fill="#000000" font-family="sans-serif" font-size="11" lengthAdjust="spacingAndGlyphs" textLength="67" x="26" y="209.2104">init(people:)</text><ellipse cx="17" cy="218.8047" fill="#84BE84" rx="3" ry="3" style="stroke: #038048; stroke-width: 1.0;"/><text fill="#000000" font-family="sans-serif" font-size="11" lengthAdjust="spacingAndGlyphs" textLength="85" x="26" y="222.0151">assignCabins()</text><ellipse cx="17" cy="231.6094" fill="#84BE84" rx="3" ry="3" style="stroke: #038048; stroke-width: 1.0;"/><text fill="#000000" font-family="sans-serif" font-size="11" lengthAdjust="spacingAndGlyphs" textLength="165" x="26" y="234.8198">performCaptainOrder(order:)</text><!--MD5=[25e2fb7615be8e8235c93ad75197cd6f]
class Cabin--><rect fill="#FEFECE" height="52.8047" id="Cabin" style="stroke: #A80036; stroke-width: 1.5;" width="143" x="232" y="175.5"/><ellipse cx="281.75" cy="191.5" fill="#ADD1B2" rx="11" ry="11" style="stroke: #A80036; stroke-width: 1.0;"/><path d="M284.0938,187.1719 L284.2656,187.25 C284.4844,186.9375 284.6875,186.8438 284.9844,186.8438 C285.2813,186.8438 285.5625,186.9844 285.7188,187.25 C285.8125,187.4063 285.8281,187.5313 285.8281,187.9688 L285.8281,189.3906 C285.8281,189.8125 285.7969,190 285.6875,190.1563 C285.5156,190.375 285.25,190.5156 284.9844,190.5156 C284.7656,190.5156 284.5313,190.4063 284.3906,190.2656 C284.25,190.1406 284.2188,190.0156 284.1563,189.6094 C284.0625,189.2031 283.8906,188.9844 283.4063,188.7031 C282.9375,188.4531 282.3281,188.2969 281.75,188.2969 C280.0156,188.2969 278.7656,189.6094 278.7656,191.3906 L278.7656,192.4844 C278.7656,194.1875 280.0625,195.2813 282.1094,195.2813 C282.875,195.2813 283.5625,195.1563 283.9844,194.8906 C284.1719,194.7969 284.1719,194.7969 284.625,194.3125 C284.8125,194.125 285.0156,194.0469 285.2344,194.0469 C285.7031,194.0469 286.0938,194.4375 286.0938,194.8906 C286.0938,195.2813 285.7656,195.7344 285.1875,196.1406 C284.4375,196.6875 283.2813,196.9844 282.0625,196.9844 C279.1719,196.9844 277.0625,195.0938 277.0625,192.5156 L277.0625,191.3906 C277.0625,188.6719 279.0625,186.5938 281.6875,186.5938 C282.5625,186.5938 283.1563,186.7344 284.0938,187.1719 Z "/><text fill="#000000" font-family="sans-serif" font-size="12" lengthAdjust="spacingAndGlyphs" textLength="35" x="302.25" y="195.6543">Cabin</text><line style="stroke: #A80036; stroke-width: 1.5;" x1="233" x2="374" y1="207.5" y2="207.5"/><ellipse cx="243" cy="218.5" fill="#84BE84" rx="3" ry="3" style="stroke: #038048; stroke-width: 1.0;"/><text fill="#000000" font-family="sans-serif" font-size="11" lengthAdjust="spacingAndGlyphs" textLength="117" x="252" y="221.7104">init(capacity:people:)</text><!--MD5=[ea42f72b5b0548643c34a52d360d0a6d]
class Attraction--><rect fill="#FEFECE" height="65.6094" id="Attraction" style="stroke: #A80036; stroke-width: 1.5;" width="101" x="750" y="169"/><ellipse cx="768.15" cy="185" fill="#ADD1B2" rx="11" ry="11" style="stroke: #A80036; stroke-width: 1.0;"/><path d="M770.4938,180.6719 L770.6656,180.75 C770.8844,180.4375 771.0875,180.3438 771.3844,180.3438 C771.6813,180.3438 771.9625,180.4844 772.1188,180.75 C772.2125,180.9063 772.2281,181.0313 772.2281,181.4688 L772.2281,182.8906 C772.2281,183.3125 772.1969,183.5 772.0875,183.6563 C771.9156,183.875 771.65,184.0156 771.3844,184.0156 C771.1656,184.0156 770.9313,183.9063 770.7906,183.7656 C770.65,183.6406 770.6188,183.5156 770.5563,183.1094 C770.4625,182.7031 770.2906,182.4844 769.8063,182.2031 C769.3375,181.9531 768.7281,181.7969 768.15,181.7969 C766.4156,181.7969 765.1656,183.1094 765.1656,184.8906 L765.1656,185.9844 C765.1656,187.6875 766.4625,188.7813 768.5094,188.7813 C769.275,188.7813 769.9625,188.6563 770.3844,188.3906 C770.5719,188.2969 770.5719,188.2969 771.025,187.8125 C771.2125,187.625 771.4156,187.5469 771.6344,187.5469 C772.1031,187.5469 772.4938,187.9375 772.4938,188.3906 C772.4938,188.7813 772.1656,189.2344 771.5875,189.6406 C770.8375,190.1875 769.6813,190.4844 768.4625,190.4844 C765.5719,190.4844 763.4625,188.5938 763.4625,186.0156 L763.4625,184.8906 C763.4625,182.1719 765.4625,180.0938 768.0875,180.0938 C768.9625,180.0938 769.5563,180.2344 770.4938,180.6719 Z "/><text fill="#000000" font-family="sans-serif" font-size="12" lengthAdjust="spacingAndGlyphs" textLength="62" x="782.85" y="189.1543">Attraction</text><line style="stroke: #A80036; stroke-width: 1.5;" x1="751" x2="850" y1="201" y2="201"/><ellipse cx="761" cy="212" fill="#84BE84" rx="3" ry="3" style="stroke: #038048; stroke-width: 1.0;"/><text fill="#000000" font-family="sans-serif" font-size="11" lengthAdjust="spacingAndGlyphs" textLength="75" x="770" y="215.2104">init(capacity:)</text><ellipse cx="761" cy="224.8047" fill="#84BE84" rx="3" ry="3" style="stroke: #038048; stroke-width: 1.0;"/><text fill="#000000" font-family="sans-serif" font-size="11" lengthAdjust="spacingAndGlyphs" textLength="70" x="770" y="228.0151">add(tourist:)</text><!--MD5=[714a323ea803c80dd4dfd42b424b55c8]
class Restaurant--><rect fill="#FEFECE" height="52.8047" id="Restaurant" style="stroke: #A80036; stroke-width: 1.5;" width="102" x="621.5" y="20.5"/><ellipse cx="636.5" cy="36.5" fill="#ADD1B2" rx="11" ry="11" style="stroke: #A80036; stroke-width: 1.0;"/><path d="M638.8438,32.1719 L639.0156,32.25 C639.2344,31.9375 639.4375,31.8438 639.7344,31.8438 C640.0313,31.8438 640.3125,31.9844 640.4688,32.25 C640.5625,32.4063 640.5781,32.5313 640.5781,32.9688 L640.5781,34.3906 C640.5781,34.8125 640.5469,35 640.4375,35.1563 C640.2656,35.375 640,35.5156 639.7344,35.5156 C639.5156,35.5156 639.2813,35.4063 639.1406,35.2656 C639,35.1406 638.9688,35.0156 638.9063,34.6094 C638.8125,34.2031 638.6406,33.9844 638.1563,33.7031 C637.6875,33.4531 637.0781,33.2969 636.5,33.2969 C634.7656,33.2969 633.5156,34.6094 633.5156,36.3906 L633.5156,37.4844 C633.5156,39.1875 634.8125,40.2813 636.8594,40.2813 C637.625,40.2813 638.3125,40.1563 638.7344,39.8906 C638.9219,39.7969 638.9219,39.7969 639.375,39.3125 C639.5625,39.125 639.7656,39.0469 639.9844,39.0469 C640.4531,39.0469 640.8438,39.4375 640.8438,39.8906 C640.8438,40.2813 640.5156,40.7344 639.9375,41.1406 C639.1875,41.6875 638.0313,41.9844 636.8125,41.9844 C633.9219,41.9844 631.8125,40.0938 631.8125,37.5156 L631.8125,36.3906 C631.8125,33.6719 633.8125,31.5938 636.4375,31.5938 C637.3125,31.5938 637.9063,31.7344 638.8438,32.1719 Z "/><text fill="#000000" font-family="sans-serif" font-size="12" lengthAdjust="spacingAndGlyphs" textLength="70" x="650.5" y="40.6543">Restaurant</text><line style="stroke: #A80036; stroke-width: 1.5;" x1="622.5" x2="722.5" y1="52.5" y2="52.5"/><ellipse cx="632.5" cy="63.5" fill="#84BE84" rx="3" ry="3" style="stroke: #038048; stroke-width: 1.0;"/><text fill="#000000" font-family="sans-serif" font-size="11" lengthAdjust="spacingAndGlyphs" textLength="25" x="641.5" y="66.7104">init()</text><!--MD5=[fea15f7924bd848149aeb562f3a4d86b]
class Bar--><rect fill="#FEFECE" height="65.6094" id="Bar" style="stroke: #A80036; stroke-width: 1.5;" width="96" x="758.5" y="14"/><ellipse cx="792.85" cy="30" fill="#ADD1B2" rx="11" ry="11" style="stroke: #A80036; stroke-width: 1.0;"/><path d="M795.1938,25.6719 L795.3656,25.75 C795.5844,25.4375 795.7875,25.3438 796.0844,25.3438 C796.3813,25.3438 796.6625,25.4844 796.8188,25.75 C796.9125,25.9063 796.9281,26.0313 796.9281,26.4688 L796.9281,27.8906 C796.9281,28.3125 796.8969,28.5 796.7875,28.6563 C796.6156,28.875 796.35,29.0156 796.0844,29.0156 C795.8656,29.0156 795.6313,28.9063 795.4906,28.7656 C795.35,28.6406 795.3188,28.5156 795.2563,28.1094 C795.1625,27.7031 794.9906,27.4844 794.5063,27.2031 C794.0375,26.9531 793.4281,26.7969 792.85,26.7969 C791.1156,26.7969 789.8656,28.1094 789.8656,29.8906 L789.8656,30.9844 C789.8656,32.6875 791.1625,33.7813 793.2094,33.7813 C793.975,33.7813 794.6625,33.6563 795.0844,33.3906 C795.2719,33.2969 795.2719,33.2969 795.725,32.8125 C795.9125,32.625 796.1156,32.5469 796.3344,32.5469 C796.8031,32.5469 797.1938,32.9375 797.1938,33.3906 C797.1938,33.7813 796.8656,34.2344 796.2875,34.6406 C795.5375,35.1875 794.3813,35.4844 793.1625,35.4844 C790.2719,35.4844 788.1625,33.5938 788.1625,31.0156 L788.1625,29.8906 C788.1625,27.1719 790.1625,25.0938 792.7875,25.0938 C793.6625,25.0938 794.2563,25.2344 795.1938,25.6719 Z "/><text fill="#000000" font-family="sans-serif" font-size="12" lengthAdjust="spacingAndGlyphs" textLength="21" x="811.15" y="34.1543">Bar</text><line style="stroke: #A80036; stroke-width: 1.5;" x1="759.5" x2="853.5" y1="46" y2="46"/><ellipse cx="769.5" cy="57" fill="#84BE84" rx="3" ry="3" style="stroke: #038048; stroke-width: 1.0;"/><text fill="#000000" font-family="sans-serif" font-size="11" lengthAdjust="spacingAndGlyphs" textLength="25" x="778.5" y="60.2104">init()</text><ellipse cx="769.5" cy="69.8047" fill="#84BE84" rx="3" ry="3" style="stroke: #038048; stroke-width: 1.0;"/><text fill="#000000" font-family="sans-serif" font-size="11" lengthAdjust="spacingAndGlyphs" textLength="70" x="778.5" y="73.0151">add(tourist:)</text><!--MD5=[09ce52be0ee7de43c61b6e2d59bf108b]
class Person--><rect fill="#FEFECE" height="32" id="Person" style="stroke: #A80036; stroke-width: 1.5;" width="76" x="410.5" y="186"/><ellipse cx="425.5" cy="202" fill="#ADD1B2" rx="11" ry="11" style="stroke: #A80036; stroke-width: 1.0;"/><path d="M427.8438,197.6719 L428.0156,197.75 C428.2344,197.4375 428.4375,197.3438 428.7344,197.3438 C429.0313,197.3438 429.3125,197.4844 429.4688,197.75 C429.5625,197.9063 429.5781,198.0313 429.5781,198.4688 L429.5781,199.8906 C429.5781,200.3125 429.5469,200.5 429.4375,200.6563 C429.2656,200.875 429,201.0156 428.7344,201.0156 C428.5156,201.0156 428.2813,200.9063 428.1406,200.7656 C428,200.6406 427.9688,200.5156 427.9063,200.1094 C427.8125,199.7031 427.6406,199.4844 427.1563,199.2031 C426.6875,198.9531 426.0781,198.7969 425.5,198.7969 C423.7656,198.7969 422.5156,200.1094 422.5156,201.8906 L422.5156,202.9844 C422.5156,204.6875 423.8125,205.7813 425.8594,205.7813 C426.625,205.7813 427.3125,205.6563 427.7344,205.3906 C427.9219,205.2969 427.9219,205.2969 428.375,204.8125 C428.5625,204.625 428.7656,204.5469 428.9844,204.5469 C429.4531,204.5469 429.8438,204.9375 429.8438,205.3906 C429.8438,205.7813 429.5156,206.2344 428.9375,206.6406 C428.1875,207.1875 427.0313,207.4844 425.8125,207.4844 C422.9219,207.4844 420.8125,205.5938 420.8125,203.0156 L420.8125,201.8906 C420.8125,199.1719 422.8125,197.0938 425.4375,197.0938 C426.3125,197.0938 426.9063,197.2344 427.8438,197.6719 Z "/><text fill="#000000" font-family="sans-serif" font-size="12" lengthAdjust="spacingAndGlyphs" textLength="44" x="439.5" y="206.1543">Person</text><!--MD5=[8c6146d5f8f55ad092dcd6f9c39beda3]
class CustomStringConvertible--><rect fill="#FEFECE" height="32" id="CustomStringConvertible" style="stroke: #A80036; stroke-width: 1.5;" width="186" x="521.5" y="186"/><ellipse cx="536.5" cy="202" fill="#ADD1B2" rx="11" ry="11" style="stroke: #A80036; stroke-width: 1.0;"/><path d="M538.8438,197.6719 L539.0156,197.75 C539.2344,197.4375 539.4375,197.3438 539.7344,197.3438 C540.0313,197.3438 540.3125,197.4844 540.4688,197.75 C540.5625,197.9063 540.5781,198.0313 540.5781,198.4688 L540.5781,199.8906 C540.5781,200.3125 540.5469,200.5 540.4375,200.6563 C540.2656,200.875 540,201.0156 539.7344,201.0156 C539.5156,201.0156 539.2813,200.9063 539.1406,200.7656 C539,200.6406 538.9688,200.5156 538.9063,200.1094 C538.8125,199.7031 538.6406,199.4844 538.1563,199.2031 C537.6875,198.9531 537.0781,198.7969 536.5,198.7969 C534.7656,198.7969 533.5156,200.1094 533.5156,201.8906 L533.5156,202.9844 C533.5156,204.6875 534.8125,205.7813 536.8594,205.7813 C537.625,205.7813 538.3125,205.6563 538.7344,205.3906 C538.9219,205.2969 538.9219,205.2969 539.375,204.8125 C539.5625,204.625 539.7656,204.5469 539.9844,204.5469 C540.4531,204.5469 540.8438,204.9375 540.8438,205.3906 C540.8438,205.7813 540.5156,206.2344 539.9375,206.6406 C539.1875,207.1875 538.0313,207.4844 536.8125,207.4844 C533.9219,207.4844 531.8125,205.5938 531.8125,203.0156 L531.8125,201.8906 C531.8125,199.1719 533.8125,197.0938 536.4375,197.0938 C537.3125,197.0938 537.9063,197.2344 538.8438,197.6719 Z "/><text fill="#000000" font-family="sans-serif" font-size="12" lengthAdjust="spacingAndGlyphs" textLength="154" x="550.5" y="206.1543">CustomStringConvertible</text><!--MD5=[be635acc9ba9e0f4fe748d313ea6b8a4]
link Tourist to Person--><path d="M490.131,73.609 C481.798,99.108 468.954,138.412 459.736,166.6179 " fill="none" id="Tourist-&gt;Person" style="stroke: #A80036; stroke-width: 1.0;"/><polygon fill="none" points="466.269,169.1614,453.403,185.9976,452.962,164.8125,466.269,169.1614" style="stroke: #A80036; stroke-width: 1.0;"/><!--MD5=[6d1ab68b2b9520cb0c885c9c557e0a67]
link Tourist to CustomStringConvertible--><path d="M517.916,73.609 C538.01,100.112 569.412,141.5311 590.92,169.8993 " fill="none" id="Tourist-&gt;CustomStringConvertible" style="stroke: #A80036; stroke-width: 1.0;"/><polygon fill="none" points="596.62,165.8311,603.126,185.9976,585.464,174.2894,596.62,165.8311" style="stroke: #A80036; stroke-width: 1.0;"/><!--MD5=[00b6a2b441d2eec2a343f9ef1935123e]
link Restaurant to Attraction--><path d="M693.924,73.609 C712.077,95.307 738.592,127.001 760.634,153.3473 " fill="none" id="Restaurant-&gt;Attraction" style="stroke: #A80036; stroke-width: 1.0;"/><polygon fill="none" points="766.2,149.0919,773.665,168.9233,755.462,158.0752,766.2,149.0919" style="stroke: #A80036; stroke-width: 1.0;"/><text fill="#000000" font-family="sans-serif" font-size="13" lengthAdjust="spacingAndGlyphs" textLength="47" x="741.5" y="129.0669">inherits</text><!--MD5=[61f268465ef0e95346d17531a85b6243]
link Bar to Attraction--><path d="M805.242,80.074 C804.462,99.964 803.442,125.987 802.547,148.7942 " fill="none" id="Bar-&gt;Attraction" style="stroke: #A80036; stroke-width: 1.0;"/><polygon fill="none" points="809.535,149.2581,801.756,168.9684,795.545,148.7094,809.535,149.2581" style="stroke: #A80036; stroke-width: 1.0;"/><text fill="#000000" font-family="sans-serif" font-size="13" lengthAdjust="spacingAndGlyphs" textLength="47" x="805.5" y="129.0669">inherits</text><!--MD5=[902b2bfb29e7cdcd2a2cdfa91c38f82f]
link Engine to CaptainOrder--><!--MD5=[eb6e73c6a43e28952b5004525239b95b]
link Engine to Ship--><!--MD5=[cae9080dd591e66e0e555dfa0a30af69]
link Ship to Cabin--><!--MD5=[9aeab32abcb0098940038c164b085264]
@startuml
hide empty members
skinparam shadowing false
class "Tourist" as Tourist {
  +init(age:)

}
class "Engine" as Engine {
  +init(power:)
  +start()
  +stop()

}
class "CaptainOrder" as CaptainOrder << (E,LightSteelBlue) enum >> {

}
class "Ship" as Ship {
  +init(people:)
  +assignCabins()
  +performCaptainOrder(order:)

}
class "Cabin" as Cabin {
  +init(capacity:people:)

}
class "Attraction" as Attraction {
  +init(capacity:)
  +add(tourist:)

}
class "Restaurant" as Restaurant {
  +init()

}
class "Bar" as Bar {
  +init()
  +add(tourist:)

}

Tourist - -|> Person 
Tourist - -|> CustomStringConvertible 
Restaurant - -|> Attraction : inherits
Bar - -|> Attraction : inherits
@enduml

PlantUML version 1.2020.02(Sun Mar 01 10:22:07 UTC 2020)
(GPL source distribution)
Java Runtime: Java(TM) SE Runtime Environment
JVM: Java HotSpot(TM) 64-Bit Server VM
Java Version: 1.7.0_25-b15
Operating System: Linux
Default Encoding: UTF-8
Language: en
Country: US
--></g></svg>