<?xml version="1.0" encoding="UTF-8" standalone="no"?><svg xmlns="http://www.w3.org/2000/svg" xmlns:xlink="http://www.w3.org/1999/xlink" contentScriptType="application/ecmascript" contentStyleType="text/css" height="687px" preserveAspectRatio="none" style="width:1573px;height:687px;" version="1.1" viewBox="0 0 1573 687" width="1573px" zoomAndPan="magnify"><defs/><g><!--MD5=[e279a70dc92d8a9dad0c6a6ec2c72329]
class RandGenerator--><rect fill="#FEFECE" height="91.2188" id="RandGenerator" style="stroke: #A80036; stroke-width: 1.5;" width="146" x="6" y="123.5"/><ellipse cx="29.1" cy="139.5" fill="#ADD1B2" rx="11" ry="11" style="stroke: #A80036; stroke-width: 1.0;"/><path d="M31.4438,135.1719 L31.6156,135.25 C31.8344,134.9375 32.0375,134.8438 32.3344,134.8438 C32.6313,134.8438 32.9125,134.9844 33.0688,135.25 C33.1625,135.4063 33.1781,135.5313 33.1781,135.9688 L33.1781,137.3906 C33.1781,137.8125 33.1469,138 33.0375,138.1563 C32.8656,138.375 32.6,138.5156 32.3344,138.5156 C32.1156,138.5156 31.8813,138.4063 31.7406,138.2656 C31.6,138.1406 31.5688,138.0156 31.5063,137.6094 C31.4125,137.2031 31.2406,136.9844 30.7563,136.7031 C30.2875,136.4531 29.6781,136.2969 29.1,136.2969 C27.3656,136.2969 26.1156,137.6094 26.1156,139.3906 L26.1156,140.4844 C26.1156,142.1875 27.4125,143.2813 29.4594,143.2813 C30.225,143.2813 30.9125,143.1563 31.3344,142.8906 C31.5219,142.7969 31.5219,142.7969 31.975,142.3125 C32.1625,142.125 32.3656,142.0469 32.5844,142.0469 C33.0531,142.0469 33.4438,142.4375 33.4438,142.8906 C33.4438,143.2813 33.1156,143.7344 32.5375,144.1406 C31.7875,144.6875 30.6313,144.9844 29.4125,144.9844 C26.5219,144.9844 24.4125,143.0938 24.4125,140.5156 L24.4125,139.3906 C24.4125,136.6719 26.4125,134.5938 29.0375,134.5938 C29.9125,134.5938 30.5063,134.7344 31.4438,135.1719 Z "/><text fill="#000000" font-family="sans-serif" font-size="12" lengthAdjust="spacingAndGlyphs" textLength="96" x="44.9" y="143.6543">RandGenerator</text><line style="stroke: #A80036; stroke-width: 1.5;" x1="7" x2="151" y1="155.5" y2="155.5"/><rect fill="#F24D5C" height="6" style="stroke: #C82930; stroke-width: 1.0;" width="6" x="14" y="163.5"/><text fill="#000000" font-family="sans-serif" font-size="11" lengthAdjust="spacingAndGlyphs" textLength="25" x="26" y="169.7104">init()</text><ellipse cx="17" cy="179.3047" fill="#84BE84" rx="3" ry="3" style="stroke: #038048; stroke-width: 1.0;"/><text fill="#000000" font-family="sans-serif" font-size="11" lengthAdjust="spacingAndGlyphs" textLength="92" x="26" y="182.5151">generateName()</text><ellipse cx="17" cy="192.1094" fill="#84BE84" rx="3" ry="3" style="stroke: #038048; stroke-width: 1.0;"/><text fill="#000000" font-family="sans-serif" font-size="11" lengthAdjust="spacingAndGlyphs" textLength="120" x="26" y="195.3198">generateProfession()</text><ellipse cx="17" cy="204.9141" fill="#84BE84" rx="3" ry="3" style="stroke: #038048; stroke-width: 1.0;"/><text fill="#000000" font-family="sans-serif" font-size="11" lengthAdjust="spacingAndGlyphs" textLength="85" x="26" y="208.1245">generateDate()</text><!--MD5=[f31390e798da01263fbd9487b4be75b0]
class CruiseShip--><rect fill="#FEFECE" height="321.7031" id="CruiseShip" style="stroke: #A80036; stroke-width: 1.5;" width="553" x="187.5" y="8"/><ellipse cx="426.75" cy="24" fill="#ADD1B2" rx="11" ry="11" style="stroke: #A80036; stroke-width: 1.0;"/><path d="M429.0938,19.6719 L429.2656,19.75 C429.4844,19.4375 429.6875,19.3438 429.9844,19.3438 C430.2813,19.3438 430.5625,19.4844 430.7188,19.75 C430.8125,19.9063 430.8281,20.0313 430.8281,20.4688 L430.8281,21.8906 C430.8281,22.3125 430.7969,22.5 430.6875,22.6563 C430.5156,22.875 430.25,23.0156 429.9844,23.0156 C429.7656,23.0156 429.5313,22.9063 429.3906,22.7656 C429.25,22.6406 429.2188,22.5156 429.1563,22.1094 C429.0625,21.7031 428.8906,21.4844 428.4063,21.2031 C427.9375,20.9531 427.3281,20.7969 426.75,20.7969 C425.0156,20.7969 423.7656,22.1094 423.7656,23.8906 L423.7656,24.9844 C423.7656,26.6875 425.0625,27.7813 427.1094,27.7813 C427.875,27.7813 428.5625,27.6563 428.9844,27.3906 C429.1719,27.2969 429.1719,27.2969 429.625,26.8125 C429.8125,26.625 430.0156,26.5469 430.2344,26.5469 C430.7031,26.5469 431.0938,26.9375 431.0938,27.3906 C431.0938,27.7813 430.7656,28.2344 430.1875,28.6406 C429.4375,29.1875 428.2813,29.4844 427.0625,29.4844 C424.1719,29.4844 422.0625,27.5938 422.0625,25.0156 L422.0625,23.8906 C422.0625,21.1719 424.0625,19.0938 426.6875,19.0938 C427.5625,19.0938 428.1563,19.2344 429.0938,19.6719 Z "/><text fill="#000000" font-family="sans-serif" font-size="12" lengthAdjust="spacingAndGlyphs" textLength="66" x="447.25" y="28.1543">CruiseShip</text><line style="stroke: #A80036; stroke-width: 1.5;" x1="188.5" x2="739.5" y1="40" y2="40"/><ellipse cx="198.5" cy="51" fill="#84BE84" rx="3" ry="3" style="stroke: #038048; stroke-width: 1.0;"/><text fill="#000000" font-family="sans-serif" font-size="11" lengthAdjust="spacingAndGlyphs" textLength="527" x="207.5" y="54.2104">init(shipName:captainName:capacityOfWorkers:capacityOfGuests:restaurants:bars:engines:)</text><ellipse cx="198.5" cy="63.8047" fill="#84BE84" rx="3" ry="3" style="stroke: #038048; stroke-width: 1.0;"/><text fill="#000000" font-family="sans-serif" font-size="11" lengthAdjust="spacingAndGlyphs" textLength="280" x="207.5" y="67.0151">turnOnEngine(captainFullName:engineToTurnOn:)</text><ellipse cx="198.5" cy="76.6094" fill="#84BE84" rx="3" ry="3" style="stroke: #038048; stroke-width: 1.0;"/><text fill="#000000" font-family="sans-serif" font-size="11" lengthAdjust="spacingAndGlyphs" textLength="282" x="207.5" y="79.8198">turnOffEngine(captainFullName:engineToTurnOff:)</text><ellipse cx="198.5" cy="89.4141" fill="#84BE84" rx="3" ry="3" style="stroke: #038048; stroke-width: 1.0;"/><text fill="#000000" font-family="sans-serif" font-size="11" lengthAdjust="spacingAndGlyphs" textLength="48" x="207.5" y="92.6245">display()</text><ellipse cx="198.5" cy="102.2188" fill="#84BE84" rx="3" ry="3" style="stroke: #038048; stroke-width: 1.0;"/><text fill="#000000" font-family="sans-serif" font-size="11" lengthAdjust="spacingAndGlyphs" textLength="89" x="207.5" y="105.4292">displayGuests()</text><ellipse cx="198.5" cy="115.0234" fill="#84BE84" rx="3" ry="3" style="stroke: #038048; stroke-width: 1.0;"/><text fill="#000000" font-family="sans-serif" font-size="11" lengthAdjust="spacingAndGlyphs" textLength="94" x="207.5" y="118.2339">displayWorkers()</text><ellipse cx="198.5" cy="127.8281" fill="#84BE84" rx="3" ry="3" style="stroke: #038048; stroke-width: 1.0;"/><text fill="#000000" font-family="sans-serif" font-size="11" lengthAdjust="spacingAndGlyphs" textLength="75" x="207.5" y="131.0386">displayBars()</text><ellipse cx="198.5" cy="140.6328" fill="#84BE84" rx="3" ry="3" style="stroke: #038048; stroke-width: 1.0;"/><text fill="#000000" font-family="sans-serif" font-size="11" lengthAdjust="spacingAndGlyphs" textLength="117" x="207.5" y="143.8433">displayRestaurants()</text><ellipse cx="198.5" cy="153.4375" fill="#84BE84" rx="3" ry="3" style="stroke: #038048; stroke-width: 1.0;"/><text fill="#000000" font-family="sans-serif" font-size="11" lengthAdjust="spacingAndGlyphs" textLength="126" x="207.5" y="156.6479">displayActiveEngines()</text><ellipse cx="198.5" cy="166.2422" fill="#84BE84" rx="3" ry="3" style="stroke: #038048; stroke-width: 1.0;"/><text fill="#000000" font-family="sans-serif" font-size="11" lengthAdjust="spacingAndGlyphs" textLength="199" x="207.5" y="169.4526">addGuestToBar(guestId:barName:)</text><ellipse cx="198.5" cy="179.0469" fill="#84BE84" rx="3" ry="3" style="stroke: #038048; stroke-width: 1.0;"/><text fill="#000000" font-family="sans-serif" font-size="11" lengthAdjust="spacingAndGlyphs" textLength="236" x="207.5" y="182.2573">removeGuestFromBar(guestId:barName:)</text><ellipse cx="198.5" cy="191.8516" fill="#84BE84" rx="3" ry="3" style="stroke: #038048; stroke-width: 1.0;"/><text fill="#000000" font-family="sans-serif" font-size="11" lengthAdjust="spacingAndGlyphs" textLength="175" x="207.5" y="195.062">displayGuestsInBar(barName:)</text><ellipse cx="198.5" cy="204.6563" fill="#84BE84" rx="3" ry="3" style="stroke: #038048; stroke-width: 1.0;"/><text fill="#000000" font-family="sans-serif" font-size="11" lengthAdjust="spacingAndGlyphs" textLength="211" x="207.5" y="207.8667">getNumberOfGuestsInBar(barName:)</text><ellipse cx="198.5" cy="217.4609" fill="#84BE84" rx="3" ry="3" style="stroke: #038048; stroke-width: 1.0;"/><text fill="#000000" font-family="sans-serif" font-size="11" lengthAdjust="spacingAndGlyphs" textLength="282" x="207.5" y="220.6714">addGuestToRestaurant(guestId:restaurantName:)</text><ellipse cx="198.5" cy="230.2656" fill="#84BE84" rx="3" ry="3" style="stroke: #038048; stroke-width: 1.0;"/><text fill="#000000" font-family="sans-serif" font-size="11" lengthAdjust="spacingAndGlyphs" textLength="312" x="207.5" y="233.4761">removeGuestFromResturant(guestId:restaurantName:)</text><ellipse cx="198.5" cy="243.0703" fill="#84BE84" rx="3" ry="3" style="stroke: #038048; stroke-width: 1.0;"/><text fill="#000000" font-family="sans-serif" font-size="11" lengthAdjust="spacingAndGlyphs" textLength="258" x="207.5" y="246.2808">displayGuestsInRestaurant(restaurantName:)</text><ellipse cx="198.5" cy="255.875" fill="#84BE84" rx="3" ry="3" style="stroke: #038048; stroke-width: 1.0;"/><text fill="#000000" font-family="sans-serif" font-size="11" lengthAdjust="spacingAndGlyphs" textLength="294" x="207.5" y="259.0854">getNumberOfGuestsInRestaurant(restaurantName:)</text><ellipse cx="198.5" cy="268.6797" fill="#84BE84" rx="3" ry="3" style="stroke: #038048; stroke-width: 1.0;"/><text fill="#000000" font-family="sans-serif" font-size="11" lengthAdjust="spacingAndGlyphs" textLength="167" x="207.5" y="271.8901">displayCabinGuests(CabinId:)</text><ellipse cx="198.5" cy="281.4844" fill="#84BE84" rx="3" ry="3" style="stroke: #038048; stroke-width: 1.0;"/><text fill="#000000" font-family="sans-serif" font-size="11" lengthAdjust="spacingAndGlyphs" textLength="87" x="207.5" y="284.6948">displayCabins()</text><ellipse cx="198.5" cy="294.2891" fill="#84BE84" rx="3" ry="3" style="stroke: #038048; stroke-width: 1.0;"/><text fill="#000000" font-family="sans-serif" font-size="11" lengthAdjust="spacingAndGlyphs" textLength="178" x="207.5" y="297.4995">addFriends(guestId:friendsIds:)</text><ellipse cx="198.5" cy="307.0938" fill="#84BE84" rx="3" ry="3" style="stroke: #038048; stroke-width: 1.0;"/><text fill="#000000" font-family="sans-serif" font-size="11" lengthAdjust="spacingAndGlyphs" textLength="200" x="207.5" y="310.3042">removeFriends(guestId:friendsIds:)</text><ellipse cx="198.5" cy="319.8984" fill="#84BE84" rx="3" ry="3" style="stroke: #038048; stroke-width: 1.0;"/><text fill="#000000" font-family="sans-serif" font-size="11" lengthAdjust="spacingAndGlyphs" textLength="136" x="207.5" y="323.1089">displayFriends(guestId:)</text><!--MD5=[8515a37c80da559ff7ce07f8a9e75d30]
class Place--><rect fill="#FEFECE" height="37.9375" id="Place" style="stroke: #A80036; stroke-width: 1.5;" width="94" x="753" y="639"/><ellipse cx="768" cy="657.9688" fill="#DAA520" rx="11" ry="11" style="stroke: #A80036; stroke-width: 1.0;"/><path d="M767.5469,659.5625 L767.5469,661.2656 L769.2344,661.2656 C769.6875,661.2656 769.8281,661.2969 770,661.4219 C770.2188,661.5938 770.3594,661.8438 770.3594,662.125 C770.3594,662.4063 770.2031,662.7031 769.9375,662.8438 C769.8281,662.9219 769.5781,662.9688 769.2344,662.9688 L765.5938,662.9688 C765.2031,662.9688 764.9688,662.9219 764.8281,662.7969 C764.6094,662.6406 764.4688,662.375 764.4688,662.125 C764.4688,661.8281 764.625,661.5469 764.875,661.3906 C765.0313,661.2813 765.1875,661.2656 765.5938,661.2656 L765.8438,661.2656 L765.8438,654.75 L765.5938,654.75 C765.1719,654.75 764.9844,654.7188 764.8281,654.6094 C764.6094,654.4375 764.4688,654.1563 764.4688,653.9063 C764.4688,653.625 764.625,653.3281 764.875,653.1719 C765.0313,653.0781 765.1563,653.0625 765.5938,653.0625 L769.5469,653.0625 C771.7188,653.0625 773.25,654.3906 773.25,656.2656 C773.25,657.0469 772.9375,657.8594 772.3906,658.4531 C771.6406,659.2813 770.7969,659.5625 769.2188,659.5625 Z M767.5469,654.75 L767.5469,657.875 L769.5469,657.875 C770.7344,657.875 771.4375,657.2813 771.4375,656.3281 C771.4375,655.3594 770.7344,654.75 769.5469,654.75 Z "/><text fill="#000000" font-family="sans-serif" font-size="12" font-style="italic" lengthAdjust="spacingAndGlyphs" textLength="66" x="780" y="655.1387">«protocol»</text><text fill="#000000" font-family="sans-serif" font-size="12" lengthAdjust="spacingAndGlyphs" textLength="34" x="796" y="669.1074">Place</text><!--MD5=[09ce52be0ee7de43c61b6e2d59bf108b]
class Person--><rect fill="#FEFECE" height="58.7422" id="Person" style="stroke: #A80036; stroke-width: 1.5;" width="94" x="1267" y="455"/><ellipse cx="1282" cy="473.9688" fill="#DAA520" rx="11" ry="11" style="stroke: #A80036; stroke-width: 1.0;"/><path d="M1281.5469,475.5625 L1281.5469,477.2656 L1283.2344,477.2656 C1283.6875,477.2656 1283.8281,477.2969 1284,477.4219 C1284.2188,477.5938 1284.3594,477.8438 1284.3594,478.125 C1284.3594,478.4063 1284.2031,478.7031 1283.9375,478.8438 C1283.8281,478.9219 1283.5781,478.9688 1283.2344,478.9688 L1279.5938,478.9688 C1279.2031,478.9688 1278.9688,478.9219 1278.8281,478.7969 C1278.6094,478.6406 1278.4688,478.375 1278.4688,478.125 C1278.4688,477.8281 1278.625,477.5469 1278.875,477.3906 C1279.0313,477.2813 1279.1875,477.2656 1279.5938,477.2656 L1279.8438,477.2656 L1279.8438,470.75 L1279.5938,470.75 C1279.1719,470.75 1278.9844,470.7188 1278.8281,470.6094 C1278.6094,470.4375 1278.4688,470.1563 1278.4688,469.9063 C1278.4688,469.625 1278.625,469.3281 1278.875,469.1719 C1279.0313,469.0781 1279.1563,469.0625 1279.5938,469.0625 L1283.5469,469.0625 C1285.7188,469.0625 1287.25,470.3906 1287.25,472.2656 C1287.25,473.0469 1286.9375,473.8594 1286.3906,474.4531 C1285.6406,475.2813 1284.7969,475.5625 1283.2188,475.5625 Z M1281.5469,470.75 L1281.5469,473.875 L1283.5469,473.875 C1284.7344,473.875 1285.4375,473.2813 1285.4375,472.3281 C1285.4375,471.3594 1284.7344,470.75 1283.5469,470.75 Z "/><text fill="#000000" font-family="sans-serif" font-size="12" font-style="italic" lengthAdjust="spacingAndGlyphs" textLength="66" x="1294" y="471.1387">«protocol»</text><text fill="#000000" font-family="sans-serif" font-size="12" lengthAdjust="spacingAndGlyphs" textLength="44" x="1305" y="485.1074">Person</text><line style="stroke: #A80036; stroke-width: 1.5;" x1="1268" x2="1360" y1="492.9375" y2="492.9375"/><ellipse cx="1278" cy="503.9375" fill="#84BE84" rx="3" ry="3" style="stroke: #038048; stroke-width: 1.0;"/><text fill="#000000" font-family="sans-serif" font-size="11" lengthAdjust="spacingAndGlyphs" textLength="48" x="1287" y="507.1479">display()</text><!--MD5=[7b5bd88a8a025decccf0c9eac4aaabe9]
class Worker--><rect fill="#FEFECE" height="65.6094" id="Worker" style="stroke: #A80036; stroke-width: 1.5;" width="184" x="1096" y="136"/><ellipse cx="1161.75" cy="152" fill="#ADD1B2" rx="11" ry="11" style="stroke: #A80036; stroke-width: 1.0;"/><path d="M1164.0938,147.6719 L1164.2656,147.75 C1164.4844,147.4375 1164.6875,147.3438 1164.9844,147.3438 C1165.2813,147.3438 1165.5625,147.4844 1165.7188,147.75 C1165.8125,147.9063 1165.8281,148.0313 1165.8281,148.4688 L1165.8281,149.8906 C1165.8281,150.3125 1165.7969,150.5 1165.6875,150.6563 C1165.5156,150.875 1165.25,151.0156 1164.9844,151.0156 C1164.7656,151.0156 1164.5313,150.9063 1164.3906,150.7656 C1164.25,150.6406 1164.2188,150.5156 1164.1563,150.1094 C1164.0625,149.7031 1163.8906,149.4844 1163.4063,149.2031 C1162.9375,148.9531 1162.3281,148.7969 1161.75,148.7969 C1160.0156,148.7969 1158.7656,150.1094 1158.7656,151.8906 L1158.7656,152.9844 C1158.7656,154.6875 1160.0625,155.7813 1162.1094,155.7813 C1162.875,155.7813 1163.5625,155.6563 1163.9844,155.3906 C1164.1719,155.2969 1164.1719,155.2969 1164.625,154.8125 C1164.8125,154.625 1165.0156,154.5469 1165.2344,154.5469 C1165.7031,154.5469 1166.0938,154.9375 1166.0938,155.3906 C1166.0938,155.7813 1165.7656,156.2344 1165.1875,156.6406 C1164.4375,157.1875 1163.2813,157.4844 1162.0625,157.4844 C1159.1719,157.4844 1157.0625,155.5938 1157.0625,153.0156 L1157.0625,151.8906 C1157.0625,149.1719 1159.0625,147.0938 1161.6875,147.0938 C1162.5625,147.0938 1163.1563,147.2344 1164.0938,147.6719 Z "/><text fill="#000000" font-family="sans-serif" font-size="12" lengthAdjust="spacingAndGlyphs" textLength="44" x="1182.25" y="156.1543">Worker</text><line style="stroke: #A80036; stroke-width: 1.5;" x1="1097" x2="1279" y1="168" y2="168"/><ellipse cx="1107" cy="179" fill="#84BE84" rx="3" ry="3" style="stroke: #038048; stroke-width: 1.0;"/><text fill="#000000" font-family="sans-serif" font-size="11" lengthAdjust="spacingAndGlyphs" textLength="158" x="1116" y="182.2104">init(fullName:id:profession:)</text><ellipse cx="1107" cy="191.8047" fill="#84BE84" rx="3" ry="3" style="stroke: #038048; stroke-width: 1.0;"/><text fill="#000000" font-family="sans-serif" font-size="11" lengthAdjust="spacingAndGlyphs" textLength="48" x="1116" y="195.0151">display()</text><!--MD5=[17e067209b722bc6033fce82cc1f8b51]
class Guest--><rect fill="#FEFECE" height="129.6328" id="Guest" style="stroke: #A80036; stroke-width: 1.5;" width="247" x="1315.5" y="104"/><ellipse cx="1416.25" cy="120" fill="#ADD1B2" rx="11" ry="11" style="stroke: #A80036; stroke-width: 1.0;"/><path d="M1418.5938,115.6719 L1418.7656,115.75 C1418.9844,115.4375 1419.1875,115.3438 1419.4844,115.3438 C1419.7813,115.3438 1420.0625,115.4844 1420.2188,115.75 C1420.3125,115.9063 1420.3281,116.0313 1420.3281,116.4688 L1420.3281,117.8906 C1420.3281,118.3125 1420.2969,118.5 1420.1875,118.6563 C1420.0156,118.875 1419.75,119.0156 1419.4844,119.0156 C1419.2656,119.0156 1419.0313,118.9063 1418.8906,118.7656 C1418.75,118.6406 1418.7188,118.5156 1418.6563,118.1094 C1418.5625,117.7031 1418.3906,117.4844 1417.9063,117.2031 C1417.4375,116.9531 1416.8281,116.7969 1416.25,116.7969 C1414.5156,116.7969 1413.2656,118.1094 1413.2656,119.8906 L1413.2656,120.9844 C1413.2656,122.6875 1414.5625,123.7813 1416.6094,123.7813 C1417.375,123.7813 1418.0625,123.6563 1418.4844,123.3906 C1418.6719,123.2969 1418.6719,123.2969 1419.125,122.8125 C1419.3125,122.625 1419.5156,122.5469 1419.7344,122.5469 C1420.2031,122.5469 1420.5938,122.9375 1420.5938,123.3906 C1420.5938,123.7813 1420.2656,124.2344 1419.6875,124.6406 C1418.9375,125.1875 1417.7813,125.4844 1416.5625,125.4844 C1413.6719,125.4844 1411.5625,123.5938 1411.5625,121.0156 L1411.5625,119.8906 C1411.5625,117.1719 1413.5625,115.0938 1416.1875,115.0938 C1417.0625,115.0938 1417.6563,115.2344 1418.5938,115.6719 Z "/><text fill="#000000" font-family="sans-serif" font-size="12" lengthAdjust="spacingAndGlyphs" textLength="37" x="1436.75" y="124.1543">Guest</text><line style="stroke: #A80036; stroke-width: 1.5;" x1="1316.5" x2="1561.5" y1="136" y2="136"/><ellipse cx="1326.5" cy="147" fill="#84BE84" rx="3" ry="3" style="stroke: #038048; stroke-width: 1.0;"/><text fill="#000000" font-family="sans-serif" font-size="11" lengthAdjust="spacingAndGlyphs" textLength="221" x="1335.5" y="150.2104">init(fullName:id:dateOfBirth:freeCabin:)</text><ellipse cx="1326.5" cy="159.8047" fill="#84BE84" rx="3" ry="3" style="stroke: #038048; stroke-width: 1.0;"/><text fill="#000000" font-family="sans-serif" font-size="11" lengthAdjust="spacingAndGlyphs" textLength="73" x="1335.5" y="163.0151">getLocation()</text><ellipse cx="1326.5" cy="172.6094" fill="#84BE84" rx="3" ry="3" style="stroke: #038048; stroke-width: 1.0;"/><text fill="#000000" font-family="sans-serif" font-size="11" lengthAdjust="spacingAndGlyphs" textLength="121" x="1335.5" y="175.8198">setLocation(location:)</text><ellipse cx="1326.5" cy="185.4141" fill="#84BE84" rx="3" ry="3" style="stroke: #038048; stroke-width: 1.0;"/><text fill="#000000" font-family="sans-serif" font-size="11" lengthAdjust="spacingAndGlyphs" textLength="48" x="1335.5" y="188.6245">display()</text><ellipse cx="1326.5" cy="198.2188" fill="#84BE84" rx="3" ry="3" style="stroke: #038048; stroke-width: 1.0;"/><text fill="#000000" font-family="sans-serif" font-size="11" lengthAdjust="spacingAndGlyphs" textLength="112" x="1335.5" y="201.4292">addFrends(friends:)</text><ellipse cx="1326.5" cy="211.0234" fill="#84BE84" rx="3" ry="3" style="stroke: #038048; stroke-width: 1.0;"/><text fill="#000000" font-family="sans-serif" font-size="11" lengthAdjust="spacingAndGlyphs" textLength="137" x="1335.5" y="214.2339">removeFriends(friends:)</text><ellipse cx="1326.5" cy="223.8281" fill="#84BE84" rx="3" ry="3" style="stroke: #038048; stroke-width: 1.0;"/><text fill="#000000" font-family="sans-serif" font-size="11" lengthAdjust="spacingAndGlyphs" textLength="90" x="1335.5" y="227.0386">displayFriends()</text><!--MD5=[25e2fb7615be8e8235c93ad75197cd6f]
class Cabin--><rect fill="#FEFECE" height="104.0234" id="Cabin" style="stroke: #A80036; stroke-width: 1.5;" width="152" x="647" y="432.5"/><ellipse cx="701.25" cy="448.5" fill="#ADD1B2" rx="11" ry="11" style="stroke: #A80036; stroke-width: 1.0;"/><path d="M703.5938,444.1719 L703.7656,444.25 C703.9844,443.9375 704.1875,443.8438 704.4844,443.8438 C704.7813,443.8438 705.0625,443.9844 705.2188,444.25 C705.3125,444.4063 705.3281,444.5313 705.3281,444.9688 L705.3281,446.3906 C705.3281,446.8125 705.2969,447 705.1875,447.1563 C705.0156,447.375 704.75,447.5156 704.4844,447.5156 C704.2656,447.5156 704.0313,447.4063 703.8906,447.2656 C703.75,447.1406 703.7188,447.0156 703.6563,446.6094 C703.5625,446.2031 703.3906,445.9844 702.9063,445.7031 C702.4375,445.4531 701.8281,445.2969 701.25,445.2969 C699.5156,445.2969 698.2656,446.6094 698.2656,448.3906 L698.2656,449.4844 C698.2656,451.1875 699.5625,452.2813 701.6094,452.2813 C702.375,452.2813 703.0625,452.1563 703.4844,451.8906 C703.6719,451.7969 703.6719,451.7969 704.125,451.3125 C704.3125,451.125 704.5156,451.0469 704.7344,451.0469 C705.2031,451.0469 705.5938,451.4375 705.5938,451.8906 C705.5938,452.2813 705.2656,452.7344 704.6875,453.1406 C703.9375,453.6875 702.7813,453.9844 701.5625,453.9844 C698.6719,453.9844 696.5625,452.0938 696.5625,449.5156 L696.5625,448.3906 C696.5625,445.6719 698.5625,443.5938 701.1875,443.5938 C702.0625,443.5938 702.6563,443.7344 703.5938,444.1719 Z "/><text fill="#000000" font-family="sans-serif" font-size="12" lengthAdjust="spacingAndGlyphs" textLength="35" x="721.75" y="452.6543">Cabin</text><line style="stroke: #A80036; stroke-width: 1.5;" x1="648" x2="798" y1="464.5" y2="464.5"/><ellipse cx="658" cy="475.5" fill="#84BE84" rx="3" ry="3" style="stroke: #038048; stroke-width: 1.0;"/><text fill="#000000" font-family="sans-serif" font-size="11" lengthAdjust="spacingAndGlyphs" textLength="126" x="667" y="478.7104">init(cabinId:cabinSize:)</text><ellipse cx="658" cy="488.3047" fill="#84BE84" rx="3" ry="3" style="stroke: #038048; stroke-width: 1.0;"/><text fill="#000000" font-family="sans-serif" font-size="11" lengthAdjust="spacingAndGlyphs" textLength="43" x="667" y="491.5151">isFree()</text><ellipse cx="658" cy="501.1094" fill="#84BE84" rx="3" ry="3" style="stroke: #038048; stroke-width: 1.0;"/><text fill="#000000" font-family="sans-serif" font-size="11" lengthAdjust="spacingAndGlyphs" textLength="116" x="667" y="504.3198">assginGuest(guest:)</text><ellipse cx="658" cy="513.9141" fill="#84BE84" rx="3" ry="3" style="stroke: #038048; stroke-width: 1.0;"/><text fill="#000000" font-family="sans-serif" font-size="11" lengthAdjust="spacingAndGlyphs" textLength="89" x="667" y="517.1245">displayGuests()</text><ellipse cx="658" cy="526.7188" fill="#84BE84" rx="3" ry="3" style="stroke: #038048; stroke-width: 1.0;"/><text fill="#000000" font-family="sans-serif" font-size="11" lengthAdjust="spacingAndGlyphs" textLength="125" x="667" y="529.9292">getNumberOfGuests()</text><!--MD5=[c86ce95fe6226f2d2796c0513d8e83fe]
class Engine--><rect fill="#FEFECE" height="52.8047" id="Engine" style="stroke: #A80036; stroke-width: 1.5;" width="128" x="15" y="458"/><ellipse cx="53.85" cy="474" fill="#ADD1B2" rx="11" ry="11" style="stroke: #A80036; stroke-width: 1.0;"/><path d="M56.1938,469.6719 L56.3656,469.75 C56.5844,469.4375 56.7875,469.3438 57.0844,469.3438 C57.3813,469.3438 57.6625,469.4844 57.8188,469.75 C57.9125,469.9063 57.9281,470.0313 57.9281,470.4688 L57.9281,471.8906 C57.9281,472.3125 57.8969,472.5 57.7875,472.6563 C57.6156,472.875 57.35,473.0156 57.0844,473.0156 C56.8656,473.0156 56.6313,472.9063 56.4906,472.7656 C56.35,472.6406 56.3188,472.5156 56.2563,472.1094 C56.1625,471.7031 55.9906,471.4844 55.5063,471.2031 C55.0375,470.9531 54.4281,470.7969 53.85,470.7969 C52.1156,470.7969 50.8656,472.1094 50.8656,473.8906 L50.8656,474.9844 C50.8656,476.6875 52.1625,477.7813 54.2094,477.7813 C54.975,477.7813 55.6625,477.6563 56.0844,477.3906 C56.2719,477.2969 56.2719,477.2969 56.725,476.8125 C56.9125,476.625 57.1156,476.5469 57.3344,476.5469 C57.8031,476.5469 58.1938,476.9375 58.1938,477.3906 C58.1938,477.7813 57.8656,478.2344 57.2875,478.6406 C56.5375,479.1875 55.3813,479.4844 54.1625,479.4844 C51.2719,479.4844 49.1625,477.5938 49.1625,475.0156 L49.1625,473.8906 C49.1625,471.1719 51.1625,469.0938 53.7875,469.0938 C54.6625,469.0938 55.2563,469.2344 56.1938,469.6719 Z "/><text fill="#000000" font-family="sans-serif" font-size="12" lengthAdjust="spacingAndGlyphs" textLength="43" x="73.15" y="478.1543">Engine</text><line style="stroke: #A80036; stroke-width: 1.5;" x1="16" x2="142" y1="490" y2="490"/><ellipse cx="26" cy="501" fill="#84BE84" rx="3" ry="3" style="stroke: #038048; stroke-width: 1.0;"/><text fill="#000000" font-family="sans-serif" font-size="11" lengthAdjust="spacingAndGlyphs" textLength="102" x="35" y="504.2104">init(sizeOfEngine:)</text><!--MD5=[d77f4be6cf4e36cb096f28db38d4a499]
class EntertainmentPlace--><rect fill="#FEFECE" height="155.2422" id="EntertainmentPlace" style="stroke: #A80036; stroke-width: 1.5;" width="168" x="834" y="407"/><ellipse cx="854.4" cy="423" fill="#ADD1B2" rx="11" ry="11" style="stroke: #A80036; stroke-width: 1.0;"/><path d="M856.7438,418.6719 L856.9156,418.75 C857.1344,418.4375 857.3375,418.3438 857.6344,418.3438 C857.9313,418.3438 858.2125,418.4844 858.3688,418.75 C858.4625,418.9063 858.4781,419.0313 858.4781,419.4688 L858.4781,420.8906 C858.4781,421.3125 858.4469,421.5 858.3375,421.6563 C858.1656,421.875 857.9,422.0156 857.6344,422.0156 C857.4156,422.0156 857.1813,421.9063 857.0406,421.7656 C856.9,421.6406 856.8688,421.5156 856.8063,421.1094 C856.7125,420.7031 856.5406,420.4844 856.0563,420.2031 C855.5875,419.9531 854.9781,419.7969 854.4,419.7969 C852.6656,419.7969 851.4156,421.1094 851.4156,422.8906 L851.4156,423.9844 C851.4156,425.6875 852.7125,426.7813 854.7594,426.7813 C855.525,426.7813 856.2125,426.6563 856.6344,426.3906 C856.8219,426.2969 856.8219,426.2969 857.275,425.8125 C857.4625,425.625 857.6656,425.5469 857.8844,425.5469 C858.3531,425.5469 858.7438,425.9375 858.7438,426.3906 C858.7438,426.7813 858.4156,427.2344 857.8375,427.6406 C857.0875,428.1875 855.9313,428.4844 854.7125,428.4844 C851.8219,428.4844 849.7125,426.5938 849.7125,424.0156 L849.7125,422.8906 C849.7125,420.1719 851.7125,418.0938 854.3375,418.0938 C855.2125,418.0938 855.8063,418.2344 856.7438,418.6719 Z "/><text fill="#000000" font-family="sans-serif" font-size="12" lengthAdjust="spacingAndGlyphs" textLength="124" x="869.6" y="427.1543">EntertainmentPlace</text><line style="stroke: #A80036; stroke-width: 1.5;" x1="835" x2="1001" y1="439" y2="439"/><ellipse cx="845" cy="450" fill="#84BE84" rx="3" ry="3" style="stroke: #038048; stroke-width: 1.0;"/><text fill="#000000" font-family="sans-serif" font-size="11" lengthAdjust="spacingAndGlyphs" textLength="111" x="854" y="453.2104">init(name:capacity:)</text><ellipse cx="845" cy="462.8047" fill="#84BE84" rx="3" ry="3" style="stroke: #038048; stroke-width: 1.0;"/><text fill="#000000" font-family="sans-serif" font-size="11" lengthAdjust="spacingAndGlyphs" textLength="121" x="854" y="466.0151">removeGuest(guest:)</text><ellipse cx="845" cy="475.6094" fill="#84BE84" rx="3" ry="3" style="stroke: #038048; stroke-width: 1.0;"/><text fill="#000000" font-family="sans-serif" font-size="11" lengthAdjust="spacingAndGlyphs" textLength="99" x="854" y="478.8198">addGuest(guest:)</text><ellipse cx="845" cy="488.4141" fill="#84BE84" rx="3" ry="3" style="stroke: #038048; stroke-width: 1.0;"/><text fill="#000000" font-family="sans-serif" font-size="11" lengthAdjust="spacingAndGlyphs" textLength="67" x="854" y="491.6245">getGuests()</text><ellipse cx="845" cy="501.2188" fill="#84BE84" rx="3" ry="3" style="stroke: #038048; stroke-width: 1.0;"/><text fill="#000000" font-family="sans-serif" font-size="11" lengthAdjust="spacingAndGlyphs" textLength="142" x="854" y="504.4292">setGuest(guestId:guest:)</text><ellipse cx="845" cy="514.0234" fill="#84BE84" rx="3" ry="3" style="stroke: #038048; stroke-width: 1.0;"/><text fill="#000000" font-family="sans-serif" font-size="11" lengthAdjust="spacingAndGlyphs" textLength="48" x="854" y="517.2339">display()</text><ellipse cx="845" cy="526.8281" fill="#84BE84" rx="3" ry="3" style="stroke: #038048; stroke-width: 1.0;"/><text fill="#000000" font-family="sans-serif" font-size="11" lengthAdjust="spacingAndGlyphs" textLength="89" x="854" y="530.0386">displayGuests()</text><ellipse cx="845" cy="539.6328" fill="#84BE84" rx="3" ry="3" style="stroke: #038048; stroke-width: 1.0;"/><text fill="#000000" font-family="sans-serif" font-size="11" lengthAdjust="spacingAndGlyphs" textLength="105" x="854" y="542.8433">amountOfGuests()</text><ellipse cx="845" cy="552.4375" fill="#84BE84" rx="3" ry="3" style="stroke: #038048; stroke-width: 1.0;"/><text fill="#000000" font-family="sans-serif" font-size="11" lengthAdjust="spacingAndGlyphs" textLength="126" x="854" y="555.6479">containsGuest(guest:)</text><!--MD5=[714a323ea803c80dd4dfd42b424b55c8]
class Restaurant--><rect fill="#FEFECE" height="52.8047" id="Restaurant" style="stroke: #A80036; stroke-width: 1.5;" width="125" x="775.5" y="142.5"/><ellipse cx="800.85" cy="158.5" fill="#ADD1B2" rx="11" ry="11" style="stroke: #A80036; stroke-width: 1.0;"/><path d="M803.1938,154.1719 L803.3656,154.25 C803.5844,153.9375 803.7875,153.8438 804.0844,153.8438 C804.3813,153.8438 804.6625,153.9844 804.8188,154.25 C804.9125,154.4063 804.9281,154.5313 804.9281,154.9688 L804.9281,156.3906 C804.9281,156.8125 804.8969,157 804.7875,157.1563 C804.6156,157.375 804.35,157.5156 804.0844,157.5156 C803.8656,157.5156 803.6313,157.4063 803.4906,157.2656 C803.35,157.1406 803.3188,157.0156 803.2563,156.6094 C803.1625,156.2031 802.9906,155.9844 802.5063,155.7031 C802.0375,155.4531 801.4281,155.2969 800.85,155.2969 C799.1156,155.2969 797.8656,156.6094 797.8656,158.3906 L797.8656,159.4844 C797.8656,161.1875 799.1625,162.2813 801.2094,162.2813 C801.975,162.2813 802.6625,162.1563 803.0844,161.8906 C803.2719,161.7969 803.2719,161.7969 803.725,161.3125 C803.9125,161.125 804.1156,161.0469 804.3344,161.0469 C804.8031,161.0469 805.1938,161.4375 805.1938,161.8906 C805.1938,162.2813 804.8656,162.7344 804.2875,163.1406 C803.5375,163.6875 802.3813,163.9844 801.1625,163.9844 C798.2719,163.9844 796.1625,162.0938 796.1625,159.5156 L796.1625,158.3906 C796.1625,155.6719 798.1625,153.5938 800.7875,153.5938 C801.6625,153.5938 802.2563,153.7344 803.1938,154.1719 Z "/><text fill="#000000" font-family="sans-serif" font-size="12" lengthAdjust="spacingAndGlyphs" textLength="70" x="817.15" y="162.6543">Restaurant</text><line style="stroke: #A80036; stroke-width: 1.5;" x1="776.5" x2="899.5" y1="174.5" y2="174.5"/><ellipse cx="786.5" cy="185.5" fill="#84BE84" rx="3" ry="3" style="stroke: #038048; stroke-width: 1.0;"/><text fill="#000000" font-family="sans-serif" font-size="11" lengthAdjust="spacingAndGlyphs" textLength="99" x="795.5" y="188.7104">addGuest(guest:)</text><!--MD5=[fea15f7924bd848149aeb562f3a4d86b]
class Bar--><rect fill="#FEFECE" height="52.8047" id="Bar" style="stroke: #A80036; stroke-width: 1.5;" width="125" x="935.5" y="142.5"/><ellipse cx="983.25" cy="158.5" fill="#ADD1B2" rx="11" ry="11" style="stroke: #A80036; stroke-width: 1.0;"/><path d="M985.5938,154.1719 L985.7656,154.25 C985.9844,153.9375 986.1875,153.8438 986.4844,153.8438 C986.7813,153.8438 987.0625,153.9844 987.2188,154.25 C987.3125,154.4063 987.3281,154.5313 987.3281,154.9688 L987.3281,156.3906 C987.3281,156.8125 987.2969,157 987.1875,157.1563 C987.0156,157.375 986.75,157.5156 986.4844,157.5156 C986.2656,157.5156 986.0313,157.4063 985.8906,157.2656 C985.75,157.1406 985.7188,157.0156 985.6563,156.6094 C985.5625,156.2031 985.3906,155.9844 984.9063,155.7031 C984.4375,155.4531 983.8281,155.2969 983.25,155.2969 C981.5156,155.2969 980.2656,156.6094 980.2656,158.3906 L980.2656,159.4844 C980.2656,161.1875 981.5625,162.2813 983.6094,162.2813 C984.375,162.2813 985.0625,162.1563 985.4844,161.8906 C985.6719,161.7969 985.6719,161.7969 986.125,161.3125 C986.3125,161.125 986.5156,161.0469 986.7344,161.0469 C987.2031,161.0469 987.5938,161.4375 987.5938,161.8906 C987.5938,162.2813 987.2656,162.7344 986.6875,163.1406 C985.9375,163.6875 984.7813,163.9844 983.5625,163.9844 C980.6719,163.9844 978.5625,162.0938 978.5625,159.5156 L978.5625,158.3906 C978.5625,155.6719 980.5625,153.5938 983.1875,153.5938 C984.0625,153.5938 984.6563,153.7344 985.5938,154.1719 Z "/><text fill="#000000" font-family="sans-serif" font-size="12" lengthAdjust="spacingAndGlyphs" textLength="21" x="1003.75" y="162.6543">Bar</text><line style="stroke: #A80036; stroke-width: 1.5;" x1="936.5" x2="1059.5" y1="174.5" y2="174.5"/><ellipse cx="946.5" cy="185.5" fill="#84BE84" rx="3" ry="3" style="stroke: #038048; stroke-width: 1.0;"/><text fill="#000000" font-family="sans-serif" font-size="11" lengthAdjust="spacingAndGlyphs" textLength="99" x="955.5" y="188.7104">addGuest(guest:)</text><!--MD5=[0a8aa1ff2bbbd72b384ed4929dd955b3]
link Worker to Person--><path d="M1200.89,202.077 C1223.18,257.537 1269.02,371.595 1294.98,436.183 " fill="none" id="Worker-&gt;Person" style="stroke: #A80036; stroke-width: 1.0; stroke-dasharray: 7.0,7.0;"/><polygon fill="none" points="1301.54,433.731,1302.5,454.898,1288.55,438.952,1301.54,433.731" style="stroke: #A80036; stroke-width: 1.0;"/><text fill="#000000" font-family="sans-serif" font-size="13" lengthAdjust="spacingAndGlyphs" textLength="72" x="1271" y="373.0669">confirms to</text><!--MD5=[563b9c56b9678f4724b44dfeec3455cb]
link Guest to Person--><path d="M1413.4,234.198 C1389.53,294.082 1354.45,382.045 1332.98,435.892 " fill="none" id="Guest-&gt;Person" style="stroke: #A80036; stroke-width: 1.0; stroke-dasharray: 7.0,7.0;"/><polygon fill="none" points="1339.38,438.744,1325.47,454.729,1326.38,433.559,1339.38,438.744" style="stroke: #A80036; stroke-width: 1.0;"/><text fill="#000000" font-family="sans-serif" font-size="13" lengthAdjust="spacingAndGlyphs" textLength="72" x="1363" y="373.0669">confirms to</text><!--MD5=[5c9c9d468a3f36f6addedc6a89f6d70a]
link Cabin to Place--><path d="M733.378,536.592 C739.268,559.572 747.926,586.5214 760,609 C762.515,613.6826 765.533,618.3311 768.769,622.7872 " fill="none" id="Cabin-&gt;Place" style="stroke: #A80036; stroke-width: 1.0; stroke-dasharray: 7.0,7.0;"/><polygon fill="none" points="774.515,618.758,781.727,638.6829,763.664,627.6038,774.515,618.758" style="stroke: #A80036; stroke-width: 1.0;"/><text fill="#000000" font-family="sans-serif" font-size="13" lengthAdjust="spacingAndGlyphs" textLength="72" x="761" y="605.0669">confirms to</text><!--MD5=[4b2168428a2c66502f60fe81a6f167a3]
link EntertainmentPlace to Place--><path d="M870.039,562.024 C859.739,577.7458 848.72,594.0538 838,609 C834.744,613.5396 831.223,618.2387 827.683,622.8402 " fill="none" id="EntertainmentPlace-&gt;Place" style="stroke: #A80036; stroke-width: 1.0; stroke-dasharray: 7.0,7.0;"/><polygon fill="none" points="833.106,627.2675,815.217,638.6237,822.12,618.59,833.106,627.2675" style="stroke: #A80036; stroke-width: 1.0;"/><text fill="#000000" font-family="sans-serif" font-size="13" lengthAdjust="spacingAndGlyphs" textLength="72" x="851" y="605.0669">confirms to</text><!--MD5=[e2182cab71229eb1fb073cbc607e5cb2]
link Restaurant to EntertainmentPlace--><path d="M844.547,195.655 C855.121,237.092 876.489,320.828 893.465,387.352 " fill="none" id="Restaurant-&gt;EntertainmentPlace" style="stroke: #A80036; stroke-width: 1.0;"/><polygon fill="none" points="900.299,385.825,898.462,406.935,886.734,389.286,900.299,385.825" style="stroke: #A80036; stroke-width: 1.0;"/><text fill="#000000" font-family="sans-serif" font-size="13" lengthAdjust="spacingAndGlyphs" textLength="47" x="891" y="373.0669">inherits</text><!--MD5=[0fb0f135e5bd0338b876926be8ef8f2e]
link Bar to EntertainmentPlace--><path d="M991.918,195.544 C982.552,234.678 963.908,311.794 947,377 C946.14,380.316 945.259,383.688 944.364,387.092 " fill="none" id="Bar-&gt;EntertainmentPlace" style="stroke: #A80036; stroke-width: 1.0;"/><polygon fill="none" points="951.035,389.242,939.132,406.773,937.505,385.646,951.035,389.242" style="stroke: #A80036; stroke-width: 1.0;"/><text fill="#000000" font-family="sans-serif" font-size="13" lengthAdjust="spacingAndGlyphs" textLength="47" x="953" y="373.0669">inherits</text><!--MD5=[a7720f5940089c57506823d726496609]
link RandGenerator to CruiseShip--><!--MD5=[a58a4a7cc3271d064b8127017cb8e169]
link RandGenerator to Engine--><!--MD5=[b2f85444e3c99ca64bb4fb30a05ceeae]
@startuml
hide empty members
skinparam shadowing false
class "RandGenerator" as RandGenerator {
  -init()
  +generateName()
  +generateProfession()
  +generateDate()

}
class "CruiseShip" as CruiseShip {
  +init(shipName:captainName:capacityOfWorkers:capacityOfGuests:restaurants:bars:engines:)
  +turnOnEngine(captainFullName:engineToTurnOn:)
  +turnOffEngine(captainFullName:engineToTurnOff:)
  +display()
  +displayGuests()
  +displayWorkers()
  +displayBars()
  +displayRestaurants()
  +displayActiveEngines()
  +addGuestToBar(guestId:barName:)
  +removeGuestFromBar(guestId:barName:)
  +displayGuestsInBar(barName:)
  +getNumberOfGuestsInBar(barName:)
  +addGuestToRestaurant(guestId:restaurantName:)
  +removeGuestFromResturant(guestId:restaurantName:)
  +displayGuestsInRestaurant(restaurantName:)
  +getNumberOfGuestsInRestaurant(restaurantName:)
  +displayCabinGuests(CabinId:)
  +displayCabins()
  +addFriends(guestId:friendsIds:)
  +removeFriends(guestId:friendsIds:)
  +displayFriends(guestId:)

}
class "Place" as Place << (P,GoldenRod) protocol >> {

}
class "Person" as Person << (P,GoldenRod) protocol >> {
  +display()

}
class "Worker" as Worker {
  +init(fullName:id:profession:)
  +display()

}
class "Guest" as Guest {
  +init(fullName:id:dateOfBirth:freeCabin:)
  +getLocation()
  +setLocation(location:)
  +display()
  +addFrends(friends:)
  +removeFriends(friends:)
  +displayFriends()

}
class "Cabin" as Cabin {
  +init(cabinId:cabinSize:)
  +isFree()
  +assginGuest(guest:)
  +displayGuests()
  +getNumberOfGuests()

}
class "Engine" as Engine {
  +init(sizeOfEngine:)

}
class "EntertainmentPlace" as EntertainmentPlace {
  +init(name:capacity:)
  +removeGuest(guest:)
  +addGuest(guest:)
  +getGuests()
  +setGuest(guestId:guest:)
  +display()
  +displayGuests()
  +amountOfGuests()
  +containsGuest(guest:)

}
class "Restaurant" as Restaurant {
  +addGuest(guest:)

}
class "Bar" as Bar {
  +addGuest(guest:)

}

Worker ..|> Person : confirms to
Guest ..|> Person : confirms to
Cabin ..|> Place : confirms to
EntertainmentPlace ..|> Place : confirms to
Restaurant - -|> EntertainmentPlace : inherits
Bar - -|> EntertainmentPlace : inherits
@enduml

PlantUML version 1.2020.02(Sun Mar 01 10:22:07 UTC 2020)
(GPL source distribution)
Java Runtime: Java(TM) SE Runtime Environment
JVM: Java HotSpot(TM) 64-Bit Server VM
Java Version: 1.7.0_25-b15
Operating System: Linux
Default Encoding: UTF-8
Language: en
Country: US
--></g></svg>