<?xml version="1.0" encoding="UTF-8" standalone="no"?><svg xmlns="http://www.w3.org/2000/svg" xmlns:xlink="http://www.w3.org/1999/xlink" contentScriptType="application/ecmascript" contentStyleType="text/css" height="222px" preserveAspectRatio="none" style="width:746px;height:222px;" version="1.1" viewBox="0 0 746 222" width="746px" zoomAndPan="magnify"><defs/><g><!--MD5=[c86ce95fe6226f2d2796c0513d8e83fe]
class Engine--><rect fill="#FEFECE" height="78.4141" id="Engine" style="stroke: #A80036; stroke-width: 1.5;" width="90" x="26.5" y="8"/><ellipse cx="48.25" cy="24" fill="#ADD1B2" rx="11" ry="11" style="stroke: #A80036; stroke-width: 1.0;"/><path d="M50.5938,19.6719 L50.7656,19.75 C50.9844,19.4375 51.1875,19.3438 51.4844,19.3438 C51.7813,19.3438 52.0625,19.4844 52.2188,19.75 C52.3125,19.9063 52.3281,20.0313 52.3281,20.4688 L52.3281,21.8906 C52.3281,22.3125 52.2969,22.5 52.1875,22.6563 C52.0156,22.875 51.75,23.0156 51.4844,23.0156 C51.2656,23.0156 51.0313,22.9063 50.8906,22.7656 C50.75,22.6406 50.7188,22.5156 50.6563,22.1094 C50.5625,21.7031 50.3906,21.4844 49.9063,21.2031 C49.4375,20.9531 48.8281,20.7969 48.25,20.7969 C46.5156,20.7969 45.2656,22.1094 45.2656,23.8906 L45.2656,24.9844 C45.2656,26.6875 46.5625,27.7813 48.6094,27.7813 C49.375,27.7813 50.0625,27.6563 50.4844,27.3906 C50.6719,27.2969 50.6719,27.2969 51.125,26.8125 C51.3125,26.625 51.5156,26.5469 51.7344,26.5469 C52.2031,26.5469 52.5938,26.9375 52.5938,27.3906 C52.5938,27.7813 52.2656,28.2344 51.6875,28.6406 C50.9375,29.1875 49.7813,29.4844 48.5625,29.4844 C45.6719,29.4844 43.5625,27.5938 43.5625,25.0156 L43.5625,23.8906 C43.5625,21.1719 45.5625,19.0938 48.1875,19.0938 C49.0625,19.0938 49.6563,19.2344 50.5938,19.6719 Z "/><text fill="#000000" font-family="sans-serif" font-size="12" lengthAdjust="spacingAndGlyphs" textLength="43" x="63.75" y="28.1543">Engine</text><line style="stroke: #A80036; stroke-width: 1.5;" x1="27.5" x2="115.5" y1="40" y2="40"/><ellipse cx="37.5" cy="51" fill="#84BE84" rx="3" ry="3" style="stroke: #038048; stroke-width: 1.0;"/><text fill="#000000" font-family="sans-serif" font-size="11" lengthAdjust="spacingAndGlyphs" textLength="64" x="46.5" y="54.2104">init(power:)</text><ellipse cx="37.5" cy="63.8047" fill="#84BE84" rx="3" ry="3" style="stroke: #038048; stroke-width: 1.0;"/><text fill="#000000" font-family="sans-serif" font-size="11" lengthAdjust="spacingAndGlyphs" textLength="47" x="46.5" y="67.0151">turnOn()</text><ellipse cx="37.5" cy="76.6094" fill="#84BE84" rx="3" ry="3" style="stroke: #038048; stroke-width: 1.0;"/><text fill="#000000" font-family="sans-serif" font-size="11" lengthAdjust="spacingAndGlyphs" textLength="48" x="46.5" y="79.8198">turnOff()</text><!--MD5=[09ce52be0ee7de43c61b6e2d59bf108b]
class Person--><rect fill="#FEFECE" height="65.6094" id="Person" style="stroke: #A80036; stroke-width: 1.5;" width="152" x="151.5" y="14"/><ellipse cx="201.25" cy="30" fill="#ADD1B2" rx="11" ry="11" style="stroke: #A80036; stroke-width: 1.0;"/><path d="M203.5938,25.6719 L203.7656,25.75 C203.9844,25.4375 204.1875,25.3438 204.4844,25.3438 C204.7813,25.3438 205.0625,25.4844 205.2188,25.75 C205.3125,25.9063 205.3281,26.0313 205.3281,26.4688 L205.3281,27.8906 C205.3281,28.3125 205.2969,28.5 205.1875,28.6563 C205.0156,28.875 204.75,29.0156 204.4844,29.0156 C204.2656,29.0156 204.0313,28.9063 203.8906,28.7656 C203.75,28.6406 203.7188,28.5156 203.6563,28.1094 C203.5625,27.7031 203.3906,27.4844 202.9063,27.2031 C202.4375,26.9531 201.8281,26.7969 201.25,26.7969 C199.5156,26.7969 198.2656,28.1094 198.2656,29.8906 L198.2656,30.9844 C198.2656,32.6875 199.5625,33.7813 201.6094,33.7813 C202.375,33.7813 203.0625,33.6563 203.4844,33.3906 C203.6719,33.2969 203.6719,33.2969 204.125,32.8125 C204.3125,32.625 204.5156,32.5469 204.7344,32.5469 C205.2031,32.5469 205.5938,32.9375 205.5938,33.3906 C205.5938,33.7813 205.2656,34.2344 204.6875,34.6406 C203.9375,35.1875 202.7813,35.4844 201.5625,35.4844 C198.6719,35.4844 196.5625,33.5938 196.5625,31.0156 L196.5625,29.8906 C196.5625,27.1719 198.5625,25.0938 201.1875,25.0938 C202.0625,25.0938 202.6563,25.2344 203.5938,25.6719 Z "/><text fill="#000000" font-family="sans-serif" font-size="12" lengthAdjust="spacingAndGlyphs" textLength="44" x="221.75" y="34.1543">Person</text><line style="stroke: #A80036; stroke-width: 1.5;" x1="152.5" x2="302.5" y1="46" y2="46"/><ellipse cx="162.5" cy="57" fill="#84BE84" rx="3" ry="3" style="stroke: #038048; stroke-width: 1.0;"/><text fill="#000000" font-family="sans-serif" font-size="11" lengthAdjust="spacingAndGlyphs" textLength="126" x="171.5" y="60.2104">init(name:status:age:)</text><ellipse cx="162.5" cy="69.8047" fill="#84BE84" rx="3" ry="3" style="stroke: #038048; stroke-width: 1.0;"/><text fill="#000000" font-family="sans-serif" font-size="11" lengthAdjust="spacingAndGlyphs" textLength="108" x="171.5" y="73.0151">introduceYourself()</text><!--MD5=[714a323ea803c80dd4dfd42b424b55c8]
class Restaurant--><rect fill="#FEFECE" height="52.8047" id="Restaurant" style="stroke: #A80036; stroke-width: 1.5;" width="102" x="338.5" y="20.5"/><ellipse cx="353.5" cy="36.5" fill="#ADD1B2" rx="11" ry="11" style="stroke: #A80036; stroke-width: 1.0;"/><path d="M355.8438,32.1719 L356.0156,32.25 C356.2344,31.9375 356.4375,31.8438 356.7344,31.8438 C357.0313,31.8438 357.3125,31.9844 357.4688,32.25 C357.5625,32.4063 357.5781,32.5313 357.5781,32.9688 L357.5781,34.3906 C357.5781,34.8125 357.5469,35 357.4375,35.1563 C357.2656,35.375 357,35.5156 356.7344,35.5156 C356.5156,35.5156 356.2813,35.4063 356.1406,35.2656 C356,35.1406 355.9688,35.0156 355.9063,34.6094 C355.8125,34.2031 355.6406,33.9844 355.1563,33.7031 C354.6875,33.4531 354.0781,33.2969 353.5,33.2969 C351.7656,33.2969 350.5156,34.6094 350.5156,36.3906 L350.5156,37.4844 C350.5156,39.1875 351.8125,40.2813 353.8594,40.2813 C354.625,40.2813 355.3125,40.1563 355.7344,39.8906 C355.9219,39.7969 355.9219,39.7969 356.375,39.3125 C356.5625,39.125 356.7656,39.0469 356.9844,39.0469 C357.4531,39.0469 357.8438,39.4375 357.8438,39.8906 C357.8438,40.2813 357.5156,40.7344 356.9375,41.1406 C356.1875,41.6875 355.0313,41.9844 353.8125,41.9844 C350.9219,41.9844 348.8125,40.0938 348.8125,37.5156 L348.8125,36.3906 C348.8125,33.6719 350.8125,31.5938 353.4375,31.5938 C354.3125,31.5938 354.9063,31.7344 355.8438,32.1719 Z "/><text fill="#000000" font-family="sans-serif" font-size="12" lengthAdjust="spacingAndGlyphs" textLength="70" x="367.5" y="40.6543">Restaurant</text><line style="stroke: #A80036; stroke-width: 1.5;" x1="339.5" x2="439.5" y1="52.5" y2="52.5"/><ellipse cx="349.5" cy="63.5" fill="#84BE84" rx="3" ry="3" style="stroke: #038048; stroke-width: 1.0;"/><text fill="#000000" font-family="sans-serif" font-size="11" lengthAdjust="spacingAndGlyphs" textLength="53" x="358.5" y="66.7104">init(max:)</text><!--MD5=[fea15f7924bd848149aeb562f3a4d86b]
class Bar--><rect fill="#FEFECE" height="65.6094" id="Bar" style="stroke: #A80036; stroke-width: 1.5;" width="131" x="6" y="146"/><ellipse cx="56.75" cy="162" fill="#ADD1B2" rx="11" ry="11" style="stroke: #A80036; stroke-width: 1.0;"/><path d="M59.0938,157.6719 L59.2656,157.75 C59.4844,157.4375 59.6875,157.3438 59.9844,157.3438 C60.2813,157.3438 60.5625,157.4844 60.7188,157.75 C60.8125,157.9063 60.8281,158.0313 60.8281,158.4688 L60.8281,159.8906 C60.8281,160.3125 60.7969,160.5 60.6875,160.6563 C60.5156,160.875 60.25,161.0156 59.9844,161.0156 C59.7656,161.0156 59.5313,160.9063 59.3906,160.7656 C59.25,160.6406 59.2188,160.5156 59.1563,160.1094 C59.0625,159.7031 58.8906,159.4844 58.4063,159.2031 C57.9375,158.9531 57.3281,158.7969 56.75,158.7969 C55.0156,158.7969 53.7656,160.1094 53.7656,161.8906 L53.7656,162.9844 C53.7656,164.6875 55.0625,165.7813 57.1094,165.7813 C57.875,165.7813 58.5625,165.6563 58.9844,165.3906 C59.1719,165.2969 59.1719,165.2969 59.625,164.8125 C59.8125,164.625 60.0156,164.5469 60.2344,164.5469 C60.7031,164.5469 61.0938,164.9375 61.0938,165.3906 C61.0938,165.7813 60.7656,166.2344 60.1875,166.6406 C59.4375,167.1875 58.2813,167.4844 57.0625,167.4844 C54.1719,167.4844 52.0625,165.5938 52.0625,163.0156 L52.0625,161.8906 C52.0625,159.1719 54.0625,157.0938 56.6875,157.0938 C57.5625,157.0938 58.1563,157.2344 59.0938,157.6719 Z "/><text fill="#000000" font-family="sans-serif" font-size="12" lengthAdjust="spacingAndGlyphs" textLength="21" x="77.25" y="166.1543">Bar</text><line style="stroke: #A80036; stroke-width: 1.5;" x1="7" x2="136" y1="178" y2="178"/><ellipse cx="17" cy="189" fill="#84BE84" rx="3" ry="3" style="stroke: #038048; stroke-width: 1.0;"/><text fill="#000000" font-family="sans-serif" font-size="11" lengthAdjust="spacingAndGlyphs" textLength="53" x="26" y="192.2104">init(max:)</text><ellipse cx="17" cy="201.8047" fill="#84BE84" rx="3" ry="3" style="stroke: #038048; stroke-width: 1.0;"/><text fill="#000000" font-family="sans-serif" font-size="11" lengthAdjust="spacingAndGlyphs" textLength="105" x="26" y="205.0151">checkAge(person:)</text><!--MD5=[25e2fb7615be8e8235c93ad75197cd6f]
class Cabin--><rect fill="#FEFECE" height="52.8047" id="Cabin" style="stroke: #A80036; stroke-width: 1.5;" width="130" x="172.5" y="152.5"/><ellipse cx="215.85" cy="168.5" fill="#ADD1B2" rx="11" ry="11" style="stroke: #A80036; stroke-width: 1.0;"/><path d="M218.1938,164.1719 L218.3656,164.25 C218.5844,163.9375 218.7875,163.8438 219.0844,163.8438 C219.3813,163.8438 219.6625,163.9844 219.8188,164.25 C219.9125,164.4063 219.9281,164.5313 219.9281,164.9688 L219.9281,166.3906 C219.9281,166.8125 219.8969,167 219.7875,167.1563 C219.6156,167.375 219.35,167.5156 219.0844,167.5156 C218.8656,167.5156 218.6313,167.4063 218.4906,167.2656 C218.35,167.1406 218.3188,167.0156 218.2563,166.6094 C218.1625,166.2031 217.9906,165.9844 217.5063,165.7031 C217.0375,165.4531 216.4281,165.2969 215.85,165.2969 C214.1156,165.2969 212.8656,166.6094 212.8656,168.3906 L212.8656,169.4844 C212.8656,171.1875 214.1625,172.2813 216.2094,172.2813 C216.975,172.2813 217.6625,172.1563 218.0844,171.8906 C218.2719,171.7969 218.2719,171.7969 218.725,171.3125 C218.9125,171.125 219.1156,171.0469 219.3344,171.0469 C219.8031,171.0469 220.1938,171.4375 220.1938,171.8906 C220.1938,172.2813 219.8656,172.7344 219.2875,173.1406 C218.5375,173.6875 217.3813,173.9844 216.1625,173.9844 C213.2719,173.9844 211.1625,172.0938 211.1625,169.5156 L211.1625,168.3906 C211.1625,165.6719 213.1625,163.5938 215.7875,163.5938 C216.6625,163.5938 217.2563,163.7344 218.1938,164.1719 Z "/><text fill="#000000" font-family="sans-serif" font-size="12" lengthAdjust="spacingAndGlyphs" textLength="35" x="236.15" y="172.6543">Cabin</text><line style="stroke: #A80036; stroke-width: 1.5;" x1="173.5" x2="301.5" y1="184.5" y2="184.5"/><ellipse cx="183.5" cy="195.5" fill="#84BE84" rx="3" ry="3" style="stroke: #038048; stroke-width: 1.0;"/><text fill="#000000" font-family="sans-serif" font-size="11" lengthAdjust="spacingAndGlyphs" textLength="104" x="192.5" y="198.7104">init(beds:tenants:)</text><!--MD5=[0dc7f2ddb409b58bcf52b12238c25399]
class Ship--><rect fill="#FEFECE" height="52.8047" id="Ship" style="stroke: #A80036; stroke-width: 1.5;" width="397" x="338" y="152.5"/><ellipse cx="518.75" cy="168.5" fill="#ADD1B2" rx="11" ry="11" style="stroke: #A80036; stroke-width: 1.0;"/><path d="M521.0938,164.1719 L521.2656,164.25 C521.4844,163.9375 521.6875,163.8438 521.9844,163.8438 C522.2813,163.8438 522.5625,163.9844 522.7188,164.25 C522.8125,164.4063 522.8281,164.5313 522.8281,164.9688 L522.8281,166.3906 C522.8281,166.8125 522.7969,167 522.6875,167.1563 C522.5156,167.375 522.25,167.5156 521.9844,167.5156 C521.7656,167.5156 521.5313,167.4063 521.3906,167.2656 C521.25,167.1406 521.2188,167.0156 521.1563,166.6094 C521.0625,166.2031 520.8906,165.9844 520.4063,165.7031 C519.9375,165.4531 519.3281,165.2969 518.75,165.2969 C517.0156,165.2969 515.7656,166.6094 515.7656,168.3906 L515.7656,169.4844 C515.7656,171.1875 517.0625,172.2813 519.1094,172.2813 C519.875,172.2813 520.5625,172.1563 520.9844,171.8906 C521.1719,171.7969 521.1719,171.7969 521.625,171.3125 C521.8125,171.125 522.0156,171.0469 522.2344,171.0469 C522.7031,171.0469 523.0938,171.4375 523.0938,171.8906 C523.0938,172.2813 522.7656,172.7344 522.1875,173.1406 C521.4375,173.6875 520.2813,173.9844 519.0625,173.9844 C516.1719,173.9844 514.0625,172.0938 514.0625,169.5156 L514.0625,168.3906 C514.0625,165.6719 516.0625,163.5938 518.6875,163.5938 C519.5625,163.5938 520.1563,163.7344 521.0938,164.1719 Z "/><text fill="#000000" font-family="sans-serif" font-size="12" lengthAdjust="spacingAndGlyphs" textLength="27" x="539.25" y="172.6543">Ship</text><line style="stroke: #A80036; stroke-width: 1.5;" x1="339" x2="734" y1="184.5" y2="184.5"/><ellipse cx="349" cy="195.5" fill="#84BE84" rx="3" ry="3" style="stroke: #038048; stroke-width: 1.0;"/><text fill="#000000" font-family="sans-serif" font-size="11" lengthAdjust="spacingAndGlyphs" textLength="371" x="358" y="198.7104">init(totalPassengers:totalCrew:engines:restaurants:bars:cabins:)</text><!--MD5=[f66603a3588e645552567830130b3188]
link Engine to Person--><!--MD5=[a6d6cfae57550762a808a64f5a1efec1]
link Person to Restaurant--><!--MD5=[0541b37a76ae1df93beb59fdd6b67615]
link Engine to Bar--><!--MD5=[b57f68bc02207bc7c219766e5e1282bd]
link Bar to Cabin--><!--MD5=[4437a1645ce517de0c4a70dcd87c8759]
link Cabin to Ship--><!--MD5=[1419c1754298866766b997898fc456ef]
@startuml
hide empty members
skinparam shadowing false
class "Engine" as Engine {
  +init(power:)
  +turnOn()
  +turnOff()

}
class "Person" as Person {
  +init(name:status:age:)
  +introduceYourself()

}
class "Restaurant" as Restaurant {
  +init(max:)

}
class "Bar" as Bar {
  +init(max:)
  +checkAge(person:)

}
class "Cabin" as Cabin {
  +init(beds:tenants:)

}
class "Ship" as Ship {
  +init(totalPassengers:totalCrew:engines:restaurants:bars:cabins:)

}
@enduml

PlantUML version 1.2020.02(Sun Mar 01 10:22:07 UTC 2020)
(GPL source distribution)
Java Runtime: Java(TM) SE Runtime Environment
JVM: Java HotSpot(TM) 64-Bit Server VM
Java Version: 1.7.0_25-b15
Operating System: Linux
Default Encoding: UTF-8
Language: en
Country: US
--></g></svg>