<?xml version="1.0" encoding="UTF-8" standalone="no"?><svg xmlns="http://www.w3.org/2000/svg" xmlns:xlink="http://www.w3.org/1999/xlink" contentScriptType="application/ecmascript" contentStyleType="text/css" height="291px" preserveAspectRatio="none" style="width:1498px;height:291px;" version="1.1" viewBox="0 0 1498 291" width="1498px" zoomAndPan="magnify"><defs/><g><!--MD5=[0dc7f2ddb409b58bcf52b12238c25399]
class Ship--><rect fill="#FEFECE" height="52.8047" id="Ship" style="stroke: #A80036; stroke-width: 1.5;" width="291" x="6" y="33.5"/><ellipse cx="133.75" cy="49.5" fill="#ADD1B2" rx="11" ry="11" style="stroke: #A80036; stroke-width: 1.0;"/><path d="M136.0938,45.1719 L136.2656,45.25 C136.4844,44.9375 136.6875,44.8438 136.9844,44.8438 C137.2813,44.8438 137.5625,44.9844 137.7188,45.25 C137.8125,45.4063 137.8281,45.5313 137.8281,45.9688 L137.8281,47.3906 C137.8281,47.8125 137.7969,48 137.6875,48.1563 C137.5156,48.375 137.25,48.5156 136.9844,48.5156 C136.7656,48.5156 136.5313,48.4063 136.3906,48.2656 C136.25,48.1406 136.2188,48.0156 136.1563,47.6094 C136.0625,47.2031 135.8906,46.9844 135.4063,46.7031 C134.9375,46.4531 134.3281,46.2969 133.75,46.2969 C132.0156,46.2969 130.7656,47.6094 130.7656,49.3906 L130.7656,50.4844 C130.7656,52.1875 132.0625,53.2813 134.1094,53.2813 C134.875,53.2813 135.5625,53.1563 135.9844,52.8906 C136.1719,52.7969 136.1719,52.7969 136.625,52.3125 C136.8125,52.125 137.0156,52.0469 137.2344,52.0469 C137.7031,52.0469 138.0938,52.4375 138.0938,52.8906 C138.0938,53.2813 137.7656,53.7344 137.1875,54.1406 C136.4375,54.6875 135.2813,54.9844 134.0625,54.9844 C131.1719,54.9844 129.0625,53.0938 129.0625,50.5156 L129.0625,49.3906 C129.0625,46.6719 131.0625,44.5938 133.6875,44.5938 C134.5625,44.5938 135.1563,44.7344 136.0938,45.1719 Z "/><text fill="#000000" font-family="sans-serif" font-size="12" lengthAdjust="spacingAndGlyphs" textLength="27" x="154.25" y="53.6543">Ship</text><line style="stroke: #A80036; stroke-width: 1.5;" x1="7" x2="296" y1="65.5" y2="65.5"/><ellipse cx="17" cy="76.5" fill="#84BE84" rx="3" ry="3" style="stroke: #038048; stroke-width: 1.0;"/><text fill="#000000" font-family="sans-serif" font-size="11" lengthAdjust="spacingAndGlyphs" textLength="265" x="26" y="79.7104">init(locations:passengerList:crewList:engines:)</text><!--MD5=[c86ce95fe6226f2d2796c0513d8e83fe]
class Engine--><rect fill="#FEFECE" height="104.0234" id="Engine" style="stroke: #A80036; stroke-width: 1.5;" width="260" x="332.5" y="8"/><ellipse cx="436.75" cy="24" fill="#ADD1B2" rx="11" ry="11" style="stroke: #A80036; stroke-width: 1.0;"/><path d="M439.0938,19.6719 L439.2656,19.75 C439.4844,19.4375 439.6875,19.3438 439.9844,19.3438 C440.2813,19.3438 440.5625,19.4844 440.7188,19.75 C440.8125,19.9063 440.8281,20.0313 440.8281,20.4688 L440.8281,21.8906 C440.8281,22.3125 440.7969,22.5 440.6875,22.6563 C440.5156,22.875 440.25,23.0156 439.9844,23.0156 C439.7656,23.0156 439.5313,22.9063 439.3906,22.7656 C439.25,22.6406 439.2188,22.5156 439.1563,22.1094 C439.0625,21.7031 438.8906,21.4844 438.4063,21.2031 C437.9375,20.9531 437.3281,20.7969 436.75,20.7969 C435.0156,20.7969 433.7656,22.1094 433.7656,23.8906 L433.7656,24.9844 C433.7656,26.6875 435.0625,27.7813 437.1094,27.7813 C437.875,27.7813 438.5625,27.6563 438.9844,27.3906 C439.1719,27.2969 439.1719,27.2969 439.625,26.8125 C439.8125,26.625 440.0156,26.5469 440.2344,26.5469 C440.7031,26.5469 441.0938,26.9375 441.0938,27.3906 C441.0938,27.7813 440.7656,28.2344 440.1875,28.6406 C439.4375,29.1875 438.2813,29.4844 437.0625,29.4844 C434.1719,29.4844 432.0625,27.5938 432.0625,25.0156 L432.0625,23.8906 C432.0625,21.1719 434.0625,19.0938 436.6875,19.0938 C437.5625,19.0938 438.1563,19.2344 439.0938,19.6719 Z "/><text fill="#000000" font-family="sans-serif" font-size="12" lengthAdjust="spacingAndGlyphs" textLength="43" x="457.25" y="28.1543">Engine</text><line style="stroke: #A80036; stroke-width: 1.5;" x1="333.5" x2="591.5" y1="40" y2="40"/><ellipse cx="343.5" cy="51" fill="#84BE84" rx="3" ry="3" style="stroke: #038048; stroke-width: 1.0;"/><text fill="#000000" font-family="sans-serif" font-size="11" lengthAdjust="spacingAndGlyphs" textLength="74" x="352.5" y="54.2104">switchState()</text><ellipse cx="343.5" cy="63.8047" fill="#84BE84" rx="3" ry="3" style="stroke: #038048; stroke-width: 1.0;"/><text fill="#000000" font-family="sans-serif" font-size="11" lengthAdjust="spacingAndGlyphs" textLength="234" x="352.5" y="67.0151">turn(person:toON:stateName:stateDesc:)</text><ellipse cx="343.5" cy="76.6094" fill="#84BE84" rx="3" ry="3" style="stroke: #038048; stroke-width: 1.0;"/><text fill="#000000" font-family="sans-serif" font-size="11" lengthAdjust="spacingAndGlyphs" textLength="92" x="352.5" y="79.8198">turnOff(person:)</text><ellipse cx="343.5" cy="89.4141" fill="#84BE84" rx="3" ry="3" style="stroke: #038048; stroke-width: 1.0;"/><text fill="#000000" font-family="sans-serif" font-size="11" lengthAdjust="spacingAndGlyphs" textLength="91" x="352.5" y="92.6245">turnOn(person:)</text><ellipse cx="343.5" cy="102.2188" fill="#84BE84" rx="3" ry="3" style="stroke: #038048; stroke-width: 1.0;"/><text fill="#000000" font-family="sans-serif" font-size="11" lengthAdjust="spacingAndGlyphs" textLength="133" x="352.5" y="105.4292">init(name:kHP:isActive:)</text><!--MD5=[09ce52be0ee7de43c61b6e2d59bf108b]
class Person--><rect fill="#FEFECE" height="52.8047" id="Person" style="stroke: #A80036; stroke-width: 1.5;" width="194" x="725.5" y="208"/><ellipse cx="796.25" cy="224" fill="#ADD1B2" rx="11" ry="11" style="stroke: #A80036; stroke-width: 1.0;"/><path d="M798.5938,219.6719 L798.7656,219.75 C798.9844,219.4375 799.1875,219.3438 799.4844,219.3438 C799.7813,219.3438 800.0625,219.4844 800.2188,219.75 C800.3125,219.9063 800.3281,220.0313 800.3281,220.4688 L800.3281,221.8906 C800.3281,222.3125 800.2969,222.5 800.1875,222.6563 C800.0156,222.875 799.75,223.0156 799.4844,223.0156 C799.2656,223.0156 799.0313,222.9063 798.8906,222.7656 C798.75,222.6406 798.7188,222.5156 798.6563,222.1094 C798.5625,221.7031 798.3906,221.4844 797.9063,221.2031 C797.4375,220.9531 796.8281,220.7969 796.25,220.7969 C794.5156,220.7969 793.2656,222.1094 793.2656,223.8906 L793.2656,224.9844 C793.2656,226.6875 794.5625,227.7813 796.6094,227.7813 C797.375,227.7813 798.0625,227.6563 798.4844,227.3906 C798.6719,227.2969 798.6719,227.2969 799.125,226.8125 C799.3125,226.625 799.5156,226.5469 799.7344,226.5469 C800.2031,226.5469 800.5938,226.9375 800.5938,227.3906 C800.5938,227.7813 800.2656,228.2344 799.6875,228.6406 C798.9375,229.1875 797.7813,229.4844 796.5625,229.4844 C793.6719,229.4844 791.5625,227.5938 791.5625,225.0156 L791.5625,223.8906 C791.5625,221.1719 793.5625,219.0938 796.1875,219.0938 C797.0625,219.0938 797.6563,219.2344 798.5938,219.6719 Z "/><text fill="#000000" font-family="sans-serif" font-size="12" lengthAdjust="spacingAndGlyphs" textLength="44" x="816.75" y="228.1543">Person</text><line style="stroke: #A80036; stroke-width: 1.5;" x1="726.5" x2="918.5" y1="240" y2="240"/><ellipse cx="736.5" cy="251" fill="#84BE84" rx="3" ry="3" style="stroke: #038048; stroke-width: 1.0;"/><text fill="#000000" font-family="sans-serif" font-size="11" lengthAdjust="spacingAndGlyphs" textLength="168" x="745.5" y="254.2104">init(age:firstName:lastName:)</text><!--MD5=[044d80e6112339a70fe50413576e9bf7]
class Passenger--><rect fill="#FEFECE" height="52.8047" id="Passenger" style="stroke: #A80036; stroke-width: 1.5;" width="390" x="627.5" y="33.5"/><ellipse cx="784.75" cy="49.5" fill="#ADD1B2" rx="11" ry="11" style="stroke: #A80036; stroke-width: 1.0;"/><path d="M787.0938,45.1719 L787.2656,45.25 C787.4844,44.9375 787.6875,44.8438 787.9844,44.8438 C788.2813,44.8438 788.5625,44.9844 788.7188,45.25 C788.8125,45.4063 788.8281,45.5313 788.8281,45.9688 L788.8281,47.3906 C788.8281,47.8125 788.7969,48 788.6875,48.1563 C788.5156,48.375 788.25,48.5156 787.9844,48.5156 C787.7656,48.5156 787.5313,48.4063 787.3906,48.2656 C787.25,48.1406 787.2188,48.0156 787.1563,47.6094 C787.0625,47.2031 786.8906,46.9844 786.4063,46.7031 C785.9375,46.4531 785.3281,46.2969 784.75,46.2969 C783.0156,46.2969 781.7656,47.6094 781.7656,49.3906 L781.7656,50.4844 C781.7656,52.1875 783.0625,53.2813 785.1094,53.2813 C785.875,53.2813 786.5625,53.1563 786.9844,52.8906 C787.1719,52.7969 787.1719,52.7969 787.625,52.3125 C787.8125,52.125 788.0156,52.0469 788.2344,52.0469 C788.7031,52.0469 789.0938,52.4375 789.0938,52.8906 C789.0938,53.2813 788.7656,53.7344 788.1875,54.1406 C787.4375,54.6875 786.2813,54.9844 785.0625,54.9844 C782.1719,54.9844 780.0625,53.0938 780.0625,50.5156 L780.0625,49.3906 C780.0625,46.6719 782.0625,44.5938 784.6875,44.5938 C785.5625,44.5938 786.1563,44.7344 787.0938,45.1719 Z "/><text fill="#000000" font-family="sans-serif" font-size="12" lengthAdjust="spacingAndGlyphs" textLength="67" x="805.25" y="53.6543">Passenger</text><line style="stroke: #A80036; stroke-width: 1.5;" x1="628.5" x2="1016.5" y1="65.5" y2="65.5"/><ellipse cx="638.5" cy="76.5" fill="#84BE84" rx="3" ry="3" style="stroke: #038048; stroke-width: 1.0;"/><text fill="#000000" font-family="sans-serif" font-size="11" lengthAdjust="spacingAndGlyphs" textLength="364" x="647.5" y="79.7104">init(age:firstName:lastName:whereNow:cabinNumber:friendlist:)</text><!--MD5=[4f1f3706c1a355a8488e154afcaed5df]
class Location--><rect fill="#FEFECE" height="91.2188" id="Location" style="stroke: #A80036; stroke-width: 1.5;" width="200" x="1194.5" y="189"/><ellipse cx="1263.75" cy="205" fill="#ADD1B2" rx="11" ry="11" style="stroke: #A80036; stroke-width: 1.0;"/><path d="M1266.0938,200.6719 L1266.2656,200.75 C1266.4844,200.4375 1266.6875,200.3438 1266.9844,200.3438 C1267.2813,200.3438 1267.5625,200.4844 1267.7188,200.75 C1267.8125,200.9063 1267.8281,201.0313 1267.8281,201.4688 L1267.8281,202.8906 C1267.8281,203.3125 1267.7969,203.5 1267.6875,203.6563 C1267.5156,203.875 1267.25,204.0156 1266.9844,204.0156 C1266.7656,204.0156 1266.5313,203.9063 1266.3906,203.7656 C1266.25,203.6406 1266.2188,203.5156 1266.1563,203.1094 C1266.0625,202.7031 1265.8906,202.4844 1265.4063,202.2031 C1264.9375,201.9531 1264.3281,201.7969 1263.75,201.7969 C1262.0156,201.7969 1260.7656,203.1094 1260.7656,204.8906 L1260.7656,205.9844 C1260.7656,207.6875 1262.0625,208.7813 1264.1094,208.7813 C1264.875,208.7813 1265.5625,208.6563 1265.9844,208.3906 C1266.1719,208.2969 1266.1719,208.2969 1266.625,207.8125 C1266.8125,207.625 1267.0156,207.5469 1267.2344,207.5469 C1267.7031,207.5469 1268.0938,207.9375 1268.0938,208.3906 C1268.0938,208.7813 1267.7656,209.2344 1267.1875,209.6406 C1266.4375,210.1875 1265.2813,210.4844 1264.0625,210.4844 C1261.1719,210.4844 1259.0625,208.5938 1259.0625,206.0156 L1259.0625,204.8906 C1259.0625,202.1719 1261.0625,200.0938 1263.6875,200.0938 C1264.5625,200.0938 1265.1563,200.2344 1266.0938,200.6719 Z "/><text fill="#000000" font-family="sans-serif" font-size="12" lengthAdjust="spacingAndGlyphs" textLength="53" x="1284.25" y="209.1543">Location</text><line style="stroke: #A80036; stroke-width: 1.5;" x1="1195.5" x2="1393.5" y1="221" y2="221"/><ellipse cx="1205.5" cy="232" fill="#84BE84" rx="3" ry="3" style="stroke: #038048; stroke-width: 1.0;"/><text fill="#000000" font-family="sans-serif" font-size="11" lengthAdjust="spacingAndGlyphs" textLength="97" x="1214.5" y="235.2104">writeOccupancy()</text><ellipse cx="1205.5" cy="244.8047" fill="#84BE84" rx="3" ry="3" style="stroke: #038048; stroke-width: 1.0;"/><text fill="#000000" font-family="sans-serif" font-size="11" lengthAdjust="spacingAndGlyphs" textLength="82" x="1214.5" y="248.0151">enter(person:)</text><ellipse cx="1205.5" cy="257.6094" fill="#84BE84" rx="3" ry="3" style="stroke: #038048; stroke-width: 1.0;"/><text fill="#000000" font-family="sans-serif" font-size="11" lengthAdjust="spacingAndGlyphs" textLength="126" x="1214.5" y="260.8198">enterAttempt(person:)</text><ellipse cx="1205.5" cy="270.4141" fill="#84BE84" rx="3" ry="3" style="stroke: #038048; stroke-width: 1.0;"/><text fill="#000000" font-family="sans-serif" font-size="11" lengthAdjust="spacingAndGlyphs" textLength="174" x="1214.5" y="273.6245">init(capacity:occupancy:name:)</text><!--MD5=[25e2fb7615be8e8235c93ad75197cd6f]
class Cabin--><rect fill="#FEFECE" height="78.4141" id="Cabin" style="stroke: #A80036; stroke-width: 1.5;" width="248" x="1052.5" y="21"/><ellipse cx="1154.75" cy="37" fill="#ADD1B2" rx="11" ry="11" style="stroke: #A80036; stroke-width: 1.0;"/><path d="M1157.0938,32.6719 L1157.2656,32.75 C1157.4844,32.4375 1157.6875,32.3438 1157.9844,32.3438 C1158.2813,32.3438 1158.5625,32.4844 1158.7188,32.75 C1158.8125,32.9063 1158.8281,33.0313 1158.8281,33.4688 L1158.8281,34.8906 C1158.8281,35.3125 1158.7969,35.5 1158.6875,35.6563 C1158.5156,35.875 1158.25,36.0156 1157.9844,36.0156 C1157.7656,36.0156 1157.5313,35.9063 1157.3906,35.7656 C1157.25,35.6406 1157.2188,35.5156 1157.1563,35.1094 C1157.0625,34.7031 1156.8906,34.4844 1156.4063,34.2031 C1155.9375,33.9531 1155.3281,33.7969 1154.75,33.7969 C1153.0156,33.7969 1151.7656,35.1094 1151.7656,36.8906 L1151.7656,37.9844 C1151.7656,39.6875 1153.0625,40.7813 1155.1094,40.7813 C1155.875,40.7813 1156.5625,40.6563 1156.9844,40.3906 C1157.1719,40.2969 1157.1719,40.2969 1157.625,39.8125 C1157.8125,39.625 1158.0156,39.5469 1158.2344,39.5469 C1158.7031,39.5469 1159.0938,39.9375 1159.0938,40.3906 C1159.0938,40.7813 1158.7656,41.2344 1158.1875,41.6406 C1157.4375,42.1875 1156.2813,42.4844 1155.0625,42.4844 C1152.1719,42.4844 1150.0625,40.5938 1150.0625,38.0156 L1150.0625,36.8906 C1150.0625,34.1719 1152.0625,32.0938 1154.6875,32.0938 C1155.5625,32.0938 1156.1563,32.2344 1157.0938,32.6719 Z "/><text fill="#000000" font-family="sans-serif" font-size="12" lengthAdjust="spacingAndGlyphs" textLength="35" x="1175.25" y="41.1543">Cabin</text><line style="stroke: #A80036; stroke-width: 1.5;" x1="1053.5" x2="1299.5" y1="53" y2="53"/><ellipse cx="1063.5" cy="64" fill="#84BE84" rx="3" ry="3" style="stroke: #038048; stroke-width: 1.0;"/><text fill="#000000" font-family="sans-serif" font-size="11" lengthAdjust="spacingAndGlyphs" textLength="90" x="1072.5" y="67.2104">assign(person:)</text><ellipse cx="1063.5" cy="76.8047" fill="#84BE84" rx="3" ry="3" style="stroke: #038048; stroke-width: 1.0;"/><text fill="#000000" font-family="sans-serif" font-size="11" lengthAdjust="spacingAndGlyphs" textLength="126" x="1072.5" y="80.0151">enterAttempt(person:)</text><ellipse cx="1063.5" cy="89.6094" fill="#84BE84" rx="3" ry="3" style="stroke: #038048; stroke-width: 1.0;"/><text fill="#000000" font-family="sans-serif" font-size="11" lengthAdjust="spacingAndGlyphs" textLength="222" x="1072.5" y="92.8198">init(capacity:occupancy:name:number:)</text><!--MD5=[fea15f7924bd848149aeb562f3a4d86b]
class Bar--><rect fill="#FEFECE" height="52.8047" id="Bar" style="stroke: #A80036; stroke-width: 1.5;" width="152" x="1335.5" y="33.5"/><ellipse cx="1396.75" cy="49.5" fill="#ADD1B2" rx="11" ry="11" style="stroke: #A80036; stroke-width: 1.0;"/><path d="M1399.0938,45.1719 L1399.2656,45.25 C1399.4844,44.9375 1399.6875,44.8438 1399.9844,44.8438 C1400.2813,44.8438 1400.5625,44.9844 1400.7188,45.25 C1400.8125,45.4063 1400.8281,45.5313 1400.8281,45.9688 L1400.8281,47.3906 C1400.8281,47.8125 1400.7969,48 1400.6875,48.1563 C1400.5156,48.375 1400.25,48.5156 1399.9844,48.5156 C1399.7656,48.5156 1399.5313,48.4063 1399.3906,48.2656 C1399.25,48.1406 1399.2188,48.0156 1399.1563,47.6094 C1399.0625,47.2031 1398.8906,46.9844 1398.4063,46.7031 C1397.9375,46.4531 1397.3281,46.2969 1396.75,46.2969 C1395.0156,46.2969 1393.7656,47.6094 1393.7656,49.3906 L1393.7656,50.4844 C1393.7656,52.1875 1395.0625,53.2813 1397.1094,53.2813 C1397.875,53.2813 1398.5625,53.1563 1398.9844,52.8906 C1399.1719,52.7969 1399.1719,52.7969 1399.625,52.3125 C1399.8125,52.125 1400.0156,52.0469 1400.2344,52.0469 C1400.7031,52.0469 1401.0938,52.4375 1401.0938,52.8906 C1401.0938,53.2813 1400.7656,53.7344 1400.1875,54.1406 C1399.4375,54.6875 1398.2813,54.9844 1397.0625,54.9844 C1394.1719,54.9844 1392.0625,53.0938 1392.0625,50.5156 L1392.0625,49.3906 C1392.0625,46.6719 1394.0625,44.5938 1396.6875,44.5938 C1397.5625,44.5938 1398.1563,44.7344 1399.0938,45.1719 Z "/><text fill="#000000" font-family="sans-serif" font-size="12" lengthAdjust="spacingAndGlyphs" textLength="21" x="1417.25" y="53.6543">Bar</text><line style="stroke: #A80036; stroke-width: 1.5;" x1="1336.5" x2="1486.5" y1="65.5" y2="65.5"/><ellipse cx="1346.5" cy="76.5" fill="#84BE84" rx="3" ry="3" style="stroke: #038048; stroke-width: 1.0;"/><text fill="#000000" font-family="sans-serif" font-size="11" lengthAdjust="spacingAndGlyphs" textLength="126" x="1355.5" y="79.7104">enterAttempt(person:)</text><!--MD5=[29e618428062bfb606f20bbed4cc61cb]
link Passenger to Person--><path d="M822.5,86.825 C822.5,113.324 822.5,155.114 822.5,187.3208 " fill="none" id="Passenger-&gt;Person" style="stroke: #A80036; stroke-width: 1.0;"/><polygon fill="none" points="829.5,187.7806,822.5,207.7806,815.5,187.7805,829.5,187.7806" style="stroke: #A80036; stroke-width: 1.0;"/><text fill="#000000" font-family="sans-serif" font-size="13" lengthAdjust="spacingAndGlyphs" textLength="47" x="823.5" y="155.0669">inherits</text><!--MD5=[e350aa90446aafd4aa4992b127128f33]
link Cabin to Location--><path d="M1202.69,99.283 C1217.35,120.713 1235.97,147.934 1252.6,172.253 " fill="none" id="Cabin-&gt;Location" style="stroke: #A80036; stroke-width: 1.0;"/><polygon fill="none" points="1258.49,168.46,1264,188.9193,1246.93,176.364,1258.49,168.46" style="stroke: #A80036; stroke-width: 1.0;"/><text fill="#000000" font-family="sans-serif" font-size="13" lengthAdjust="spacingAndGlyphs" textLength="47" x="1243.5" y="155.0669">inherits</text><!--MD5=[ad90a52800e088da11220c220908955d]
link Bar to Location--><path d="M1393.98,86.825 C1378.74,109.295 1356.04,142.762 1336.18,172.056 " fill="none" id="Bar-&gt;Location" style="stroke: #A80036; stroke-width: 1.0;"/><polygon fill="none" points="1341.9,176.084,1324.88,188.707,1330.31,168.226,1341.9,176.084" style="stroke: #A80036; stroke-width: 1.0;"/><text fill="#000000" font-family="sans-serif" font-size="13" lengthAdjust="spacingAndGlyphs" textLength="47" x="1357.5" y="155.0669">inherits</text><!--MD5=[407cb233eb501fbae34d41c31639168f]
@startuml
hide empty members
skinparam shadowing false
class "Ship" as Ship {
  +init(locations:passengerList:crewList:engines:)

}
class "Engine" as Engine {
  +switchState()
  +turn(person:toON:stateName:stateDesc:)
  +turnOff(person:)
  +turnOn(person:)
  +init(name:kHP:isActive:)

}
class "Person" as Person {
  +init(age:firstName:lastName:)

}
class "Passenger" as Passenger {
  +init(age:firstName:lastName:whereNow:cabinNumber:friendlist:)

}
class "Location" as Location {
  +writeOccupancy()
  +enter(person:)
  +enterAttempt(person:)
  +init(capacity:occupancy:name:)

}
class "Cabin" as Cabin {
  +assign(person:)
  +enterAttempt(person:)
  +init(capacity:occupancy:name:number:)

}
class "Bar" as Bar {
  +enterAttempt(person:)

}

Passenger - -|> Person : inherits
Cabin - -|> Location : inherits
Bar - -|> Location : inherits
@enduml

PlantUML version 1.2020.02(Sun Mar 01 10:22:07 UTC 2020)
(GPL source distribution)
Java Runtime: Java(TM) SE Runtime Environment
JVM: Java HotSpot(TM) 64-Bit Server VM
Java Version: 1.7.0_25-b15
Operating System: Linux
Default Encoding: UTF-8
Language: en
Country: US
--></g></svg>