<?xml version="1.0" encoding="UTF-8" standalone="no"?><svg xmlns="http://www.w3.org/2000/svg" xmlns:xlink="http://www.w3.org/1999/xlink" contentScriptType="application/ecmascript" contentStyleType="text/css" height="184px" preserveAspectRatio="none" style="width:592px;height:184px;" version="1.1" viewBox="0 0 592 184" width="592px" zoomAndPan="magnify"><defs/><g><!--MD5=[0dc7f2ddb409b58bcf52b12238c25399]
class Ship--><rect fill="#FEFECE" height="52.8047" id="Ship" style="stroke: #A80036; stroke-width: 1.5;" width="87" x="55.5" y="8"/><ellipse cx="83.1" cy="24" fill="#ADD1B2" rx="11" ry="11" style="stroke: #A80036; stroke-width: 1.0;"/><path d="M85.4438,19.6719 L85.6156,19.75 C85.8344,19.4375 86.0375,19.3438 86.3344,19.3438 C86.6313,19.3438 86.9125,19.4844 87.0688,19.75 C87.1625,19.9063 87.1781,20.0313 87.1781,20.4688 L87.1781,21.8906 C87.1781,22.3125 87.1469,22.5 87.0375,22.6563 C86.8656,22.875 86.6,23.0156 86.3344,23.0156 C86.1156,23.0156 85.8813,22.9063 85.7406,22.7656 C85.6,22.6406 85.5688,22.5156 85.5063,22.1094 C85.4125,21.7031 85.2406,21.4844 84.7563,21.2031 C84.2875,20.9531 83.6781,20.7969 83.1,20.7969 C81.3656,20.7969 80.1156,22.1094 80.1156,23.8906 L80.1156,24.9844 C80.1156,26.6875 81.4125,27.7813 83.4594,27.7813 C84.225,27.7813 84.9125,27.6563 85.3344,27.3906 C85.5219,27.2969 85.5219,27.2969 85.975,26.8125 C86.1625,26.625 86.3656,26.5469 86.5844,26.5469 C87.0531,26.5469 87.4438,26.9375 87.4438,27.3906 C87.4438,27.7813 87.1156,28.2344 86.5375,28.6406 C85.7875,29.1875 84.6313,29.4844 83.4125,29.4844 C80.5219,29.4844 78.4125,27.5938 78.4125,25.0156 L78.4125,23.8906 C78.4125,21.1719 80.4125,19.0938 83.0375,19.0938 C83.9125,19.0938 84.5063,19.2344 85.4438,19.6719 Z "/><text fill="#000000" font-family="sans-serif" font-size="12" lengthAdjust="spacingAndGlyphs" textLength="27" x="99.9" y="28.1543">Ship</text><line style="stroke: #A80036; stroke-width: 1.5;" x1="56.5" x2="141.5" y1="40" y2="40"/><ellipse cx="66.5" cy="51" fill="#84BE84" rx="3" ry="3" style="stroke: #038048; stroke-width: 1.0;"/><text fill="#000000" font-family="sans-serif" font-size="11" lengthAdjust="spacingAndGlyphs" textLength="61" x="75.5" y="54.2104">init(name:)</text><!--MD5=[714a323ea803c80dd4dfd42b424b55c8]
class Restaurant--><rect fill="#FEFECE" height="52.8047" id="Restaurant" style="stroke: #A80036; stroke-width: 1.5;" width="160" x="178" y="8"/><ellipse cx="219.1" cy="24" fill="#ADD1B2" rx="11" ry="11" style="stroke: #A80036; stroke-width: 1.0;"/><path d="M221.4438,19.6719 L221.6156,19.75 C221.8344,19.4375 222.0375,19.3438 222.3344,19.3438 C222.6313,19.3438 222.9125,19.4844 223.0688,19.75 C223.1625,19.9063 223.1781,20.0313 223.1781,20.4688 L223.1781,21.8906 C223.1781,22.3125 223.1469,22.5 223.0375,22.6563 C222.8656,22.875 222.6,23.0156 222.3344,23.0156 C222.1156,23.0156 221.8813,22.9063 221.7406,22.7656 C221.6,22.6406 221.5688,22.5156 221.5063,22.1094 C221.4125,21.7031 221.2406,21.4844 220.7563,21.2031 C220.2875,20.9531 219.6781,20.7969 219.1,20.7969 C217.3656,20.7969 216.1156,22.1094 216.1156,23.8906 L216.1156,24.9844 C216.1156,26.6875 217.4125,27.7813 219.4594,27.7813 C220.225,27.7813 220.9125,27.6563 221.3344,27.3906 C221.5219,27.2969 221.5219,27.2969 221.975,26.8125 C222.1625,26.625 222.3656,26.5469 222.5844,26.5469 C223.0531,26.5469 223.4438,26.9375 223.4438,27.3906 C223.4438,27.7813 223.1156,28.2344 222.5375,28.6406 C221.7875,29.1875 220.6313,29.4844 219.4125,29.4844 C216.5219,29.4844 214.4125,27.5938 214.4125,25.0156 L214.4125,23.8906 C214.4125,21.1719 216.4125,19.0938 219.0375,19.0938 C219.9125,19.0938 220.5063,19.2344 221.4438,19.6719 Z "/><text fill="#000000" font-family="sans-serif" font-size="12" lengthAdjust="spacingAndGlyphs" textLength="70" x="238.9" y="28.1543">Restaurant</text><line style="stroke: #A80036; stroke-width: 1.5;" x1="179" x2="337" y1="40" y2="40"/><ellipse cx="189" cy="51" fill="#84BE84" rx="3" ry="3" style="stroke: #038048; stroke-width: 1.0;"/><text fill="#000000" font-family="sans-serif" font-size="11" lengthAdjust="spacingAndGlyphs" textLength="134" x="198" y="54.2104">init(restName:restCap:)</text><!--MD5=[fea15f7924bd848149aeb562f3a4d86b]
class Bar--><rect fill="#FEFECE" height="52.8047" id="Bar" style="stroke: #A80036; stroke-width: 1.5;" width="152" x="373" y="8"/><ellipse cx="434.25" cy="24" fill="#ADD1B2" rx="11" ry="11" style="stroke: #A80036; stroke-width: 1.0;"/><path d="M436.5938,19.6719 L436.7656,19.75 C436.9844,19.4375 437.1875,19.3438 437.4844,19.3438 C437.7813,19.3438 438.0625,19.4844 438.2188,19.75 C438.3125,19.9063 438.3281,20.0313 438.3281,20.4688 L438.3281,21.8906 C438.3281,22.3125 438.2969,22.5 438.1875,22.6563 C438.0156,22.875 437.75,23.0156 437.4844,23.0156 C437.2656,23.0156 437.0313,22.9063 436.8906,22.7656 C436.75,22.6406 436.7188,22.5156 436.6563,22.1094 C436.5625,21.7031 436.3906,21.4844 435.9063,21.2031 C435.4375,20.9531 434.8281,20.7969 434.25,20.7969 C432.5156,20.7969 431.2656,22.1094 431.2656,23.8906 L431.2656,24.9844 C431.2656,26.6875 432.5625,27.7813 434.6094,27.7813 C435.375,27.7813 436.0625,27.6563 436.4844,27.3906 C436.6719,27.2969 436.6719,27.2969 437.125,26.8125 C437.3125,26.625 437.5156,26.5469 437.7344,26.5469 C438.2031,26.5469 438.5938,26.9375 438.5938,27.3906 C438.5938,27.7813 438.2656,28.2344 437.6875,28.6406 C436.9375,29.1875 435.7813,29.4844 434.5625,29.4844 C431.6719,29.4844 429.5625,27.5938 429.5625,25.0156 L429.5625,23.8906 C429.5625,21.1719 431.5625,19.0938 434.1875,19.0938 C435.0625,19.0938 435.6563,19.2344 436.5938,19.6719 Z "/><text fill="#000000" font-family="sans-serif" font-size="12" lengthAdjust="spacingAndGlyphs" textLength="21" x="454.75" y="28.1543">Bar</text><line style="stroke: #A80036; stroke-width: 1.5;" x1="374" x2="524" y1="40" y2="40"/><ellipse cx="384" cy="51" fill="#84BE84" rx="3" ry="3" style="stroke: #038048; stroke-width: 1.0;"/><text fill="#000000" font-family="sans-serif" font-size="11" lengthAdjust="spacingAndGlyphs" textLength="126" x="393" y="54.2104">init(barName:barCap:)</text><!--MD5=[25e2fb7615be8e8235c93ad75197cd6f]
class Cabin--><rect fill="#FEFECE" height="52.8047" id="Cabin" style="stroke: #A80036; stroke-width: 1.5;" width="186" x="6" y="121"/><ellipse cx="77.25" cy="137" fill="#ADD1B2" rx="11" ry="11" style="stroke: #A80036; stroke-width: 1.0;"/><path d="M79.5938,132.6719 L79.7656,132.75 C79.9844,132.4375 80.1875,132.3438 80.4844,132.3438 C80.7813,132.3438 81.0625,132.4844 81.2188,132.75 C81.3125,132.9063 81.3281,133.0313 81.3281,133.4688 L81.3281,134.8906 C81.3281,135.3125 81.2969,135.5 81.1875,135.6563 C81.0156,135.875 80.75,136.0156 80.4844,136.0156 C80.2656,136.0156 80.0313,135.9063 79.8906,135.7656 C79.75,135.6406 79.7188,135.5156 79.6563,135.1094 C79.5625,134.7031 79.3906,134.4844 78.9063,134.2031 C78.4375,133.9531 77.8281,133.7969 77.25,133.7969 C75.5156,133.7969 74.2656,135.1094 74.2656,136.8906 L74.2656,137.9844 C74.2656,139.6875 75.5625,140.7813 77.6094,140.7813 C78.375,140.7813 79.0625,140.6563 79.4844,140.3906 C79.6719,140.2969 79.6719,140.2969 80.125,139.8125 C80.3125,139.625 80.5156,139.5469 80.7344,139.5469 C81.2031,139.5469 81.5938,139.9375 81.5938,140.3906 C81.5938,140.7813 81.2656,141.2344 80.6875,141.6406 C79.9375,142.1875 78.7813,142.4844 77.5625,142.4844 C74.6719,142.4844 72.5625,140.5938 72.5625,138.0156 L72.5625,136.8906 C72.5625,134.1719 74.5625,132.0938 77.1875,132.0938 C78.0625,132.0938 78.6563,132.2344 79.5938,132.6719 Z "/><text fill="#000000" font-family="sans-serif" font-size="12" lengthAdjust="spacingAndGlyphs" textLength="35" x="97.75" y="141.1543">Cabin</text><line style="stroke: #A80036; stroke-width: 1.5;" x1="7" x2="191" y1="153" y2="153"/><ellipse cx="17" cy="164" fill="#84BE84" rx="3" ry="3" style="stroke: #038048; stroke-width: 1.0;"/><text fill="#000000" font-family="sans-serif" font-size="11" lengthAdjust="spacingAndGlyphs" textLength="160" x="26" y="167.2104">init(cabinNumber:cabinCap:)</text><!--MD5=[c86ce95fe6226f2d2796c0513d8e83fe]
class Engine--><rect fill="#FEFECE" height="52.8047" id="Engine" style="stroke: #A80036; stroke-width: 1.5;" width="144" x="227" y="121"/><ellipse cx="273.25" cy="137" fill="#ADD1B2" rx="11" ry="11" style="stroke: #A80036; stroke-width: 1.0;"/><path d="M275.5938,132.6719 L275.7656,132.75 C275.9844,132.4375 276.1875,132.3438 276.4844,132.3438 C276.7813,132.3438 277.0625,132.4844 277.2188,132.75 C277.3125,132.9063 277.3281,133.0313 277.3281,133.4688 L277.3281,134.8906 C277.3281,135.3125 277.2969,135.5 277.1875,135.6563 C277.0156,135.875 276.75,136.0156 276.4844,136.0156 C276.2656,136.0156 276.0313,135.9063 275.8906,135.7656 C275.75,135.6406 275.7188,135.5156 275.6563,135.1094 C275.5625,134.7031 275.3906,134.4844 274.9063,134.2031 C274.4375,133.9531 273.8281,133.7969 273.25,133.7969 C271.5156,133.7969 270.2656,135.1094 270.2656,136.8906 L270.2656,137.9844 C270.2656,139.6875 271.5625,140.7813 273.6094,140.7813 C274.375,140.7813 275.0625,140.6563 275.4844,140.3906 C275.6719,140.2969 275.6719,140.2969 276.125,139.8125 C276.3125,139.625 276.5156,139.5469 276.7344,139.5469 C277.2031,139.5469 277.5938,139.9375 277.5938,140.3906 C277.5938,140.7813 277.2656,141.2344 276.6875,141.6406 C275.9375,142.1875 274.7813,142.4844 273.5625,142.4844 C270.6719,142.4844 268.5625,140.5938 268.5625,138.0156 L268.5625,136.8906 C268.5625,134.1719 270.5625,132.0938 273.1875,132.0938 C274.0625,132.0938 274.6563,132.2344 275.5938,132.6719 Z "/><text fill="#000000" font-family="sans-serif" font-size="12" lengthAdjust="spacingAndGlyphs" textLength="43" x="293.75" y="141.1543">Engine</text><line style="stroke: #A80036; stroke-width: 1.5;" x1="228" x2="370" y1="153" y2="153"/><ellipse cx="238" cy="164" fill="#84BE84" rx="3" ry="3" style="stroke: #038048; stroke-width: 1.0;"/><text fill="#000000" font-family="sans-serif" font-size="11" lengthAdjust="spacingAndGlyphs" textLength="118" x="247" y="167.2104">init(twokHP:fourkHP:)</text><!--MD5=[09ce52be0ee7de43c61b6e2d59bf108b]
class Person--><rect fill="#FEFECE" height="52.8047" id="Person" style="stroke: #A80036; stroke-width: 1.5;" width="175" x="406.5" y="121"/><ellipse cx="467.75" cy="137" fill="#ADD1B2" rx="11" ry="11" style="stroke: #A80036; stroke-width: 1.0;"/><path d="M470.0938,132.6719 L470.2656,132.75 C470.4844,132.4375 470.6875,132.3438 470.9844,132.3438 C471.2813,132.3438 471.5625,132.4844 471.7188,132.75 C471.8125,132.9063 471.8281,133.0313 471.8281,133.4688 L471.8281,134.8906 C471.8281,135.3125 471.7969,135.5 471.6875,135.6563 C471.5156,135.875 471.25,136.0156 470.9844,136.0156 C470.7656,136.0156 470.5313,135.9063 470.3906,135.7656 C470.25,135.6406 470.2188,135.5156 470.1563,135.1094 C470.0625,134.7031 469.8906,134.4844 469.4063,134.2031 C468.9375,133.9531 468.3281,133.7969 467.75,133.7969 C466.0156,133.7969 464.7656,135.1094 464.7656,136.8906 L464.7656,137.9844 C464.7656,139.6875 466.0625,140.7813 468.1094,140.7813 C468.875,140.7813 469.5625,140.6563 469.9844,140.3906 C470.1719,140.2969 470.1719,140.2969 470.625,139.8125 C470.8125,139.625 471.0156,139.5469 471.2344,139.5469 C471.7031,139.5469 472.0938,139.9375 472.0938,140.3906 C472.0938,140.7813 471.7656,141.2344 471.1875,141.6406 C470.4375,142.1875 469.2813,142.4844 468.0625,142.4844 C465.1719,142.4844 463.0625,140.5938 463.0625,138.0156 L463.0625,136.8906 C463.0625,134.1719 465.0625,132.0938 467.6875,132.0938 C468.5625,132.0938 469.1563,132.2344 470.0938,132.6719 Z "/><text fill="#000000" font-family="sans-serif" font-size="12" lengthAdjust="spacingAndGlyphs" textLength="44" x="488.25" y="141.1543">Person</text><line style="stroke: #A80036; stroke-width: 1.5;" x1="407.5" x2="580.5" y1="153" y2="153"/><ellipse cx="417.5" cy="164" fill="#84BE84" rx="3" ry="3" style="stroke: #038048; stroke-width: 1.0;"/><text fill="#000000" font-family="sans-serif" font-size="11" lengthAdjust="spacingAndGlyphs" textLength="149" x="426.5" y="167.2104">init(age:personalNumber:)</text><!--MD5=[02adb84b1ad480b054c962291e5dd387]
link Ship to Restaurant--><!--MD5=[9247d56e77c1d01d7d7983fd672b419d]
link Restaurant to Bar--><!--MD5=[cae9080dd591e66e0e555dfa0a30af69]
link Ship to Cabin--><!--MD5=[fe5d28af34325289ff80efcfcc9af8b3]
link Cabin to Engine--><!--MD5=[f66603a3588e645552567830130b3188]
link Engine to Person--><!--MD5=[e4cad4cfb2d844e11d8dde9767bd30ac]
@startuml
hide empty members
skinparam shadowing false
class "Ship" as Ship {
  +init(name:)

}
class "Restaurant" as Restaurant {
  +init(restName:restCap:)

}
class "Bar" as Bar {
  +init(barName:barCap:)

}
class "Cabin" as Cabin {
  +init(cabinNumber:cabinCap:)

}
class "Engine" as Engine {
  +init(twokHP:fourkHP:)

}
class "Person" as Person {
  +init(age:personalNumber:)

}
@enduml

PlantUML version 1.2020.02(Sun Mar 01 10:22:07 UTC 2020)
(GPL source distribution)
Java Runtime: Java(TM) SE Runtime Environment
JVM: Java HotSpot(TM) 64-Bit Server VM
Java Version: 1.7.0_25-b15
Operating System: Linux
Default Encoding: UTF-8
Language: en
Country: US
--></g></svg>