<?xml version="1.0" encoding="UTF-8" standalone="no"?><svg xmlns="http://www.w3.org/2000/svg" xmlns:xlink="http://www.w3.org/1999/xlink" contentScriptType="application/ecmascript" contentStyleType="text/css" height="329px" preserveAspectRatio="none" style="width:1435px;height:329px;" version="1.1" viewBox="0 0 1435 329" width="1435px" zoomAndPan="magnify"><defs/><g><!--MD5=[382e924f5f31ac411066b77ea0c393cf]
class ShipEngine--><rect fill="#FEFECE" height="91.2188" id="ShipEngine" style="stroke: #A80036; stroke-width: 1.5;" width="139" x="26.5" y="33.5"/><ellipse cx="58.15" cy="49.5" fill="#ADD1B2" rx="11" ry="11" style="stroke: #A80036; stroke-width: 1.0;"/><path d="M60.4938,45.1719 L60.6656,45.25 C60.8844,44.9375 61.0875,44.8438 61.3844,44.8438 C61.6813,44.8438 61.9625,44.9844 62.1188,45.25 C62.2125,45.4063 62.2281,45.5313 62.2281,45.9688 L62.2281,47.3906 C62.2281,47.8125 62.1969,48 62.0875,48.1563 C61.9156,48.375 61.65,48.5156 61.3844,48.5156 C61.1656,48.5156 60.9313,48.4063 60.7906,48.2656 C60.65,48.1406 60.6188,48.0156 60.5563,47.6094 C60.4625,47.2031 60.2906,46.9844 59.8063,46.7031 C59.3375,46.4531 58.7281,46.2969 58.15,46.2969 C56.4156,46.2969 55.1656,47.6094 55.1656,49.3906 L55.1656,50.4844 C55.1656,52.1875 56.4625,53.2813 58.5094,53.2813 C59.275,53.2813 59.9625,53.1563 60.3844,52.8906 C60.5719,52.7969 60.5719,52.7969 61.025,52.3125 C61.2125,52.125 61.4156,52.0469 61.6344,52.0469 C62.1031,52.0469 62.4938,52.4375 62.4938,52.8906 C62.4938,53.2813 62.1656,53.7344 61.5875,54.1406 C60.8375,54.6875 59.6813,54.9844 58.4625,54.9844 C55.5719,54.9844 53.4625,53.0938 53.4625,50.5156 L53.4625,49.3906 C53.4625,46.6719 55.4625,44.5938 58.0875,44.5938 C58.9625,44.5938 59.5563,44.7344 60.4938,45.1719 Z "/><text fill="#000000" font-family="sans-serif" font-size="12" lengthAdjust="spacingAndGlyphs" textLength="70" x="75.85" y="53.6543">ShipEngine</text><line style="stroke: #A80036; stroke-width: 1.5;" x1="27.5" x2="164.5" y1="65.5" y2="65.5"/><ellipse cx="37.5" cy="76.5" fill="#84BE84" rx="3" ry="3" style="stroke: #038048; stroke-width: 1.0;"/><text fill="#000000" font-family="sans-serif" font-size="11" lengthAdjust="spacingAndGlyphs" textLength="25" x="46.5" y="79.7104">init()</text><ellipse cx="37.5" cy="89.3047" fill="#84BE84" rx="3" ry="3" style="stroke: #038048; stroke-width: 1.0;"/><text fill="#000000" font-family="sans-serif" font-size="11" lengthAdjust="spacingAndGlyphs" textLength="109" x="46.5" y="92.5151">addEngine(engine:)</text><ellipse cx="37.5" cy="102.1094" fill="#84BE84" rx="3" ry="3" style="stroke: #038048; stroke-width: 1.0;"/><text fill="#000000" font-family="sans-serif" font-size="11" lengthAdjust="spacingAndGlyphs" textLength="107" x="46.5" y="105.3198">runEngine(engine:)</text><ellipse cx="37.5" cy="114.9141" fill="#84BE84" rx="3" ry="3" style="stroke: #038048; stroke-width: 1.0;"/><text fill="#000000" font-family="sans-serif" font-size="11" lengthAdjust="spacingAndGlyphs" textLength="113" x="46.5" y="118.1245">stopEngine(engine:)</text><!--MD5=[0dc7f2ddb409b58bcf52b12238c25399]
class Ship--><rect fill="#FEFECE" height="78.4141" id="Ship" style="stroke: #A80036; stroke-width: 1.5;" width="188" x="201" y="40"/><ellipse cx="277.25" cy="56" fill="#ADD1B2" rx="11" ry="11" style="stroke: #A80036; stroke-width: 1.0;"/><path d="M279.5938,51.6719 L279.7656,51.75 C279.9844,51.4375 280.1875,51.3438 280.4844,51.3438 C280.7813,51.3438 281.0625,51.4844 281.2188,51.75 C281.3125,51.9063 281.3281,52.0313 281.3281,52.4688 L281.3281,53.8906 C281.3281,54.3125 281.2969,54.5 281.1875,54.6563 C281.0156,54.875 280.75,55.0156 280.4844,55.0156 C280.2656,55.0156 280.0313,54.9063 279.8906,54.7656 C279.75,54.6406 279.7188,54.5156 279.6563,54.1094 C279.5625,53.7031 279.3906,53.4844 278.9063,53.2031 C278.4375,52.9531 277.8281,52.7969 277.25,52.7969 C275.5156,52.7969 274.2656,54.1094 274.2656,55.8906 L274.2656,56.9844 C274.2656,58.6875 275.5625,59.7813 277.6094,59.7813 C278.375,59.7813 279.0625,59.6563 279.4844,59.3906 C279.6719,59.2969 279.6719,59.2969 280.125,58.8125 C280.3125,58.625 280.5156,58.5469 280.7344,58.5469 C281.2031,58.5469 281.5938,58.9375 281.5938,59.3906 C281.5938,59.7813 281.2656,60.2344 280.6875,60.6406 C279.9375,61.1875 278.7813,61.4844 277.5625,61.4844 C274.6719,61.4844 272.5625,59.5938 272.5625,57.0156 L272.5625,55.8906 C272.5625,53.1719 274.5625,51.0938 277.1875,51.0938 C278.0625,51.0938 278.6563,51.2344 279.5938,51.6719 Z "/><text fill="#000000" font-family="sans-serif" font-size="12" lengthAdjust="spacingAndGlyphs" textLength="27" x="297.75" y="60.1543">Ship</text><line style="stroke: #A80036; stroke-width: 1.5;" x1="202" x2="388" y1="72" y2="72"/><ellipse cx="212" cy="83" fill="#84BE84" rx="3" ry="3" style="stroke: #038048; stroke-width: 1.0;"/><text fill="#000000" font-family="sans-serif" font-size="11" lengthAdjust="spacingAndGlyphs" textLength="25" x="221" y="86.2104">init()</text><rect fill="#F24D5C" height="6" style="stroke: #C82930; stroke-width: 1.0;" width="6" x="209" y="92.8047"/><text fill="#000000" font-family="sans-serif" font-size="11" lengthAdjust="spacingAndGlyphs" textLength="76" x="221" y="99.0151">createCabin()</text><ellipse cx="212" cy="108.6094" fill="#84BE84" rx="3" ry="3" style="stroke: #038048; stroke-width: 1.0;"/><text fill="#000000" font-family="sans-serif" font-size="11" lengthAdjust="spacingAndGlyphs" textLength="162" x="221" y="111.8198">freeCabin(numberOfPeople:)</text><!--MD5=[dbb8b4f13c7b21394f9d757e58732f45]
class Service--><rect fill="#FEFECE" height="142.4375" id="Service" style="stroke: #A80036; stroke-width: 1.5;" width="216" x="424" y="8"/><ellipse cx="505.25" cy="24" fill="#ADD1B2" rx="11" ry="11" style="stroke: #A80036; stroke-width: 1.0;"/><path d="M507.5938,19.6719 L507.7656,19.75 C507.9844,19.4375 508.1875,19.3438 508.4844,19.3438 C508.7813,19.3438 509.0625,19.4844 509.2188,19.75 C509.3125,19.9063 509.3281,20.0313 509.3281,20.4688 L509.3281,21.8906 C509.3281,22.3125 509.2969,22.5 509.1875,22.6563 C509.0156,22.875 508.75,23.0156 508.4844,23.0156 C508.2656,23.0156 508.0313,22.9063 507.8906,22.7656 C507.75,22.6406 507.7188,22.5156 507.6563,22.1094 C507.5625,21.7031 507.3906,21.4844 506.9063,21.2031 C506.4375,20.9531 505.8281,20.7969 505.25,20.7969 C503.5156,20.7969 502.2656,22.1094 502.2656,23.8906 L502.2656,24.9844 C502.2656,26.6875 503.5625,27.7813 505.6094,27.7813 C506.375,27.7813 507.0625,27.6563 507.4844,27.3906 C507.6719,27.2969 507.6719,27.2969 508.125,26.8125 C508.3125,26.625 508.5156,26.5469 508.7344,26.5469 C509.2031,26.5469 509.5938,26.9375 509.5938,27.3906 C509.5938,27.7813 509.2656,28.2344 508.6875,28.6406 C507.9375,29.1875 506.7813,29.4844 505.5625,29.4844 C502.6719,29.4844 500.5625,27.5938 500.5625,25.0156 L500.5625,23.8906 C500.5625,21.1719 502.5625,19.0938 505.1875,19.0938 C506.0625,19.0938 506.6563,19.2344 507.5938,19.6719 Z "/><text fill="#000000" font-family="sans-serif" font-size="12" lengthAdjust="spacingAndGlyphs" textLength="45" x="525.75" y="28.1543">Service</text><line style="stroke: #A80036; stroke-width: 1.5;" x1="425" x2="639" y1="40" y2="40"/><rect fill="#F24D5C" height="6" style="stroke: #C82930; stroke-width: 1.0;" width="6" x="432" y="48"/><text fill="#000000" font-family="sans-serif" font-size="11" lengthAdjust="spacingAndGlyphs" textLength="25" x="444" y="54.2104">init()</text><rect fill="#F24D5C" height="6" style="stroke: #C82930; stroke-width: 1.0;" width="6" x="432" y="60.8047"/><text fill="#000000" font-family="sans-serif" font-size="11" lengthAdjust="spacingAndGlyphs" textLength="190" x="444" y="67.0151">addPersontoACabin(guestToAdd:)</text><rect fill="#F24D5C" height="6" style="stroke: #C82930; stroke-width: 1.0;" width="6" x="432" y="73.6094"/><text fill="#000000" font-family="sans-serif" font-size="11" lengthAdjust="spacingAndGlyphs" textLength="93" x="444" y="79.8198">runEngine(type:)</text><rect fill="#F24D5C" height="6" style="stroke: #C82930; stroke-width: 1.0;" width="6" x="432" y="86.4141"/><text fill="#000000" font-family="sans-serif" font-size="11" lengthAdjust="spacingAndGlyphs" textLength="99" x="444" y="92.6245">stopEngine(type:)</text><rect fill="#F24D5C" height="6" style="stroke: #C82930; stroke-width: 1.0;" width="6" x="432" y="99.2188"/><text fill="#000000" font-family="sans-serif" font-size="11" lengthAdjust="spacingAndGlyphs" textLength="130" x="444" y="105.4292">enterBar(type:person:)</text><rect fill="#F24D5C" height="6" style="stroke: #C82930; stroke-width: 1.0;" width="6" x="432" y="112.0234"/><text fill="#000000" font-family="sans-serif" font-size="11" lengthAdjust="spacingAndGlyphs" textLength="130" x="444" y="118.2339">leaveBar(type:person:)</text><rect fill="#F24D5C" height="6" style="stroke: #C82930; stroke-width: 1.0;" width="6" x="432" y="124.8281"/><text fill="#000000" font-family="sans-serif" font-size="11" lengthAdjust="spacingAndGlyphs" textLength="144" x="444" y="131.0386">enterRestaurant(person:)</text><rect fill="#F24D5C" height="6" style="stroke: #C82930; stroke-width: 1.0;" width="6" x="432" y="137.6328"/><text fill="#000000" font-family="sans-serif" font-size="11" lengthAdjust="spacingAndGlyphs" textLength="144" x="444" y="143.8433">leaveRestaurant(person:)</text><!--MD5=[714a323ea803c80dd4dfd42b424b55c8]
class Restaurant--><rect fill="#FEFECE" height="104.0234" id="Restaurant" style="stroke: #A80036; stroke-width: 1.5;" width="108" x="675" y="27"/><ellipse cx="692.7" cy="43" fill="#ADD1B2" rx="11" ry="11" style="stroke: #A80036; stroke-width: 1.0;"/><path d="M695.0438,38.6719 L695.2156,38.75 C695.4344,38.4375 695.6375,38.3438 695.9344,38.3438 C696.2313,38.3438 696.5125,38.4844 696.6688,38.75 C696.7625,38.9063 696.7781,39.0313 696.7781,39.4688 L696.7781,40.8906 C696.7781,41.3125 696.7469,41.5 696.6375,41.6563 C696.4656,41.875 696.2,42.0156 695.9344,42.0156 C695.7156,42.0156 695.4813,41.9063 695.3406,41.7656 C695.2,41.6406 695.1688,41.5156 695.1063,41.1094 C695.0125,40.7031 694.8406,40.4844 694.3563,40.2031 C693.8875,39.9531 693.2781,39.7969 692.7,39.7969 C690.9656,39.7969 689.7156,41.1094 689.7156,42.8906 L689.7156,43.9844 C689.7156,45.6875 691.0125,46.7813 693.0594,46.7813 C693.825,46.7813 694.5125,46.6563 694.9344,46.3906 C695.1219,46.2969 695.1219,46.2969 695.575,45.8125 C695.7625,45.625 695.9656,45.5469 696.1844,45.5469 C696.6531,45.5469 697.0438,45.9375 697.0438,46.3906 C697.0438,46.7813 696.7156,47.2344 696.1375,47.6406 C695.3875,48.1875 694.2313,48.4844 693.0125,48.4844 C690.1219,48.4844 688.0125,46.5938 688.0125,44.0156 L688.0125,42.8906 C688.0125,40.1719 690.0125,38.0938 692.6375,38.0938 C693.5125,38.0938 694.1063,38.2344 695.0438,38.6719 Z "/><text fill="#000000" font-family="sans-serif" font-size="12" lengthAdjust="spacingAndGlyphs" textLength="70" x="707.3" y="47.1543">Restaurant</text><line style="stroke: #A80036; stroke-width: 1.5;" x1="676" x2="782" y1="59" y2="59"/><rect fill="#F24D5C" height="6" style="stroke: #C82930; stroke-width: 1.0;" width="6" x="683" y="67"/><text fill="#000000" font-family="sans-serif" font-size="11" lengthAdjust="spacingAndGlyphs" textLength="25" x="695" y="73.2104">init()</text><ellipse cx="686" cy="82.8047" fill="#84BE84" rx="3" ry="3" style="stroke: #038048; stroke-width: 1.0;"/><text fill="#000000" font-family="sans-serif" font-size="11" lengthAdjust="spacingAndGlyphs" textLength="72" x="695" y="86.0151">enter(enter:)</text><ellipse cx="686" cy="95.6094" fill="#84BE84" rx="3" ry="3" style="stroke: #038048; stroke-width: 1.0;"/><text fill="#000000" font-family="sans-serif" font-size="11" lengthAdjust="spacingAndGlyphs" textLength="82" x="695" y="98.8198">leave(person:)</text><ellipse cx="686" cy="108.4141" fill="#84BE84" rx="3" ry="3" style="stroke: #038048; stroke-width: 1.0;"/><text fill="#000000" font-family="sans-serif" font-size="11" lengthAdjust="spacingAndGlyphs" textLength="59" x="695" y="111.6245">roomLeft()</text><ellipse cx="686" cy="121.2188" fill="#84BE84" rx="3" ry="3" style="stroke: #038048; stroke-width: 1.0;"/><text fill="#000000" font-family="sans-serif" font-size="11" lengthAdjust="spacingAndGlyphs" textLength="75" x="695" y="124.4292">printGuests()</text><!--MD5=[09ce52be0ee7de43c61b6e2d59bf108b]
class Person--><rect fill="#FEFECE" height="65.6094" id="Person" style="stroke: #A80036; stroke-width: 1.5;" width="248" x="961" y="46"/><ellipse cx="1058.75" cy="62" fill="#ADD1B2" rx="11" ry="11" style="stroke: #A80036; stroke-width: 1.0;"/><path d="M1061.0938,57.6719 L1061.2656,57.75 C1061.4844,57.4375 1061.6875,57.3438 1061.9844,57.3438 C1062.2813,57.3438 1062.5625,57.4844 1062.7188,57.75 C1062.8125,57.9063 1062.8281,58.0313 1062.8281,58.4688 L1062.8281,59.8906 C1062.8281,60.3125 1062.7969,60.5 1062.6875,60.6563 C1062.5156,60.875 1062.25,61.0156 1061.9844,61.0156 C1061.7656,61.0156 1061.5313,60.9063 1061.3906,60.7656 C1061.25,60.6406 1061.2188,60.5156 1061.1563,60.1094 C1061.0625,59.7031 1060.8906,59.4844 1060.4063,59.2031 C1059.9375,58.9531 1059.3281,58.7969 1058.75,58.7969 C1057.0156,58.7969 1055.7656,60.1094 1055.7656,61.8906 L1055.7656,62.9844 C1055.7656,64.6875 1057.0625,65.7813 1059.1094,65.7813 C1059.875,65.7813 1060.5625,65.6563 1060.9844,65.3906 C1061.1719,65.2969 1061.1719,65.2969 1061.625,64.8125 C1061.8125,64.625 1062.0156,64.5469 1062.2344,64.5469 C1062.7031,64.5469 1063.0938,64.9375 1063.0938,65.3906 C1063.0938,65.7813 1062.7656,66.2344 1062.1875,66.6406 C1061.4375,67.1875 1060.2813,67.4844 1059.0625,67.4844 C1056.1719,67.4844 1054.0625,65.5938 1054.0625,63.0156 L1054.0625,61.8906 C1054.0625,59.1719 1056.0625,57.0938 1058.6875,57.0938 C1059.5625,57.0938 1060.1563,57.2344 1061.0938,57.6719 Z "/><text fill="#000000" font-family="sans-serif" font-size="12" lengthAdjust="spacingAndGlyphs" textLength="44" x="1079.25" y="66.1543">Person</text><line style="stroke: #A80036; stroke-width: 1.5;" x1="962" x2="1208" y1="78" y2="78"/><rect fill="#F24D5C" height="6" style="stroke: #C82930; stroke-width: 1.0;" width="6" x="969" y="86"/><text fill="#000000" font-family="sans-serif" font-size="11" lengthAdjust="spacingAndGlyphs" textLength="222" x="981" y="92.2104">init(dateOfBirthString:name:lastName:)</text><rect fill="#F24D5C" height="6" style="stroke: #C82930; stroke-width: 1.0;" width="6" x="969" y="98.8047"/><text fill="#000000" font-family="sans-serif" font-size="11" lengthAdjust="spacingAndGlyphs" textLength="47" x="981" y="105.0151">getAge()</text><!--MD5=[46aec3a4c9950abd65c4e788a19c9579]
class Person5--><rect fill="#FEFECE" height="58.7422" id="Person5" style="stroke: #A80036; stroke-width: 1.5;" width="103" x="1028.5" y="243"/><ellipse cx="1043.5" cy="261.9688" fill="#DA70D6" rx="11" ry="11" style="stroke: #A80036; stroke-width: 1.0;"/><path d="M1041.7969,262.8438 L1041.7969,265.2656 L1046.1563,265.2656 L1046.1563,264.3906 C1046.1563,263.9063 1046.1875,263.7656 1046.2969,263.6094 C1046.4688,263.3594 1046.7344,263.25 1047,263.25 C1047.2813,263.25 1047.5625,263.4063 1047.7344,263.6563 C1047.8125,263.8125 1047.8438,263.9531 1047.8438,264.3906 L1047.8438,266.9688 L1039.8438,266.9688 C1039.4531,266.9688 1039.2188,266.9219 1039.0781,266.7969 C1038.8594,266.6406 1038.7188,266.3906 1038.7188,266.125 C1038.7188,265.8281 1038.875,265.5625 1039.125,265.3906 C1039.2813,265.2813 1039.4375,265.2656 1039.8438,265.2656 L1040.0938,265.2656 L1040.0938,258.75 L1039.8438,258.75 C1039.4219,258.75 1039.2344,258.7188 1039.0781,258.6094 C1038.8594,258.4375 1038.7188,258.1875 1038.7188,257.9063 C1038.7188,257.625 1038.875,257.3281 1039.125,257.1719 C1039.2813,257.0781 1039.4063,257.0625 1039.8438,257.0625 L1047.4688,257.0625 L1047.4688,259.6094 C1047.4688,260.0781 1047.4375,260.2188 1047.3281,260.3906 C1047.1563,260.6094 1046.8906,260.75 1046.625,260.75 C1046.3438,260.75 1046.0625,260.5938 1045.8906,260.3438 C1045.8125,260.1875 1045.7813,260.0156 1045.7813,259.6094 L1045.7813,258.75 L1041.7969,258.75 L1041.7969,261.1563 L1043.25,261.1563 L1043.25,261.0313 C1043.25,260.5781 1043.2813,260.4219 1043.3906,260.25 C1043.5625,260.0313 1043.8281,259.8906 1044.0781,259.8906 C1044.5313,259.8906 1044.8438,260.2031 1044.9063,260.6719 C1044.9219,260.8281 1044.9219,260.875 1044.9219,261.0313 L1044.9219,262.9531 C1044.9219,263.4063 1044.8906,263.5625 1044.7656,263.7188 C1044.6094,263.9375 1044.3438,264.0781 1044.0938,264.0781 C1043.7969,264.0781 1043.5156,263.9219 1043.3594,263.6719 C1043.2813,263.5156 1043.25,263.3594 1043.25,262.9531 L1043.25,262.8438 Z "/><text fill="#000000" font-family="sans-serif" font-size="12" font-style="italic" lengthAdjust="spacingAndGlyphs" textLength="75" x="1055.5" y="259.1387">«extension»</text><text fill="#000000" font-family="sans-serif" font-size="12" lengthAdjust="spacingAndGlyphs" textLength="44" x="1071" y="273.1074">Person</text><line style="stroke: #A80036; stroke-width: 1.5;" x1="1029.5" x2="1130.5" y1="280.9375" y2="280.9375"/><rect fill="#F24D5C" height="6" style="stroke: #C82930; stroke-width: 1.0;" width="6" x="1036.5" y="288.9375"/><text fill="#000000" font-family="sans-serif" font-size="11" lengthAdjust="spacingAndGlyphs" textLength="61" x="1048.5" y="295.1479">hash(into:)</text><!--MD5=[cbfd26f8958cc29d53759b5a7283c384]
class Entertainable--><rect fill="#FEFECE" height="84.3516" id="Entertainable" style="stroke: #A80036; stroke-width: 1.5;" width="117" x="741.5" y="230.5"/><ellipse cx="756.5" cy="249.4688" fill="#DAA520" rx="11" ry="11" style="stroke: #A80036; stroke-width: 1.0;"/><path d="M756.0469,251.0625 L756.0469,252.7656 L757.7344,252.7656 C758.1875,252.7656 758.3281,252.7969 758.5,252.9219 C758.7188,253.0938 758.8594,253.3438 758.8594,253.625 C758.8594,253.9063 758.7031,254.2031 758.4375,254.3438 C758.3281,254.4219 758.0781,254.4688 757.7344,254.4688 L754.0938,254.4688 C753.7031,254.4688 753.4688,254.4219 753.3281,254.2969 C753.1094,254.1406 752.9688,253.875 752.9688,253.625 C752.9688,253.3281 753.125,253.0469 753.375,252.8906 C753.5313,252.7813 753.6875,252.7656 754.0938,252.7656 L754.3438,252.7656 L754.3438,246.25 L754.0938,246.25 C753.6719,246.25 753.4844,246.2188 753.3281,246.1094 C753.1094,245.9375 752.9688,245.6563 752.9688,245.4063 C752.9688,245.125 753.125,244.8281 753.375,244.6719 C753.5313,244.5781 753.6563,244.5625 754.0938,244.5625 L758.0469,244.5625 C760.2188,244.5625 761.75,245.8906 761.75,247.7656 C761.75,248.5469 761.4375,249.3594 760.8906,249.9531 C760.1406,250.7813 759.2969,251.0625 757.7188,251.0625 Z M756.0469,246.25 L756.0469,249.375 L758.0469,249.375 C759.2344,249.375 759.9375,248.7813 759.9375,247.8281 C759.9375,246.8594 759.2344,246.25 758.0469,246.25 Z "/><text fill="#000000" font-family="sans-serif" font-size="12" font-style="italic" lengthAdjust="spacingAndGlyphs" textLength="66" x="780" y="246.6387">«protocol»</text><text fill="#000000" font-family="sans-serif" font-size="12" lengthAdjust="spacingAndGlyphs" textLength="85" x="770.5" y="260.6074">Entertainable</text><line style="stroke: #A80036; stroke-width: 1.5;" x1="742.5" x2="857.5" y1="268.4375" y2="268.4375"/><ellipse cx="752.5" cy="279.4375" fill="#84BE84" rx="3" ry="3" style="stroke: #038048; stroke-width: 1.0;"/><text fill="#000000" font-family="sans-serif" font-size="11" lengthAdjust="spacingAndGlyphs" textLength="72" x="761.5" y="282.6479">enter(enter:)</text><ellipse cx="752.5" cy="292.2422" fill="#84BE84" rx="3" ry="3" style="stroke: #038048; stroke-width: 1.0;"/><text fill="#000000" font-family="sans-serif" font-size="11" lengthAdjust="spacingAndGlyphs" textLength="82" x="761.5" y="295.4526">leave(person:)</text><ellipse cx="752.5" cy="305.0469" fill="#84BE84" rx="3" ry="3" style="stroke: #038048; stroke-width: 1.0;"/><text fill="#000000" font-family="sans-serif" font-size="11" lengthAdjust="spacingAndGlyphs" textLength="59" x="761.5" y="308.2573">roomLeft()</text><!--MD5=[c86ce95fe6226f2d2796c0513d8e83fe]
class Engine--><rect fill="#FEFECE" height="52.8047" id="Engine" style="stroke: #A80036; stroke-width: 1.5;" width="171" x="1253.5" y="52.5"/><ellipse cx="1313.25" cy="68.5" fill="#ADD1B2" rx="11" ry="11" style="stroke: #A80036; stroke-width: 1.0;"/><path d="M1315.5938,64.1719 L1315.7656,64.25 C1315.9844,63.9375 1316.1875,63.8438 1316.4844,63.8438 C1316.7813,63.8438 1317.0625,63.9844 1317.2188,64.25 C1317.3125,64.4063 1317.3281,64.5313 1317.3281,64.9688 L1317.3281,66.3906 C1317.3281,66.8125 1317.2969,67 1317.1875,67.1563 C1317.0156,67.375 1316.75,67.5156 1316.4844,67.5156 C1316.2656,67.5156 1316.0313,67.4063 1315.8906,67.2656 C1315.75,67.1406 1315.7188,67.0156 1315.6563,66.6094 C1315.5625,66.2031 1315.3906,65.9844 1314.9063,65.7031 C1314.4375,65.4531 1313.8281,65.2969 1313.25,65.2969 C1311.5156,65.2969 1310.2656,66.6094 1310.2656,68.3906 L1310.2656,69.4844 C1310.2656,71.1875 1311.5625,72.2813 1313.6094,72.2813 C1314.375,72.2813 1315.0625,72.1563 1315.4844,71.8906 C1315.6719,71.7969 1315.6719,71.7969 1316.125,71.3125 C1316.3125,71.125 1316.5156,71.0469 1316.7344,71.0469 C1317.2031,71.0469 1317.5938,71.4375 1317.5938,71.8906 C1317.5938,72.2813 1317.2656,72.7344 1316.6875,73.1406 C1315.9375,73.6875 1314.7813,73.9844 1313.5625,73.9844 C1310.6719,73.9844 1308.5625,72.0938 1308.5625,69.5156 L1308.5625,68.3906 C1308.5625,65.6719 1310.5625,63.5938 1313.1875,63.5938 C1314.0625,63.5938 1314.6563,63.7344 1315.5938,64.1719 Z "/><text fill="#000000" font-family="sans-serif" font-size="12" lengthAdjust="spacingAndGlyphs" textLength="43" x="1333.75" y="72.6543">Engine</text><line style="stroke: #A80036; stroke-width: 1.5;" x1="1254.5" x2="1423.5" y1="84.5" y2="84.5"/><rect fill="#F24D5C" height="6" style="stroke: #C82930; stroke-width: 1.0;" width="6" x="1261.5" y="92.5"/><text fill="#000000" font-family="sans-serif" font-size="11" lengthAdjust="spacingAndGlyphs" textLength="145" x="1273.5" y="98.7104">init(power:serialNumber:)</text><!--MD5=[6b891ee206aa95fc36857f76d5b9eec2]
class Engine8--><rect fill="#FEFECE" height="58.7422" id="Engine8" style="stroke: #A80036; stroke-width: 1.5;" width="103" x="1292.5" y="243"/><ellipse cx="1307.5" cy="261.9688" fill="#DA70D6" rx="11" ry="11" style="stroke: #A80036; stroke-width: 1.0;"/><path d="M1305.7969,262.8438 L1305.7969,265.2656 L1310.1563,265.2656 L1310.1563,264.3906 C1310.1563,263.9063 1310.1875,263.7656 1310.2969,263.6094 C1310.4688,263.3594 1310.7344,263.25 1311,263.25 C1311.2813,263.25 1311.5625,263.4063 1311.7344,263.6563 C1311.8125,263.8125 1311.8438,263.9531 1311.8438,264.3906 L1311.8438,266.9688 L1303.8438,266.9688 C1303.4531,266.9688 1303.2188,266.9219 1303.0781,266.7969 C1302.8594,266.6406 1302.7188,266.3906 1302.7188,266.125 C1302.7188,265.8281 1302.875,265.5625 1303.125,265.3906 C1303.2813,265.2813 1303.4375,265.2656 1303.8438,265.2656 L1304.0938,265.2656 L1304.0938,258.75 L1303.8438,258.75 C1303.4219,258.75 1303.2344,258.7188 1303.0781,258.6094 C1302.8594,258.4375 1302.7188,258.1875 1302.7188,257.9063 C1302.7188,257.625 1302.875,257.3281 1303.125,257.1719 C1303.2813,257.0781 1303.4063,257.0625 1303.8438,257.0625 L1311.4688,257.0625 L1311.4688,259.6094 C1311.4688,260.0781 1311.4375,260.2188 1311.3281,260.3906 C1311.1563,260.6094 1310.8906,260.75 1310.625,260.75 C1310.3438,260.75 1310.0625,260.5938 1309.8906,260.3438 C1309.8125,260.1875 1309.7813,260.0156 1309.7813,259.6094 L1309.7813,258.75 L1305.7969,258.75 L1305.7969,261.1563 L1307.25,261.1563 L1307.25,261.0313 C1307.25,260.5781 1307.2813,260.4219 1307.3906,260.25 C1307.5625,260.0313 1307.8281,259.8906 1308.0781,259.8906 C1308.5313,259.8906 1308.8438,260.2031 1308.9063,260.6719 C1308.9219,260.8281 1308.9219,260.875 1308.9219,261.0313 L1308.9219,262.9531 C1308.9219,263.4063 1308.8906,263.5625 1308.7656,263.7188 C1308.6094,263.9375 1308.3438,264.0781 1308.0938,264.0781 C1307.7969,264.0781 1307.5156,263.9219 1307.3594,263.6719 C1307.2813,263.5156 1307.25,263.3594 1307.25,262.9531 L1307.25,262.8438 Z "/><text fill="#000000" font-family="sans-serif" font-size="12" font-style="italic" lengthAdjust="spacingAndGlyphs" textLength="75" x="1319.5" y="259.1387">«extension»</text><text fill="#000000" font-family="sans-serif" font-size="12" lengthAdjust="spacingAndGlyphs" textLength="43" x="1335.5" y="273.1074">Engine</text><line style="stroke: #A80036; stroke-width: 1.5;" x1="1293.5" x2="1394.5" y1="280.9375" y2="280.9375"/><ellipse cx="1303.5" cy="291.9375" fill="#84BE84" rx="3" ry="3" style="stroke: #038048; stroke-width: 1.0;"/><text fill="#000000" font-family="sans-serif" font-size="11" lengthAdjust="spacingAndGlyphs" textLength="61" x="1312.5" y="295.1479">hash(into:)</text><!--MD5=[25e2fb7615be8e8235c93ad75197cd6f]
class Cabin--><rect fill="#FEFECE" height="91.2188" id="Cabin" style="stroke: #A80036; stroke-width: 1.5;" width="180" x="6" y="227"/><ellipse cx="74.25" cy="243" fill="#ADD1B2" rx="11" ry="11" style="stroke: #A80036; stroke-width: 1.0;"/><path d="M76.5938,238.6719 L76.7656,238.75 C76.9844,238.4375 77.1875,238.3438 77.4844,238.3438 C77.7813,238.3438 78.0625,238.4844 78.2188,238.75 C78.3125,238.9063 78.3281,239.0313 78.3281,239.4688 L78.3281,240.8906 C78.3281,241.3125 78.2969,241.5 78.1875,241.6563 C78.0156,241.875 77.75,242.0156 77.4844,242.0156 C77.2656,242.0156 77.0313,241.9063 76.8906,241.7656 C76.75,241.6406 76.7188,241.5156 76.6563,241.1094 C76.5625,240.7031 76.3906,240.4844 75.9063,240.2031 C75.4375,239.9531 74.8281,239.7969 74.25,239.7969 C72.5156,239.7969 71.2656,241.1094 71.2656,242.8906 L71.2656,243.9844 C71.2656,245.6875 72.5625,246.7813 74.6094,246.7813 C75.375,246.7813 76.0625,246.6563 76.4844,246.3906 C76.6719,246.2969 76.6719,246.2969 77.125,245.8125 C77.3125,245.625 77.5156,245.5469 77.7344,245.5469 C78.2031,245.5469 78.5938,245.9375 78.5938,246.3906 C78.5938,246.7813 78.2656,247.2344 77.6875,247.6406 C76.9375,248.1875 75.7813,248.4844 74.5625,248.4844 C71.6719,248.4844 69.5625,246.5938 69.5625,244.0156 L69.5625,242.8906 C69.5625,240.1719 71.5625,238.0938 74.1875,238.0938 C75.0625,238.0938 75.6563,238.2344 76.5938,238.6719 Z "/><text fill="#000000" font-family="sans-serif" font-size="12" lengthAdjust="spacingAndGlyphs" textLength="35" x="94.75" y="247.1543">Cabin</text><line style="stroke: #A80036; stroke-width: 1.5;" x1="7" x2="185" y1="259" y2="259"/><rect fill="#F24D5C" height="6" style="stroke: #C82930; stroke-width: 1.0;" width="6" x="14" y="267"/><text fill="#000000" font-family="sans-serif" font-size="11" lengthAdjust="spacingAndGlyphs" textLength="154" x="26" y="273.2104">init(capacity:cabinNumber:)</text><rect fill="#F24D5C" height="6" style="stroke: #C82930; stroke-width: 1.0;" width="6" x="14" y="279.8047"/><text fill="#000000" font-family="sans-serif" font-size="11" lengthAdjust="spacingAndGlyphs" textLength="107" x="26" y="286.0151">addGuest(person:)</text><rect fill="#F24D5C" height="6" style="stroke: #C82930; stroke-width: 1.0;" width="6" x="14" y="292.6094"/><text fill="#000000" font-family="sans-serif" font-size="11" lengthAdjust="spacingAndGlyphs" textLength="129" x="26" y="298.8198">removeGuest(person:)</text><rect fill="#F24D5C" height="6" style="stroke: #C82930; stroke-width: 1.0;" width="6" x="14" y="305.4141"/><text fill="#000000" font-family="sans-serif" font-size="11" lengthAdjust="spacingAndGlyphs" textLength="135" x="26" y="311.6245">listAllGuestInTheCabin()</text><!--MD5=[f6a23ce3a300b49f1448f5d1d44095f1]
class Capacity--><rect fill="#FEFECE" height="37.9375" id="Capacity" style="stroke: #A80036; stroke-width: 1.5;" width="85" x="221.5" y="253.5"/><ellipse cx="236.5" cy="272.4688" fill="#B0C4DE" rx="11" ry="11" style="stroke: #A80036; stroke-width: 1.0;"/><path d="M234.7969,273.3438 L234.7969,275.7656 L239.1563,275.7656 L239.1563,274.8906 C239.1563,274.4063 239.1875,274.2656 239.2969,274.1094 C239.4688,273.8594 239.7344,273.75 240,273.75 C240.2813,273.75 240.5625,273.9063 240.7344,274.1563 C240.8125,274.3125 240.8438,274.4531 240.8438,274.8906 L240.8438,277.4688 L232.8438,277.4688 C232.4531,277.4688 232.2188,277.4219 232.0781,277.2969 C231.8594,277.1406 231.7188,276.8906 231.7188,276.625 C231.7188,276.3281 231.875,276.0625 232.125,275.8906 C232.2813,275.7813 232.4375,275.7656 232.8438,275.7656 L233.0938,275.7656 L233.0938,269.25 L232.8438,269.25 C232.4219,269.25 232.2344,269.2188 232.0781,269.1094 C231.8594,268.9375 231.7188,268.6875 231.7188,268.4063 C231.7188,268.125 231.875,267.8281 232.125,267.6719 C232.2813,267.5781 232.4063,267.5625 232.8438,267.5625 L240.4688,267.5625 L240.4688,270.1094 C240.4688,270.5781 240.4375,270.7188 240.3281,270.8906 C240.1563,271.1094 239.8906,271.25 239.625,271.25 C239.3438,271.25 239.0625,271.0938 238.8906,270.8438 C238.8125,270.6875 238.7813,270.5156 238.7813,270.1094 L238.7813,269.25 L234.7969,269.25 L234.7969,271.6563 L236.25,271.6563 L236.25,271.5313 C236.25,271.0781 236.2813,270.9219 236.3906,270.75 C236.5625,270.5313 236.8281,270.3906 237.0781,270.3906 C237.5313,270.3906 237.8438,270.7031 237.9063,271.1719 C237.9219,271.3281 237.9219,271.375 237.9219,271.5313 L237.9219,273.4531 C237.9219,273.9063 237.8906,274.0625 237.7656,274.2188 C237.6094,274.4375 237.3438,274.5781 237.0938,274.5781 C236.7969,274.5781 236.5156,274.4219 236.3594,274.1719 C236.2813,274.0156 236.25,273.8594 236.25,273.4531 L236.25,273.3438 Z "/><text fill="#000000" font-family="sans-serif" font-size="12" font-style="italic" lengthAdjust="spacingAndGlyphs" textLength="49" x="252.5" y="269.6387">«enum»</text><text fill="#000000" font-family="sans-serif" font-size="12" lengthAdjust="spacingAndGlyphs" textLength="53" x="250.5" y="283.6074">Capacity</text><!--MD5=[fea15f7924bd848149aeb562f3a4d86b]
class Bar--><rect fill="#FEFECE" height="104.0234" id="Bar" style="stroke: #A80036; stroke-width: 1.5;" width="108" x="818" y="27"/><ellipse cx="857.75" cy="43" fill="#ADD1B2" rx="11" ry="11" style="stroke: #A80036; stroke-width: 1.0;"/><path d="M860.0938,38.6719 L860.2656,38.75 C860.4844,38.4375 860.6875,38.3438 860.9844,38.3438 C861.2813,38.3438 861.5625,38.4844 861.7188,38.75 C861.8125,38.9063 861.8281,39.0313 861.8281,39.4688 L861.8281,40.8906 C861.8281,41.3125 861.7969,41.5 861.6875,41.6563 C861.5156,41.875 861.25,42.0156 860.9844,42.0156 C860.7656,42.0156 860.5313,41.9063 860.3906,41.7656 C860.25,41.6406 860.2188,41.5156 860.1563,41.1094 C860.0625,40.7031 859.8906,40.4844 859.4063,40.2031 C858.9375,39.9531 858.3281,39.7969 857.75,39.7969 C856.0156,39.7969 854.7656,41.1094 854.7656,42.8906 L854.7656,43.9844 C854.7656,45.6875 856.0625,46.7813 858.1094,46.7813 C858.875,46.7813 859.5625,46.6563 859.9844,46.3906 C860.1719,46.2969 860.1719,46.2969 860.625,45.8125 C860.8125,45.625 861.0156,45.5469 861.2344,45.5469 C861.7031,45.5469 862.0938,45.9375 862.0938,46.3906 C862.0938,46.7813 861.7656,47.2344 861.1875,47.6406 C860.4375,48.1875 859.2813,48.4844 858.0625,48.4844 C855.1719,48.4844 853.0625,46.5938 853.0625,44.0156 L853.0625,42.8906 C853.0625,40.1719 855.0625,38.0938 857.6875,38.0938 C858.5625,38.0938 859.1563,38.2344 860.0938,38.6719 Z "/><text fill="#000000" font-family="sans-serif" font-size="12" lengthAdjust="spacingAndGlyphs" textLength="21" x="877.25" y="47.1543">Bar</text><line style="stroke: #A80036; stroke-width: 1.5;" x1="819" x2="925" y1="59" y2="59"/><ellipse cx="829" cy="70" fill="#84BE84" rx="3" ry="3" style="stroke: #038048; stroke-width: 1.0;"/><text fill="#000000" font-family="sans-serif" font-size="11" lengthAdjust="spacingAndGlyphs" textLength="75" x="838" y="73.2104">init(capacity:)</text><ellipse cx="829" cy="82.8047" fill="#84BE84" rx="3" ry="3" style="stroke: #038048; stroke-width: 1.0;"/><text fill="#000000" font-family="sans-serif" font-size="11" lengthAdjust="spacingAndGlyphs" textLength="72" x="838" y="86.0151">enter(enter:)</text><ellipse cx="829" cy="95.6094" fill="#84BE84" rx="3" ry="3" style="stroke: #038048; stroke-width: 1.0;"/><text fill="#000000" font-family="sans-serif" font-size="11" lengthAdjust="spacingAndGlyphs" textLength="82" x="838" y="98.8198">leave(person:)</text><ellipse cx="829" cy="108.4141" fill="#84BE84" rx="3" ry="3" style="stroke: #038048; stroke-width: 1.0;"/><text fill="#000000" font-family="sans-serif" font-size="11" lengthAdjust="spacingAndGlyphs" textLength="59" x="838" y="111.6245">roomLeft()</text><ellipse cx="829" cy="121.2188" fill="#84BE84" rx="3" ry="3" style="stroke: #038048; stroke-width: 1.0;"/><text fill="#000000" font-family="sans-serif" font-size="11" lengthAdjust="spacingAndGlyphs" textLength="75" x="838" y="124.4292">printGuests()</text><!--MD5=[34c430a2bb314daf0bded46d05a1251b]
class Hashable--><rect fill="#FEFECE" height="32" id="Hashable" style="stroke: #A80036; stroke-width: 1.5;" width="91" x="1166.5" y="256.5"/><ellipse cx="1181.5" cy="272.5" fill="#ADD1B2" rx="11" ry="11" style="stroke: #A80036; stroke-width: 1.0;"/><path d="M1183.8438,268.1719 L1184.0156,268.25 C1184.2344,267.9375 1184.4375,267.8438 1184.7344,267.8438 C1185.0313,267.8438 1185.3125,267.9844 1185.4688,268.25 C1185.5625,268.4063 1185.5781,268.5313 1185.5781,268.9688 L1185.5781,270.3906 C1185.5781,270.8125 1185.5469,271 1185.4375,271.1563 C1185.2656,271.375 1185,271.5156 1184.7344,271.5156 C1184.5156,271.5156 1184.2813,271.4063 1184.1406,271.2656 C1184,271.1406 1183.9688,271.0156 1183.9063,270.6094 C1183.8125,270.2031 1183.6406,269.9844 1183.1563,269.7031 C1182.6875,269.4531 1182.0781,269.2969 1181.5,269.2969 C1179.7656,269.2969 1178.5156,270.6094 1178.5156,272.3906 L1178.5156,273.4844 C1178.5156,275.1875 1179.8125,276.2813 1181.8594,276.2813 C1182.625,276.2813 1183.3125,276.1563 1183.7344,275.8906 C1183.9219,275.7969 1183.9219,275.7969 1184.375,275.3125 C1184.5625,275.125 1184.7656,275.0469 1184.9844,275.0469 C1185.4531,275.0469 1185.8438,275.4375 1185.8438,275.8906 C1185.8438,276.2813 1185.5156,276.7344 1184.9375,277.1406 C1184.1875,277.6875 1183.0313,277.9844 1181.8125,277.9844 C1178.9219,277.9844 1176.8125,276.0938 1176.8125,273.5156 L1176.8125,272.3906 C1176.8125,269.6719 1178.8125,267.5938 1181.4375,267.5938 C1182.3125,267.5938 1182.9063,267.7344 1183.8438,268.1719 Z "/><text fill="#000000" font-family="sans-serif" font-size="12" lengthAdjust="spacingAndGlyphs" textLength="59" x="1195.5" y="276.6543">Hashable</text><!--MD5=[f0b78459e6dec26854acb8ed66d9f226]
link Restaurant to Entertainable--><path d="M747.933,131.067 C757.099,155.789 768.165,185.634 777.733,211.442 " fill="none" id="Restaurant-&gt;Entertainable" style="stroke: #A80036; stroke-width: 1.0;"/><polygon fill="none" points="784.313,209.052,784.702,230.2383,771.186,213.919,784.313,209.052" style="stroke: #A80036; stroke-width: 1.0;"/><!--MD5=[53fd275c4cf6d8cd6a86156d00ff528c]
link Person to Hashable--><path d="M1106.26,112.053 C1129.72,147.433 1167.27,204.047 1190.73,239.4325 " fill="none" id="Person-&gt;Hashable" style="stroke: #A80036; stroke-width: 1.0;"/><polygon fill="none" points="1196.64,235.6712,1201.86,256.2078,1184.97,243.4089,1196.64,235.6712" style="stroke: #A80036; stroke-width: 1.0;"/><!--MD5=[01b86a33f44adb2407507ca5d1060ae4]
link Engine to Hashable--><path d="M1321.87,105.827 C1298.94,140.412 1258.25,201.759 1233.35,239.3137 " fill="none" id="Engine-&gt;Hashable" style="stroke: #A80036; stroke-width: 1.0;"/><polygon fill="none" points="1239.12,243.2678,1222.24,256.0668,1227.46,235.5302,1239.12,243.2678" style="stroke: #A80036; stroke-width: 1.0;"/><!--MD5=[735dd2947a586e4704015ced71272d6b]
link Bar to Entertainable--><path d="M852.8,131.067 C843.505,155.789 832.284,185.634 822.581,211.442 " fill="none" id="Bar-&gt;Entertainable" style="stroke: #A80036; stroke-width: 1.0; stroke-dasharray: 7.0,7.0;"/><polygon fill="none" points="829.104,213.981,815.514,230.2383,816,209.054,829.104,213.981" style="stroke: #A80036; stroke-width: 1.0;"/><text fill="#000000" font-family="sans-serif" font-size="13" lengthAdjust="spacingAndGlyphs" textLength="72" x="835" y="193.0669">confirms to</text><!--MD5=[24c376a6c70681d74e3f67d7def0f3c7]
reverse link Person to Person5--><path d="M1084.03,117.333 C1083.07,154.066 1081.62,209.365 1080.75,242.7893 " fill="none" id="Person&lt;-Person5" style="stroke: #A80036; stroke-width: 1.0; stroke-dasharray: 7.0,7.0;"/><polygon fill="#A80036" points="1084.16,112.053,1079.9249,120.9448,1084.0286,117.0513,1087.9221,121.155,1084.16,112.053" style="stroke: #A80036; stroke-width: 1.0;"/><text fill="#000000" font-family="sans-serif" font-size="13" lengthAdjust="spacingAndGlyphs" textLength="20" x="1084" y="193.0669">ext</text><!--MD5=[8005f7ce55d41a1f076efdb4cd763794]
reverse link Engine to Engine8--><path d="M1339.81,111.034 C1340.76,147.527 1342.33,207.597 1343.26,242.9695 " fill="none" id="Engine&lt;-Engine8" style="stroke: #A80036; stroke-width: 1.0; stroke-dasharray: 7.0,7.0;"/><polygon fill="#A80036" points="1339.67,105.827,1335.9086,114.9293,1339.8018,110.8253,1343.9058,114.7185,1339.67,105.827" style="stroke: #A80036; stroke-width: 1.0;"/><text fill="#000000" font-family="sans-serif" font-size="13" lengthAdjust="spacingAndGlyphs" textLength="20" x="1343" y="193.0669">ext</text><!--MD5=[5194463be2719abb9bf2145b0b07694b]
link ShipEngine to Ship--><!--MD5=[df78fc9a1a1a605097658342e8b1e84b]
link Ship to Service--><!--MD5=[52e177d433a649f5c0b5b7bfa230a998]
link ShipEngine to Cabin--><!--MD5=[adfc3a3e803db4e7634b8d33938ae4c8]
link Cabin to Capacity--><!--MD5=[59daba86298a529b7e76ab606ea5844d]
@startuml
hide empty members
skinparam shadowing false
class "ShipEngine" as ShipEngine {
  +init()
  +addEngine(engine:)
  +runEngine(engine:)
  +stopEngine(engine:)

}
class "Ship" as Ship {
  +init()
  -createCabin()
  +freeCabin(numberOfPeople:)

}
class "Service" as Service {
  -init()
  -addPersontoACabin(guestToAdd:)
  -runEngine(type:)
  -stopEngine(type:)
  -enterBar(type:person:)
  -leaveBar(type:person:)
  -enterRestaurant(person:)
  -leaveRestaurant(person:)

}
class "Restaurant" as Restaurant {
  -init()
  +enter(enter:)
  +leave(person:)
  +roomLeft()
  +printGuests()

}
class "Person" as Person {
  -init(dateOfBirthString:name:lastName:)
  -getAge()

}
class "Person" as Person5 << (E,orchid) extension >> {
  -hash(into:)

}
class "Entertainable" as Entertainable << (P,GoldenRod) protocol >> {
  +enter(enter:)
  +leave(person:)
  +roomLeft()

}
class "Engine" as Engine {
  -init(power:serialNumber:)

}
class "Engine" as Engine8 << (E,orchid) extension >> {
  +hash(into:)

}
class "Cabin" as Cabin {
  -init(capacity:cabinNumber:)
  -addGuest(person:)
  -removeGuest(person:)
  -listAllGuestInTheCabin()

}
class "Capacity" as Capacity << (E,LightSteelBlue) enum >> {

}
class "Bar" as Bar {
  +init(capacity:)
  +enter(enter:)
  +leave(person:)
  +roomLeft()
  +printGuests()

}

Restaurant - -|> Entertainable 
Person - -|> Hashable 
Engine - -|> Hashable 
Bar ..|> Entertainable : confirms to
Person <.. Person5 : ext
Engine <.. Engine8 : ext
@enduml

PlantUML version 1.2020.02(Sun Mar 01 10:22:07 UTC 2020)
(GPL source distribution)
Java Runtime: Java(TM) SE Runtime Environment
JVM: Java HotSpot(TM) 64-Bit Server VM
Java Version: 1.7.0_25-b15
Operating System: Linux
Default Encoding: UTF-8
Language: en
Country: US
--></g></svg>