<?xml version="1.0" encoding="UTF-8" standalone="no"?><svg xmlns="http://www.w3.org/2000/svg" xmlns:xlink="http://www.w3.org/1999/xlink" contentScriptType="application/ecmascript" contentStyleType="text/css" height="227px" preserveAspectRatio="none" style="width:719px;height:227px;" version="1.1" viewBox="0 0 719 227" width="719px" zoomAndPan="magnify"><defs/><g><!--MD5=[c86ce95fe6226f2d2796c0513d8e83fe]
class Engine--><rect fill="#FEFECE" height="37.9375" id="Engine" style="stroke: #A80036; stroke-width: 1.5;" width="77" x="435.5" y="22"/><ellipse cx="450.5" cy="40.9688" fill="#B0C4DE" rx="11" ry="11" style="stroke: #A80036; stroke-width: 1.0;"/><path d="M448.7969,41.8438 L448.7969,44.2656 L453.1563,44.2656 L453.1563,43.3906 C453.1563,42.9063 453.1875,42.7656 453.2969,42.6094 C453.4688,42.3594 453.7344,42.25 454,42.25 C454.2813,42.25 454.5625,42.4063 454.7344,42.6563 C454.8125,42.8125 454.8438,42.9531 454.8438,43.3906 L454.8438,45.9688 L446.8438,45.9688 C446.4531,45.9688 446.2188,45.9219 446.0781,45.7969 C445.8594,45.6406 445.7188,45.3906 445.7188,45.125 C445.7188,44.8281 445.875,44.5625 446.125,44.3906 C446.2813,44.2813 446.4375,44.2656 446.8438,44.2656 L447.0938,44.2656 L447.0938,37.75 L446.8438,37.75 C446.4219,37.75 446.2344,37.7188 446.0781,37.6094 C445.8594,37.4375 445.7188,37.1875 445.7188,36.9063 C445.7188,36.625 445.875,36.3281 446.125,36.1719 C446.2813,36.0781 446.4063,36.0625 446.8438,36.0625 L454.4688,36.0625 L454.4688,38.6094 C454.4688,39.0781 454.4375,39.2188 454.3281,39.3906 C454.1563,39.6094 453.8906,39.75 453.625,39.75 C453.3438,39.75 453.0625,39.5938 452.8906,39.3438 C452.8125,39.1875 452.7813,39.0156 452.7813,38.6094 L452.7813,37.75 L448.7969,37.75 L448.7969,40.1563 L450.25,40.1563 L450.25,40.0313 C450.25,39.5781 450.2813,39.4219 450.3906,39.25 C450.5625,39.0313 450.8281,38.8906 451.0781,38.8906 C451.5313,38.8906 451.8438,39.2031 451.9063,39.6719 C451.9219,39.8281 451.9219,39.875 451.9219,40.0313 L451.9219,41.9531 C451.9219,42.4063 451.8906,42.5625 451.7656,42.7188 C451.6094,42.9375 451.3438,43.0781 451.0938,43.0781 C450.7969,43.0781 450.5156,42.9219 450.3594,42.6719 C450.2813,42.5156 450.25,42.3594 450.25,41.9531 L450.25,41.8438 Z "/><text fill="#000000" font-family="sans-serif" font-size="12" font-style="italic" lengthAdjust="spacingAndGlyphs" textLength="49" x="462.5" y="38.1387">«enum»</text><text fill="#000000" font-family="sans-serif" font-size="12" lengthAdjust="spacingAndGlyphs" textLength="43" x="465.5" y="52.1074">Engine</text><!--MD5=[09ce52be0ee7de43c61b6e2d59bf108b]
class Person--><rect fill="#FEFECE" height="52.8047" id="Person" style="stroke: #A80036; stroke-width: 1.5;" width="161" x="547.5" y="157.5"/><ellipse cx="601.75" cy="173.5" fill="#ADD1B2" rx="11" ry="11" style="stroke: #A80036; stroke-width: 1.0;"/><path d="M604.0938,169.1719 L604.2656,169.25 C604.4844,168.9375 604.6875,168.8438 604.9844,168.8438 C605.2813,168.8438 605.5625,168.9844 605.7188,169.25 C605.8125,169.4063 605.8281,169.5313 605.8281,169.9688 L605.8281,171.3906 C605.8281,171.8125 605.7969,172 605.6875,172.1563 C605.5156,172.375 605.25,172.5156 604.9844,172.5156 C604.7656,172.5156 604.5313,172.4063 604.3906,172.2656 C604.25,172.1406 604.2188,172.0156 604.1563,171.6094 C604.0625,171.2031 603.8906,170.9844 603.4063,170.7031 C602.9375,170.4531 602.3281,170.2969 601.75,170.2969 C600.0156,170.2969 598.7656,171.6094 598.7656,173.3906 L598.7656,174.4844 C598.7656,176.1875 600.0625,177.2813 602.1094,177.2813 C602.875,177.2813 603.5625,177.1563 603.9844,176.8906 C604.1719,176.7969 604.1719,176.7969 604.625,176.3125 C604.8125,176.125 605.0156,176.0469 605.2344,176.0469 C605.7031,176.0469 606.0938,176.4375 606.0938,176.8906 C606.0938,177.2813 605.7656,177.7344 605.1875,178.1406 C604.4375,178.6875 603.2813,178.9844 602.0625,178.9844 C599.1719,178.9844 597.0625,177.0938 597.0625,174.5156 L597.0625,173.3906 C597.0625,170.6719 599.0625,168.5938 601.6875,168.5938 C602.5625,168.5938 603.1563,168.7344 604.0938,169.1719 Z "/><text fill="#000000" font-family="sans-serif" font-size="12" lengthAdjust="spacingAndGlyphs" textLength="44" x="622.25" y="177.6543">Person</text><line style="stroke: #A80036; stroke-width: 1.5;" x1="548.5" x2="707.5" y1="189.5" y2="189.5"/><ellipse cx="558.5" cy="200.5" fill="#84BE84" rx="3" ry="3" style="stroke: #038048; stroke-width: 1.0;"/><text fill="#000000" font-family="sans-serif" font-size="11" lengthAdjust="spacingAndGlyphs" textLength="135" x="567.5" y="203.7104">init(age:quantity:name:)</text><!--MD5=[f1bd6dbd8d4081205adc0601a16f1a8e]
class Tourist--><rect fill="#FEFECE" height="52.8047" id="Tourist" style="stroke: #A80036; stroke-width: 1.5;" width="161" x="547.5" y="14.5"/><ellipse cx="602.25" cy="30.5" fill="#ADD1B2" rx="11" ry="11" style="stroke: #A80036; stroke-width: 1.0;"/><path d="M604.5938,26.1719 L604.7656,26.25 C604.9844,25.9375 605.1875,25.8438 605.4844,25.8438 C605.7813,25.8438 606.0625,25.9844 606.2188,26.25 C606.3125,26.4063 606.3281,26.5313 606.3281,26.9688 L606.3281,28.3906 C606.3281,28.8125 606.2969,29 606.1875,29.1563 C606.0156,29.375 605.75,29.5156 605.4844,29.5156 C605.2656,29.5156 605.0313,29.4063 604.8906,29.2656 C604.75,29.1406 604.7188,29.0156 604.6563,28.6094 C604.5625,28.2031 604.3906,27.9844 603.9063,27.7031 C603.4375,27.4531 602.8281,27.2969 602.25,27.2969 C600.5156,27.2969 599.2656,28.6094 599.2656,30.3906 L599.2656,31.4844 C599.2656,33.1875 600.5625,34.2813 602.6094,34.2813 C603.375,34.2813 604.0625,34.1563 604.4844,33.8906 C604.6719,33.7969 604.6719,33.7969 605.125,33.3125 C605.3125,33.125 605.5156,33.0469 605.7344,33.0469 C606.2031,33.0469 606.5938,33.4375 606.5938,33.8906 C606.5938,34.2813 606.2656,34.7344 605.6875,35.1406 C604.9375,35.6875 603.7813,35.9844 602.5625,35.9844 C599.6719,35.9844 597.5625,34.0938 597.5625,31.5156 L597.5625,30.3906 C597.5625,27.6719 599.5625,25.5938 602.1875,25.5938 C603.0625,25.5938 603.6563,25.7344 604.5938,26.1719 Z "/><text fill="#000000" font-family="sans-serif" font-size="12" lengthAdjust="spacingAndGlyphs" textLength="43" x="622.75" y="34.6543">Tourist</text><line style="stroke: #A80036; stroke-width: 1.5;" x1="548.5" x2="707.5" y1="46.5" y2="46.5"/><ellipse cx="558.5" cy="57.5" fill="#84BE84" rx="3" ry="3" style="stroke: #038048; stroke-width: 1.0;"/><text fill="#000000" font-family="sans-serif" font-size="11" lengthAdjust="spacingAndGlyphs" textLength="135" x="567.5" y="60.7104">init(name:age:quantity:)</text><!--MD5=[2822049edaea389ed5d917b81a9be81f]
class Crew--><rect fill="#FEFECE" height="52.8047" id="Crew" style="stroke: #A80036; stroke-width: 1.5;" width="158" x="17" y="14.5"/><ellipse cx="76.75" cy="30.5" fill="#ADD1B2" rx="11" ry="11" style="stroke: #A80036; stroke-width: 1.0;"/><path d="M79.0938,26.1719 L79.2656,26.25 C79.4844,25.9375 79.6875,25.8438 79.9844,25.8438 C80.2813,25.8438 80.5625,25.9844 80.7188,26.25 C80.8125,26.4063 80.8281,26.5313 80.8281,26.9688 L80.8281,28.3906 C80.8281,28.8125 80.7969,29 80.6875,29.1563 C80.5156,29.375 80.25,29.5156 79.9844,29.5156 C79.7656,29.5156 79.5313,29.4063 79.3906,29.2656 C79.25,29.1406 79.2188,29.0156 79.1563,28.6094 C79.0625,28.2031 78.8906,27.9844 78.4063,27.7031 C77.9375,27.4531 77.3281,27.2969 76.75,27.2969 C75.0156,27.2969 73.7656,28.6094 73.7656,30.3906 L73.7656,31.4844 C73.7656,33.1875 75.0625,34.2813 77.1094,34.2813 C77.875,34.2813 78.5625,34.1563 78.9844,33.8906 C79.1719,33.7969 79.1719,33.7969 79.625,33.3125 C79.8125,33.125 80.0156,33.0469 80.2344,33.0469 C80.7031,33.0469 81.0938,33.4375 81.0938,33.8906 C81.0938,34.2813 80.7656,34.7344 80.1875,35.1406 C79.4375,35.6875 78.2813,35.9844 77.0625,35.9844 C74.1719,35.9844 72.0625,34.0938 72.0625,31.5156 L72.0625,30.3906 C72.0625,27.6719 74.0625,25.5938 76.6875,25.5938 C77.5625,25.5938 78.1563,25.7344 79.0938,26.1719 Z "/><text fill="#000000" font-family="sans-serif" font-size="12" lengthAdjust="spacingAndGlyphs" textLength="30" x="97.25" y="34.6543">Crew</text><line style="stroke: #A80036; stroke-width: 1.5;" x1="18" x2="174" y1="46.5" y2="46.5"/><ellipse cx="28" cy="57.5" fill="#84BE84" rx="3" ry="3" style="stroke: #038048; stroke-width: 1.0;"/><text fill="#000000" font-family="sans-serif" font-size="11" lengthAdjust="spacingAndGlyphs" textLength="132" x="37" y="60.7104">init(decisionOfCaptain:)</text><!--MD5=[0dc7f2ddb409b58bcf52b12238c25399]
class Ship--><rect fill="#FEFECE" height="65.6094" id="Ship" style="stroke: #A80036; stroke-width: 1.5;" width="190" x="210" y="8"/><ellipse cx="287.25" cy="24" fill="#ADD1B2" rx="11" ry="11" style="stroke: #A80036; stroke-width: 1.0;"/><path d="M289.5938,19.6719 L289.7656,19.75 C289.9844,19.4375 290.1875,19.3438 290.4844,19.3438 C290.7813,19.3438 291.0625,19.4844 291.2188,19.75 C291.3125,19.9063 291.3281,20.0313 291.3281,20.4688 L291.3281,21.8906 C291.3281,22.3125 291.2969,22.5 291.1875,22.6563 C291.0156,22.875 290.75,23.0156 290.4844,23.0156 C290.2656,23.0156 290.0313,22.9063 289.8906,22.7656 C289.75,22.6406 289.7188,22.5156 289.6563,22.1094 C289.5625,21.7031 289.3906,21.4844 288.9063,21.2031 C288.4375,20.9531 287.8281,20.7969 287.25,20.7969 C285.5156,20.7969 284.2656,22.1094 284.2656,23.8906 L284.2656,24.9844 C284.2656,26.6875 285.5625,27.7813 287.6094,27.7813 C288.375,27.7813 289.0625,27.6563 289.4844,27.3906 C289.6719,27.2969 289.6719,27.2969 290.125,26.8125 C290.3125,26.625 290.5156,26.5469 290.7344,26.5469 C291.2031,26.5469 291.5938,26.9375 291.5938,27.3906 C291.5938,27.7813 291.2656,28.2344 290.6875,28.6406 C289.9375,29.1875 288.7813,29.4844 287.5625,29.4844 C284.6719,29.4844 282.5625,27.5938 282.5625,25.0156 L282.5625,23.8906 C282.5625,21.1719 284.5625,19.0938 287.1875,19.0938 C288.0625,19.0938 288.6563,19.2344 289.5938,19.6719 Z "/><text fill="#000000" font-family="sans-serif" font-size="12" lengthAdjust="spacingAndGlyphs" textLength="27" x="307.75" y="28.1543">Ship</text><line style="stroke: #A80036; stroke-width: 1.5;" x1="211" x2="399" y1="40" y2="40"/><ellipse cx="221" cy="51" fill="#84BE84" rx="3" ry="3" style="stroke: #038048; stroke-width: 1.0;"/><text fill="#000000" font-family="sans-serif" font-size="11" lengthAdjust="spacingAndGlyphs" textLength="67" x="230" y="54.2104">init(engine:)</text><rect fill="#F24D5C" height="6" style="stroke: #C82930; stroke-width: 1.0;" width="6" x="218" y="60.8047"/><text fill="#000000" font-family="sans-serif" font-size="11" lengthAdjust="spacingAndGlyphs" textLength="164" x="230" y="67.0151">whichEngineItIsGoingToUse()</text><!--MD5=[25e2fb7615be8e8235c93ad75197cd6f]
class Cabin--><rect fill="#FEFECE" height="65.6094" id="Cabin" style="stroke: #A80036; stroke-width: 1.5;" width="180" x="6" y="151"/><ellipse cx="74.25" cy="167" fill="#ADD1B2" rx="11" ry="11" style="stroke: #A80036; stroke-width: 1.0;"/><path d="M76.5938,162.6719 L76.7656,162.75 C76.9844,162.4375 77.1875,162.3438 77.4844,162.3438 C77.7813,162.3438 78.0625,162.4844 78.2188,162.75 C78.3125,162.9063 78.3281,163.0313 78.3281,163.4688 L78.3281,164.8906 C78.3281,165.3125 78.2969,165.5 78.1875,165.6563 C78.0156,165.875 77.75,166.0156 77.4844,166.0156 C77.2656,166.0156 77.0313,165.9063 76.8906,165.7656 C76.75,165.6406 76.7188,165.5156 76.6563,165.1094 C76.5625,164.7031 76.3906,164.4844 75.9063,164.2031 C75.4375,163.9531 74.8281,163.7969 74.25,163.7969 C72.5156,163.7969 71.2656,165.1094 71.2656,166.8906 L71.2656,167.9844 C71.2656,169.6875 72.5625,170.7813 74.6094,170.7813 C75.375,170.7813 76.0625,170.6563 76.4844,170.3906 C76.6719,170.2969 76.6719,170.2969 77.125,169.8125 C77.3125,169.625 77.5156,169.5469 77.7344,169.5469 C78.2031,169.5469 78.5938,169.9375 78.5938,170.3906 C78.5938,170.7813 78.2656,171.2344 77.6875,171.6406 C76.9375,172.1875 75.7813,172.4844 74.5625,172.4844 C71.6719,172.4844 69.5625,170.5938 69.5625,168.0156 L69.5625,166.8906 C69.5625,164.1719 71.5625,162.0938 74.1875,162.0938 C75.0625,162.0938 75.6563,162.2344 76.5938,162.6719 Z "/><text fill="#000000" font-family="sans-serif" font-size="12" lengthAdjust="spacingAndGlyphs" textLength="35" x="94.75" y="171.1543">Cabin</text><line style="stroke: #A80036; stroke-width: 1.5;" x1="7" x2="185" y1="183" y2="183"/><ellipse cx="17" cy="194" fill="#84BE84" rx="3" ry="3" style="stroke: #038048; stroke-width: 1.0;"/><text fill="#000000" font-family="sans-serif" font-size="11" lengthAdjust="spacingAndGlyphs" textLength="51" x="26" y="197.2104">init(size:)</text><ellipse cx="17" cy="206.8047" fill="#84BE84" rx="3" ry="3" style="stroke: #038048; stroke-width: 1.0;"/><text fill="#000000" font-family="sans-serif" font-size="11" lengthAdjust="spacingAndGlyphs" textLength="154" x="26" y="210.0151">assignToTheCabin(tourist:)</text><!--MD5=[1b41f719eb4a21edbd438615c35f4abe]
class Atraction--><rect fill="#FEFECE" height="65.6094" id="Atraction" style="stroke: #A80036; stroke-width: 1.5;" width="127" x="221.5" y="151"/><ellipse cx="253.6" cy="167" fill="#ADD1B2" rx="11" ry="11" style="stroke: #A80036; stroke-width: 1.0;"/><path d="M255.9438,162.6719 L256.1156,162.75 C256.3344,162.4375 256.5375,162.3438 256.8344,162.3438 C257.1313,162.3438 257.4125,162.4844 257.5688,162.75 C257.6625,162.9063 257.6781,163.0313 257.6781,163.4688 L257.6781,164.8906 C257.6781,165.3125 257.6469,165.5 257.5375,165.6563 C257.3656,165.875 257.1,166.0156 256.8344,166.0156 C256.6156,166.0156 256.3813,165.9063 256.2406,165.7656 C256.1,165.6406 256.0688,165.5156 256.0063,165.1094 C255.9125,164.7031 255.7406,164.4844 255.2563,164.2031 C254.7875,163.9531 254.1781,163.7969 253.6,163.7969 C251.8656,163.7969 250.6156,165.1094 250.6156,166.8906 L250.6156,167.9844 C250.6156,169.6875 251.9125,170.7813 253.9594,170.7813 C254.725,170.7813 255.4125,170.6563 255.8344,170.3906 C256.0219,170.2969 256.0219,170.2969 256.475,169.8125 C256.6625,169.625 256.8656,169.5469 257.0844,169.5469 C257.5531,169.5469 257.9438,169.9375 257.9438,170.3906 C257.9438,170.7813 257.6156,171.2344 257.0375,171.6406 C256.2875,172.1875 255.1313,172.4844 253.9125,172.4844 C251.0219,172.4844 248.9125,170.5938 248.9125,168.0156 L248.9125,166.8906 C248.9125,164.1719 250.9125,162.0938 253.5375,162.0938 C254.4125,162.0938 255.0063,162.2344 255.9438,162.6719 Z "/><text fill="#000000" font-family="sans-serif" font-size="12" lengthAdjust="spacingAndGlyphs" textLength="57" x="271.4" y="171.1543">Atraction</text><line style="stroke: #A80036; stroke-width: 1.5;" x1="222.5" x2="347.5" y1="183" y2="183"/><ellipse cx="232.5" cy="194" fill="#84BE84" rx="3" ry="3" style="stroke: #038048; stroke-width: 1.0;"/><text fill="#000000" font-family="sans-serif" font-size="11" lengthAdjust="spacingAndGlyphs" textLength="79" x="241.5" y="197.2104">init(atraction:)</text><ellipse cx="232.5" cy="206.8047" fill="#84BE84" rx="3" ry="3" style="stroke: #038048; stroke-width: 1.0;"/><text fill="#000000" font-family="sans-serif" font-size="11" lengthAdjust="spacingAndGlyphs" textLength="101" x="241.5" y="210.0151">visitAnyAtraction()</text><!--MD5=[9df70cf33be424c1b8543b3f439cae89]
class String--><rect fill="#FEFECE" height="32" id="String" style="stroke: #A80036; stroke-width: 1.5;" width="69" x="439.5" y="168"/><ellipse cx="454.5" cy="184" fill="#ADD1B2" rx="11" ry="11" style="stroke: #A80036; stroke-width: 1.0;"/><path d="M456.8438,179.6719 L457.0156,179.75 C457.2344,179.4375 457.4375,179.3438 457.7344,179.3438 C458.0313,179.3438 458.3125,179.4844 458.4688,179.75 C458.5625,179.9063 458.5781,180.0313 458.5781,180.4688 L458.5781,181.8906 C458.5781,182.3125 458.5469,182.5 458.4375,182.6563 C458.2656,182.875 458,183.0156 457.7344,183.0156 C457.5156,183.0156 457.2813,182.9063 457.1406,182.7656 C457,182.6406 456.9688,182.5156 456.9063,182.1094 C456.8125,181.7031 456.6406,181.4844 456.1563,181.2031 C455.6875,180.9531 455.0781,180.7969 454.5,180.7969 C452.7656,180.7969 451.5156,182.1094 451.5156,183.8906 L451.5156,184.9844 C451.5156,186.6875 452.8125,187.7813 454.8594,187.7813 C455.625,187.7813 456.3125,187.6563 456.7344,187.3906 C456.9219,187.2969 456.9219,187.2969 457.375,186.8125 C457.5625,186.625 457.7656,186.5469 457.9844,186.5469 C458.4531,186.5469 458.8438,186.9375 458.8438,187.3906 C458.8438,187.7813 458.5156,188.2344 457.9375,188.6406 C457.1875,189.1875 456.0313,189.4844 454.8125,189.4844 C451.9219,189.4844 449.8125,187.5938 449.8125,185.0156 L449.8125,183.8906 C449.8125,181.1719 451.8125,179.0938 454.4375,179.0938 C455.3125,179.0938 455.9063,179.2344 456.8438,179.6719 Z "/><text fill="#000000" font-family="sans-serif" font-size="12" lengthAdjust="spacingAndGlyphs" textLength="37" x="468.5" y="188.1543">String</text><!--MD5=[5ba8f72efe8aeafee044494d37de11a8]
link Engine to String--><path d="M474,60.145 C474,88.26 474,141.8246 474,167.9366 " fill="none" id="Engine-String" style="stroke: #A80036; stroke-width: 1.0;"/><!--MD5=[be635acc9ba9e0f4fe748d313ea6b8a4]
link Tourist to Person--><path d="M628,67.534 C628,86.878 628,113.974 628,137.0559 " fill="none" id="Tourist-&gt;Person" style="stroke: #A80036; stroke-width: 1.0;"/><polygon fill="none" points="635,137.1795,628,157.1794,621,137.1794,635,137.1795" style="stroke: #A80036; stroke-width: 1.0;"/><text fill="#000000" font-family="sans-serif" font-size="13" lengthAdjust="spacingAndGlyphs" textLength="47" x="629" y="117.0669">inherits</text><!--MD5=[a60526c3020d56e61e670dbb4ecd147f]
link Crew to Ship--><!--MD5=[d1eca26e2f041121873b832e59b440c4]
link Crew to Cabin--><!--MD5=[ebbc62e5de70c02c158effdeb69d2e2a]
link Cabin to Atraction--><!--MD5=[d2462fdc917ee602422cbdffb417c6bf]
@startuml
hide empty members
skinparam shadowing false
class "Engine" as Engine << (E,LightSteelBlue) enum >> {

}
class "Person" as Person {
  +init(age:quantity:name:)

}
class "Tourist" as Tourist {
  +init(name:age:quantity:)

}
class "Crew" as Crew {
  +init(decisionOfCaptain:)

}
class "Ship" as Ship {
  +init(engine:)
  -whichEngineItIsGoingToUse()

}
class "Cabin" as Cabin {
  +init(size:)
  +assignToTheCabin(tourist:)

}
class "Atraction" as Atraction {
  +init(atraction:)
  +visitAnyAtraction()

}

Engine - - String 
Tourist - -|> Person : inherits
@enduml

PlantUML version 1.2020.02(Sun Mar 01 10:22:07 UTC 2020)
(GPL source distribution)
Java Runtime: Java(TM) SE Runtime Environment
JVM: Java HotSpot(TM) 64-Bit Server VM
Java Version: 1.7.0_25-b15
Operating System: Linux
Default Encoding: UTF-8
Language: en
Country: US
--></g></svg>